<svg width="234" height="34" viewBox="0 0 234 34" fill="none" xmlns="http://www.w3.org/2000/svg">
<g clip-path="url(#clip0_19_647)">
<path d="M54.9831 0.0923063C54.936 0.0538795 54.881 0.0231381 54.8182 0.00776742C54.567 -0.0383447 54.3158 0.138418 53.939 0.430462L53.6485 0.645652C52.6123 1.18363 51.8194 3.71211 51.6467 4.74963C51.6153 4.765 51.5918 4.78037 51.5368 4.81111C50.901 3.73516 49.7391 2.74375 48.5223 2.59005C49.0012 4.38842 50.6184 9.81428 52.7693 9.34547C53.8605 9.10722 56.1449 4.60361 56.1685 2.12124V2.02902C56.1528 0.71482 55.5326 0.246013 54.9831 0.0846209V0.0923063Z" fill="#F08300"/>
<path d="M69.4982 27.7365C66.7977 27.8441 65.9028 27.7058 63.2573 28.5589C62.8961 28.6665 62.5743 28.9124 62.276 29.2429C62.3152 29.7885 61.9855 30.6493 62.5036 30.8568C62.5272 30.8568 62.5272 30.9413 62.5507 30.9874C62.6999 31.1412 62.8569 31.1642 63.0139 31.3487C63.1159 31.487 63.1944 31.3333 63.3044 31.3871C63.3515 31.4409 63.3829 31.5254 63.43 31.5331C63.689 31.6561 63.9245 31.6023 64.1836 31.7252C64.317 31.8328 64.4426 31.8098 64.5761 31.8252C64.6546 31.7944 64.7566 31.9789 64.7802 32.0173C65.2748 32.2171 65.7222 32.0403 66.2246 32.0327C67.7162 32.0096 67.4414 31.8636 68.933 31.8405C70.189 31.8252 71.4215 32.0096 72.6775 31.9942C73.3605 31.9712 74.1063 31.9942 74.7814 31.9481C75.9903 31.8789 77.1993 32.0634 78.4004 32.0711C79.0048 32.0557 79.7035 32.2863 80.3158 32.3324C80.9674 32.3324 81.5876 32.171 82.2548 32.3016C82.4668 32.317 82.6787 32.2863 82.8907 32.3862C83.087 32.4861 83.2989 32.5783 83.4873 32.5937C84.0682 32.6321 84.5785 32.4246 85.1437 32.2171C85.4813 32.1172 85.8188 32.0634 86.1172 31.8713C86.2742 31.8021 86.4076 31.5638 86.4704 31.3256C86.6274 30.8875 86.753 30.4034 86.5882 29.8961C86.5568 29.8961 86.4783 29.9269 86.4547 29.8884C86.3998 29.8039 86.4076 29.5964 86.3291 29.5887C86.0858 29.4965 85.8424 29.4734 85.6069 29.4119C85.285 29.3505 84.9553 29.2044 84.6413 29.143C83.1498 28.7894 74.6008 27.529 69.4903 27.7365H69.4982Z" fill="#009F73"/>
<path d="M43.3804 28.7048C43.6552 28.7663 43.9614 28.7586 44.1105 28.9354C44.2597 29.0737 43.9692 29.2966 43.9849 29.481C43.9849 29.9191 44.1419 30.311 44.1419 30.7414C44.1419 30.8183 44.1105 30.8874 44.032 30.9643C43.9535 31.0719 43.8279 31.1872 43.7101 31.264C43.3333 31.4946 42.8388 31.4101 42.407 31.533C41.8496 31.7021 41.2373 31.7636 40.6643 31.8174C39.6123 31.925 38.6232 31.7098 37.5556 31.679C37.1552 31.656 36.7156 31.7098 36.378 31.8327C35.8992 31.9557 35.4124 31.9403 34.9257 31.925C32.3979 31.8327 29.9173 31.779 27.4052 31.802C26.9656 31.8174 26.4789 31.8712 26.0393 31.8865C24.0139 32.0018 21.9964 31.9634 19.971 32.0172C19.2645 32.0326 18.5658 32.0556 17.8514 32.0403C17.4589 32.0479 17.0586 32.0556 16.7053 32.0633C15.2138 32.1402 13.6751 32.2093 12.1757 32.1478C11.6027 32.1555 10.9903 32.1555 10.4173 32.1632C8.74517 32.2478 7.04167 32.5167 5.36172 32.4245C4.12138 32.363 2.95954 32.0787 1.82911 31.51C1.05978 31.118 0.455315 30.58 0.0157013 29.9268C0.30616 29.5579 0.737924 29.4119 1.21679 29.2966C2.34722 28.9969 3.39131 28.8124 4.52959 28.6203C5.48732 28.4666 6.36655 28.382 7.29287 28.3052C19.3979 27.2446 32.9632 27.6365 38.2542 27.9901C40.0362 28.1053 41.6848 28.3359 43.3961 28.7048H43.3804Z" fill="#0073BD"/>
<path d="M65.2198 17.6302V17.7685C65.3297 18.0375 65.5417 18.1067 65.7615 18.3065H66.4601C66.4601 18.1759 66.625 18.3065 66.625 18.1759C66.782 18.1759 67.0254 18.1067 67.1353 17.9069H67.253C67.3708 17.6994 67.5435 17.561 67.779 17.561C68.0694 17.2229 68.3521 16.8847 68.6425 16.5466C68.6425 16.4082 68.6975 16.2699 68.8152 16.2084C68.9879 15.6013 69.1057 14.9173 69.3883 14.3101C69.3883 14.1103 69.506 13.8336 69.4432 13.6338C69.506 13.6338 69.561 13.6338 69.561 13.5646C69.506 13.2957 69.6787 13.1573 69.7965 13.0267C69.9143 13.0267 70.0242 13.0267 70.087 12.8883V12.75C70.3774 12.75 70.6993 12.9575 70.9269 13.2265H71.3037C71.3037 13.3648 71.3744 13.3648 71.4529 13.434C71.7591 13.434 72.4263 13.3648 72.7246 13.5032C72.7246 13.703 73.0308 13.6338 73.1015 13.8413C73.1721 14.0488 73.1721 14.2486 73.3291 14.4561C73.3291 14.5253 73.3291 14.5868 73.2506 14.656C73.3998 14.8635 73.5568 15.2016 73.3291 15.4014C73.3998 15.6704 73.3291 16.0086 73.4783 16.2776C73.3291 16.4159 73.3998 16.6157 73.3998 16.7541C73.5568 17.0231 73.5568 17.3689 73.6274 17.7071C73.9336 18.0452 73.8551 18.4525 74.0827 18.7907V19.198C74.2319 19.198 74.0827 19.3978 74.2319 19.3978C74.3104 19.8052 74.0827 20.2816 74.0827 20.689C74.0042 20.7581 73.9336 20.8273 73.8551 20.8888V21.0271C73.7766 21.0271 73.7059 21.0271 73.7059 20.958C73.5568 21.1578 73.3291 21.2961 73.1721 21.5036C73.0229 21.4344 72.9444 21.5651 72.8738 21.5651C72.7168 21.5651 72.8738 21.7726 72.7168 21.7726C72.5598 21.7726 72.4106 21.8418 72.34 21.9109C72.1908 21.9801 71.6727 21.8418 71.5157 21.9801L71.4372 21.9109C71.3587 21.9801 71.288 22.0493 71.131 22.0493C71.131 21.9801 71.131 21.9109 71.0525 21.9109C70.974 22.1108 70.6443 22.2491 70.4481 22.1799C70.3774 22.0493 70.4088 21.9417 70.2361 21.8802C70.1812 21.4575 70.1812 21.0886 69.9457 20.7197C70.0006 20.7197 70.0006 20.6582 70.0006 20.6044C69.9457 20.42 69.8279 20.2355 69.8279 20.0511C69.6552 19.8128 69.5924 19.4439 69.3647 19.2595C69.4197 19.198 69.247 19.1365 69.3098 19.075C69.192 18.9521 69.1371 18.8906 69.0193 18.7676C68.9016 18.7676 68.9016 18.8291 68.8466 18.8906C68.7917 19.198 68.5012 19.4439 68.4463 19.7514L68.3913 19.6899C68.3285 19.8743 68.1558 19.9973 68.1558 20.1817C68.038 20.2432 67.9831 20.4277 67.8653 20.4891V20.6121C67.465 20.981 67.2452 21.5651 66.7585 21.8264C66.6407 22.08 66.3345 22.1338 66.2089 22.4182C66.0284 22.4182 65.7458 22.4873 65.5181 22.5642C65.369 22.495 65.1413 22.349 64.9921 22.495C64.9921 22.4259 64.9136 22.4259 64.843 22.4259L64.7723 22.495C64.6232 22.349 64.3955 22.495 64.1679 22.4259C63.7126 22.0723 63.1866 21.9263 62.6606 21.642C62.5115 21.642 62.6606 21.4268 62.5115 21.4268C62.433 21.4268 62.3623 21.4268 62.2917 21.3576C62.2917 21.1424 62.3623 20.9964 62.1347 20.858L62.2132 20.7889C62.2132 20.7197 62.1347 20.7197 62.064 20.7197C61.9855 20.2893 61.7657 19.9358 61.6872 19.5131C61.6349 19.467 61.5851 19.4183 61.538 19.3671C61.538 19.1519 61.4595 18.9367 61.3889 18.7984C61.3182 18.514 61.5773 18.2758 61.4281 17.9991C61.4281 17.9376 61.4281 17.8684 61.4988 17.7993C61.4281 17.4611 61.4988 17.2536 61.5694 16.9155C61.4988 16.9155 61.4988 16.8463 61.4988 16.7771C61.6479 16.5081 61.6479 16.2315 61.6479 15.9625C61.7186 15.755 61.8678 15.5552 61.9384 15.3476L61.8677 15.2785C62.0091 15.1401 61.9384 14.9326 62.1582 14.802C62.1582 14.7405 62.1582 14.6713 62.0876 14.6713C62.0876 14.533 62.2289 14.4715 62.3074 14.4024C62.378 14.264 62.6606 13.7337 62.8255 13.6261L62.7705 13.5493C62.8961 13.3725 63.218 13.2957 63.4692 13.2803C63.6655 13.2649 64.0266 13.4494 64.1365 13.5108C64.2228 13.6722 64.1365 13.7952 64.2464 14.0027H64.3563V14.141C64.3563 14.2102 64.4112 14.2102 64.4583 14.2102C64.5133 14.41 64.6232 14.6175 64.5682 14.8174C64.5682 14.8865 64.6232 14.8865 64.6781 14.8865C64.6232 15.0172 64.788 15.1555 64.788 15.2939C64.6781 15.4322 64.788 15.632 64.7331 15.8318C64.8979 16.17 64.843 16.5773 65 16.9155C65 17.1844 65.1099 17.4611 65.2198 17.6609V17.6302Z" fill="#231815"/>
<path d="M37.3672 20.1433C37.3672 20.1433 37.6498 20.3201 37.7283 20.4507C37.8068 20.5814 37.9559 20.7505 38.058 20.7889C38.2071 20.8427 38.3484 20.9272 38.3484 20.9272L38.4426 21.1194L38.6781 21.3345C38.9294 21.4037 38.9765 21.2654 39.1649 21.519C39.2512 21.519 39.3297 21.519 39.3297 21.5882L39.4161 21.519C39.4946 21.665 39.6673 21.7342 39.7458 21.8034C39.997 21.8034 40.2089 21.8956 40.3816 22.0416C40.4601 22.0416 40.4759 22.203 40.4759 22.1338C40.7271 22.1953 40.8998 22.3721 41.0725 22.2184C41.151 22.2184 41.2373 22.2184 41.2373 22.2875L41.3158 22.2184C41.4807 22.1492 41.5199 22.3413 41.6848 22.2645C41.7711 22.2645 41.7711 22.3336 41.7711 22.4105H41.936C42.1009 22.5565 42.8074 22.3644 42.9801 22.5104C43.9143 22.6257 45.4451 22.4182 45.4451 22.4182C45.4529 22.2798 45.6884 22.4259 45.6884 22.2875L45.7669 22.3644C46.0809 22.4489 46.4185 22.0954 46.7246 22.2414C46.7822 22.2004 46.8372 22.1569 46.8895 22.1108C47.0544 22.0493 47.282 22.3413 47.4469 22.1338C47.4469 22.203 47.5254 22.203 47.6039 22.2107C47.6039 22.1646 47.6065 22.1185 47.6117 22.0723C47.8551 21.9417 48.1534 21.9801 48.3339 21.788C48.4124 21.788 48.5695 21.811 48.648 21.8187C48.7055 21.7777 48.7631 21.7367 48.8207 21.6958C49.2367 21.5959 49.59 21.2808 50.061 21.1732C50.1316 21.0963 50.2887 21.0809 50.3593 20.9426C50.4378 20.9349 50.5163 20.9272 50.5948 20.9195C50.6655 20.8504 50.744 20.7658 50.8068 20.6967C51.0501 20.7428 51.2621 20.4123 51.4976 20.3816C51.4897 20.3124 51.474 20.2432 51.5525 20.2355L51.6389 20.2893C51.7331 20.2279 51.7985 20.1484 51.8352 20.0511C52.0785 20.0818 52.2198 19.7898 52.3454 19.6284C52.3978 19.6182 52.4501 19.6105 52.5024 19.6053C52.5548 19.6002 52.5992 19.5464 52.6359 19.444C52.6882 19.4337 52.7405 19.426 52.7929 19.4209C53.0048 19.2441 53.1226 19.0213 53.4209 18.8983C53.4131 18.8291 53.3974 18.76 53.4759 18.7523C53.6407 18.7984 53.6093 18.5909 53.6721 18.514C53.7349 18.4679 53.9469 18.3219 54.0018 18.3834C53.994 18.4987 54.2059 18.0913 54.1981 18.1989C54.253 18.2681 54.5278 17.5764 54.5906 17.5303L53.9312 15.8395C53.6878 16.1777 52.8164 17.2844 52.3533 17.3843C52.3533 17.7378 51.9608 17.7609 51.686 17.9607C51.7017 18.0298 51.7252 18.0913 51.6389 18.1144C51.4034 18.1605 51.3092 18.4141 51.1522 18.4525C51.1365 18.3834 51.058 18.4064 50.9795 18.4218C50.9167 18.5063 50.7675 18.5371 50.7204 18.6908C50.4849 18.7446 50.4221 18.9675 50.2887 19.1289L50.1945 19.0674C49.9118 19.321 49.5115 19.2979 49.3231 19.6053C48.8756 19.8129 48.4909 19.8897 48.0278 20.0511C47.9493 20.0511 47.8708 20.0588 47.8708 19.9896C47.8001 20.1356 47.4704 20.0127 47.3998 20.1587C46.9288 20.1894 46.5205 20.1433 46.0495 20.2509C46.0495 20.1126 45.814 20.2663 45.8062 20.128C45.4137 20.2893 45.0211 20.0742 44.6208 20.0742C44.5423 20.005 44.3853 20.005 44.2989 19.8666C43.9064 19.9358 43.663 19.8666 43.4275 19.6591C43.192 19.6591 43.0272 19.4516 42.7917 19.3825V19.2441C42.7393 19.198 42.687 19.1519 42.6347 19.1058C42.6347 18.8983 42.8702 18.8983 43.035 18.8291C43.192 18.6216 43.6238 18.6754 43.7808 18.4602C43.7808 18.3911 43.9928 18.2527 43.9928 18.1836C44.0713 18.0452 44.1262 17.9146 44.2047 17.9146C44.4481 17.7762 44.2911 17.6148 44.6051 17.5457C44.6051 17.4765 44.8563 17.3074 44.7778 17.2383C45.0996 17.0308 45.0918 16.9155 45.1703 16.5005C45.3352 16.293 45.5628 16.0624 45.5628 15.7934C45.6413 15.7242 45.5471 15.4245 45.7041 15.3553C45.7826 14.8712 45.5785 14.6176 45.5785 14.1334C45.5262 14.0873 45.4738 14.0411 45.4215 13.995C45.4215 13.7875 45.2645 13.6492 45.343 13.4417C45.1075 13.2342 45.1624 13.165 44.9269 12.9652L44.7856 12.8192H44.6286C44.5501 12.6808 44.3068 12.6117 44.3068 12.4733C43.9928 12.4042 43.6709 12.1967 43.3569 12.0583L43.2784 12.1275L43.1999 12.0583C43.1475 12.1044 43.0952 12.1506 43.0429 12.1967C43.0429 11.9892 42.8074 12.1967 42.7289 12.0583C42.564 12.0583 42.407 11.9892 42.25 12.1275C41.7711 11.9892 41.2609 12.2274 40.782 12.0276C40.782 12.1659 40.4602 11.9584 40.4602 12.1659C40.3031 12.2351 40.0755 12.2274 39.9891 12.2966H39.7536C39.5103 12.5041 39.314 12.7423 38.843 12.7423C38.686 12.7423 38.843 12.9498 38.686 12.9498H38.529C38.1365 13.2957 37.8146 13.7107 37.3358 13.9874C37.3358 14.0565 37.1787 14.1257 37.2573 14.264C37.2573 14.3332 37.1787 14.3332 37.0924 14.3332C37.0924 14.4715 37.0139 14.5407 36.9354 14.6099C36.9354 14.679 36.9354 14.7482 37.0139 14.7482C37.0139 14.8174 36.8961 14.9941 36.8098 14.9941C36.7313 15.2708 36.7313 15.5475 36.4958 15.6858C36.4958 16.2315 36.3309 16.5005 36.2917 17.1076C36.3466 17.4304 36.3702 17.9146 36.3702 18.2066C36.6214 18.3526 36.3074 18.3449 36.4722 18.5601C36.5507 18.5601 36.5115 18.6908 36.5115 18.76C36.59 18.906 36.8569 19.0059 36.7705 19.1519C36.7705 19.2211 36.9118 19.2902 36.9903 19.2902C37.0688 19.4363 36.8647 19.5977 37.0374 19.6668C37.0374 19.7437 37.3044 19.6822 37.218 19.8282L37.3593 20.1433H37.3672ZM42.5483 15.6474C42.3835 15.7166 42.5483 15.8626 42.3835 15.9394L42.462 16.0086C42.407 16.6004 42.0223 17.4073 41.1824 17.9837C41.1039 17.9837 41.0175 17.9837 41.0175 17.9146C41.0175 17.7685 40.8605 17.5457 40.939 17.3996C40.939 17.3305 40.8605 17.3305 40.7742 17.3305C40.939 17.1845 40.6643 17.0384 40.7506 16.8232C40.6721 16.8232 40.6721 16.7541 40.6721 16.6772C40.9155 16.5312 40.7192 16.1546 40.9547 16.0086L40.8762 15.9394C40.9547 15.7934 41.0803 15.5629 41.2373 15.4245V15.2785C41.5513 14.9864 41.9752 14.8558 42.3756 14.7175C42.4541 14.7175 42.5405 14.7175 42.5405 14.7866C42.776 15.0787 42.619 15.3707 42.5405 15.6628L42.5483 15.6474Z" fill="#231815"/>
<path d="M56.3569 14.9788C56.3647 15.0787 56.3726 15.171 56.3883 15.2632C56.9299 15.7781 56.8279 16.6619 57.189 17.2844C57.0163 17.4996 57.1419 17.7763 57.0634 17.9761C57.1367 18.0325 57.2073 18.0888 57.2754 18.1452C57.1341 18.6447 57.4795 19.0828 57.4324 19.5747C57.3748 19.6464 57.3146 19.7181 57.2518 19.7899C57.2597 19.8821 57.2754 19.982 57.3696 19.9666L57.2832 20.0742L57.3853 20.1588L57.2989 20.2663C57.3931 20.251 57.401 20.3509 57.4088 20.4431C57.2361 20.6583 57.558 20.9042 57.2832 21.1348C57.3931 21.2193 57.401 21.3116 57.4088 21.4115C57.1419 21.642 57.3068 22.0493 57.1184 22.3414L57.2126 22.4336L57.1184 22.5335L57.0163 22.4413C56.9221 22.4413 56.9221 22.5412 56.9221 22.6334C57.0242 22.8179 57.2204 23.0023 57.032 23.2022L57.1341 23.2944C56.8436 23.5019 56.7572 23.7401 56.6709 24.0245C56.6133 24.0911 56.5531 24.1551 56.4903 24.2166C56.5845 24.3088 56.5845 24.3934 56.5845 24.4856C56.4118 24.6777 56.3176 24.8699 56.1449 25.062C56.1449 25.1542 56.2391 25.331 56.0586 25.4309L56.1528 25.5154C56.0664 25.7076 55.9801 25.9842 55.9016 26.1687C55.9879 26.1687 55.9879 26.2532 55.9958 26.3455C55.7289 26.5376 55.4149 26.7528 55.5169 27.114C55.3442 27.3984 55.1244 27.4983 54.9438 27.7826C55.038 27.9594 54.622 28.0439 54.6298 28.2284C54.6298 28.4128 54.3629 28.336 54.4571 28.5127L54.5513 28.5973C54.4885 28.5973 54.4283 28.6024 54.3708 28.6126C54.3132 28.7356 54.2242 28.8304 54.1039 28.897C54.1039 28.9892 54.1039 29.0814 54.0175 29.0814C53.8527 29.2044 53.7742 29.3427 53.6014 29.5349C53.6956 29.6194 53.311 29.8116 53.4052 29.8192C53.3031 29.9038 53.2089 29.996 53.1854 30.1728C53.099 30.1728 53.0048 30.1651 52.997 30.2573V30.3803C52.9342 30.4418 52.9185 30.4418 52.785 30.4725C52.0785 31.2641 51.0423 31.5792 50.3279 32.3631C50.1395 32.4476 49.9511 32.5245 49.7627 32.609C49.5743 32.6936 49.6371 32.9702 49.4644 32.8703C49.4722 32.7781 49.221 32.9472 49.1268 32.9472C48.9306 33.1163 48.6322 32.9933 48.4517 32.9856C48.4517 32.8934 48.3496 32.9164 48.2711 32.8165L48.1691 32.9011C48.0906 32.8088 47.8865 32.6244 47.7923 32.6167C47.7138 32.5245 47.8865 32.4246 47.8001 32.4246L47.8943 32.3323C47.9022 32.2401 47.753 32.2171 47.6588 32.2094C47.494 32.0172 47.8472 32.1633 47.7687 31.9788L47.4155 31.9481C47.3291 31.7713 47.1564 31.7636 47.0779 31.5792C47.0936 31.3947 47.494 31.4024 47.5097 31.218C47.6902 31.2257 47.6353 31.1949 47.8315 31.1104L47.7609 30.9797C47.9571 30.8952 47.9257 30.7338 48.0121 30.7415C48.0042 30.8337 48.0827 30.7261 48.1691 30.7338C48.2633 30.7338 48.3496 30.7415 48.3575 30.6493C48.3653 30.5647 48.3732 30.4648 48.4752 30.3803C48.538 30.3803 48.6008 30.3828 48.6636 30.388C49.0562 30.0421 48.8049 30.2727 49.2132 29.8346C49.2184 29.7731 49.2236 29.7116 49.2289 29.6502C49.3309 29.5656 49.3466 29.3812 49.535 29.2966C49.5272 29.3889 49.5115 29.4811 49.6057 29.4811C49.8961 29.312 49.7234 29.2121 49.6528 29.0276C49.7208 28.9662 49.7862 28.9072 49.849 28.8509C49.8412 28.9431 49.9982 28.8739 49.9118 28.8663C49.9118 28.9585 50.006 28.6511 50.1002 28.6588C50.3279 28.3206 50.163 28.7202 50.4927 28.0977C50.5634 28.0286 50.7361 27.9594 50.7518 27.921C50.7283 27.9133 50.9638 27.8287 50.8774 27.7365C50.8696 27.6597 50.901 27.6366 50.7126 27.7135C50.8225 27.5367 51.1365 27.2677 51.1522 27.0833C51.4112 27.1832 51.2071 26.7758 51.3877 26.7835C51.2856 26.8681 51.1993 26.6913 51.2071 26.7835H51.5054C51.7017 26.5991 51.2228 26.6068 51.4034 26.4146C51.4034 26.3224 51.372 26.2686 51.2778 26.2763C51.2778 26.1841 51.2542 26.1072 51.3484 26.0995L51.4426 26.1841C51.529 26.0918 51.3563 25.7844 51.5368 25.6768C51.5368 25.5846 51.5368 25.4924 51.5368 25.4002C51.8037 25.2003 51.686 25.2311 51.7645 24.9544L51.6781 24.8699C51.6781 24.9621 51.8744 24.7853 51.7802 24.7853C51.7802 24.7239 51.7802 24.6624 51.7802 24.6009C51.9607 24.501 52.0863 23.8861 52.0785 23.7094C52.0785 23.8938 51.8665 23.2944 52.0471 23.3712C52.3062 22.987 52.1256 22.4797 52.1727 22.0109C51.9843 21.9418 52.3219 21.8111 52.212 21.642C52.1178 21.642 52.0314 21.6651 52.0235 21.5729C52.0759 21.5062 52.1282 21.4371 52.1806 21.3654C52.1727 21.2731 52.1648 21.1809 52.0785 21.1963C52.0706 21.104 52.0628 21.0118 52.1492 21.0041C52.1413 20.9119 52.1335 20.8197 52.0392 20.8351C52.0916 20.7633 52.1465 20.6942 52.2041 20.6276C52.1963 20.543 52.1021 20.5507 52.0157 20.5584C52.0707 20.1818 51.686 19.9051 51.8273 19.5209C51.7331 19.5286 51.7252 19.444 51.7174 19.3518C51.9607 19.0444 51.631 18.6755 51.7802 18.3834C51.5918 18.3143 51.6624 18.1221 51.6389 17.9377C51.7174 17.8378 51.4897 17.7455 51.4819 17.6533C51.2542 17.2153 51.317 16.8694 51.1757 16.4083C50.9952 16.562 50.8696 15.1325 50.7126 14.5715C50.477 14.2103 50.6341 13.8106 50.5006 13.4418C50.5948 13.4264 50.6969 13.411 50.6812 13.3188C50.5556 13.0421 50.8382 12.9115 50.901 12.6194C51.0972 12.5964 51.2778 12.4734 51.4976 12.6425C51.6781 12.5272 51.5604 12.3427 51.5525 12.2505C51.9372 12.2044 52.2277 12.166 52.6202 12.1199C52.6359 12.2121 52.6359 12.312 52.7379 12.2966C53.0284 12.2659 53.1461 12.4427 53.4366 12.4042C53.4444 12.5041 53.4601 12.5964 53.5543 12.581C53.7428 12.5579 53.8527 12.6425 53.9626 12.727C54.0568 12.7116 54.1588 12.704 54.151 12.604L54.2609 12.6886L54.3472 12.581C54.4493 12.6655 54.5513 12.6502 54.6455 12.6425C54.7554 12.727 54.7868 13.0114 54.9674 12.8961C55.4305 13.6108 55.9879 14.218 56.3569 14.9481V14.9788Z" fill="#231815"/>
<path d="M13.5495 16.6849C13.5181 16.5312 13.2905 16.4851 13.1963 16.4851C13.1021 16.4851 12.9293 16.6772 12.8351 16.5312C12.8351 16.5312 12.6781 16.7771 12.4976 16.9078C12.372 16.9923 12.1757 16.9846 12.1757 16.9846C12.1286 17.2152 12.1051 17.2459 12.317 17.7916C12.4112 17.807 12.5133 18.3296 12.6153 18.3526C12.5682 18.1528 12.8901 18.7907 12.9921 18.8752C13.034 18.8855 13.0785 18.8957 13.1256 18.906C13.1884 18.9213 13.1649 18.9828 13.1256 19.0366L13.4161 19.2364C13.4475 19.3133 13.5103 19.3364 13.4396 19.4439C13.6673 19.4593 13.8007 19.59 13.9891 19.6668C14.0519 19.6976 14.0127 19.7437 13.9734 19.7975C14.0362 19.8205 14.099 19.8513 14.1304 19.7975C14.2953 19.7975 14.1775 19.9589 14.2011 20.0357L14.2953 20.0127C14.3188 20.0895 14.4444 20.1433 14.4444 20.1433C14.6407 20.4354 15.5906 20.7812 15.8261 21.0425L15.9203 20.9964C15.9909 21.1424 16.407 21.1732 16.407 21.373L16.4934 21.3192C16.5326 21.3883 17.1606 21.5036 17.3333 21.5958C17.4197 21.5421 17.2941 21.4498 17.3961 21.4037C17.4982 21.4959 17.7101 21.6881 17.8122 21.7726C17.8122 21.7726 18.0791 21.7957 18.2754 21.8341C18.5187 22.0877 19.0211 21.9263 19.3116 22.057C19.3508 22.1338 19.4136 22.1492 19.4764 22.1569L19.5707 22.1108L19.6099 22.1876C19.7905 22.0954 19.8925 22.1876 20.0181 22.08L20.0574 22.1569L20.1437 22.1108C20.1699 22.1569 20.1934 22.2056 20.2144 22.2568C20.4734 22.3106 20.7089 22.4336 20.9837 22.2952C21.0229 22.3721 21.0857 22.3874 21.1485 22.3951C21.2114 22.3644 21.2742 22.3336 21.337 22.3029C21.5332 22.3413 21.5646 22.4182 21.7923 22.4028L21.8315 22.4797C22.1063 22.3413 22.3025 22.3798 22.5616 22.4412C22.6165 22.3183 22.7578 22.4873 22.8128 22.3644L22.8442 22.4412C23.064 22.2875 23.3937 22.3721 23.6135 22.3567L23.6449 22.4336C23.7391 22.3874 23.6999 22.4336 23.6999 22.4336C23.8883 22.349 24.3357 22.3413 24.4614 22.2414C24.7126 22.3029 24.7126 22.3567 25.058 22.3106C25.1286 22.326 25.2699 22.3567 25.3406 22.3798C25.6232 22.1953 25.8744 22.1953 26.1256 22.3413C26.4082 22.2875 26.8635 22.0723 27.1069 21.9417C27.1775 21.9647 27.2482 21.9878 27.3267 22.0032C27.4287 21.9647 27.4994 21.9878 27.57 21.8725C27.8841 21.7649 28.1196 21.6573 28.41 21.4652C28.4414 21.5421 28.622 21.396 28.6534 21.4652C28.6743 21.4293 28.6979 21.3909 28.724 21.3499C28.8653 21.3883 28.9674 21.2193 29.1087 21.2654C29.1349 21.2244 29.1584 21.186 29.1793 21.1501C29.3913 21.0809 29.305 21.0271 29.5248 20.958C29.7053 20.835 29.9644 20.42 30.3804 20.2355C30.3726 20.1049 30.6473 20.028 30.7101 19.9128C30.7415 19.8513 30.8122 19.8666 30.8829 19.8897L30.8357 19.8128C30.9378 19.7667 30.9143 19.5669 31.0085 19.6591C31.032 19.5977 31.1576 19.444 31.0948 19.4286C31.2989 19.2749 31.2989 18.7676 31.5972 18.6985C31.6129 18.6575 31.6312 18.6191 31.6522 18.5832C31.7699 18.4218 31.7228 18.1298 31.7935 18.099C31.817 18.0375 31.7856 17.9991 31.8484 18.0145C31.9269 17.7762 31.9819 17.4227 32.0525 17.1076C31.9897 17.0922 32.0211 17.0307 32.0525 16.9693C32.1153 16.9846 32.1389 16.9232 32.1624 16.8694C32.0996 16.854 32.131 16.7925 32.1546 16.731L32.2409 16.6849C32.1153 16.6619 32.2566 16.4928 32.131 16.4697L32.2095 16.4159C32.1075 16.1316 32.2566 15.8395 32.1546 15.5552L32.2331 15.509C32.0918 15.34 32.1153 15.1786 32.2331 15.0018C32.1938 14.925 32.2095 14.8635 32.2331 14.802C32.0682 14.7021 32.2723 14.5945 32.1624 14.5023C32.2252 14.3178 32.0211 14.1411 32.1389 13.972C32.0604 13.826 32.0447 13.7568 31.9505 13.6185C31.9662 13.557 31.9897 13.4955 32.0054 13.4263C31.9426 13.4109 31.8798 13.4033 31.8955 13.3418C31.9976 13.2342 31.8955 13.142 31.9191 13.019C31.7935 12.9959 31.8641 12.8883 31.817 12.8192C31.7778 12.481 31.6914 12.2274 31.4873 11.9507C31.5737 11.8278 31.401 11.3359 31.4088 11.1899L31.2832 11.1284C31.2283 10.9747 31.1733 10.8902 31.0556 10.8056C31.0556 10.7544 31.0582 10.7031 31.0634 10.6519C31.0006 10.6519 30.9378 10.6519 30.9457 10.5674C30.9457 10.5161 30.9509 10.4649 30.9614 10.4137L30.8907 10.4905C30.7729 10.4137 30.718 10.2523 30.7337 10.0986C30.506 9.78346 30.4197 9.5529 30.09 9.09178C29.9644 9.16095 30.09 8.85353 29.933 8.9227C29.7524 8.53843 29.6425 8.43853 29.3756 8.20028C29.3756 8.14904 29.3808 8.09781 29.3913 8.04657C29.4018 7.99534 29.3547 7.99534 29.25 8.04657C29.1793 8.04657 29.1872 7.96972 29.195 7.89287C28.7868 7.64693 27.3345 7.44712 27.1069 7.05516C26.9813 7.05516 26.8557 6.97062 26.785 7.12433C26.7484 7.07309 26.7091 7.0193 26.6673 6.96294C26.3297 7.18581 26.0393 6.79386 25.7252 6.70164L25.6546 6.77849C25.5447 6.54793 25.3327 6.76312 25.2071 6.76312C25.1522 6.68627 25.0815 6.68626 25.0266 6.67858C24.689 6.8246 24.3907 6.65552 24.1002 7.03211L24.0453 6.95525L24.7675 8.27713C24.7518 8.3463 24.9559 9.16863 25.1443 9.58364C25.2071 9.59901 25.2935 9.74504 25.3406 9.82957C25.3301 9.88081 25.3196 9.92948 25.3092 9.9756C25.4034 10.1524 25.5054 10.3214 25.5996 10.4905C25.5368 10.4751 25.5211 10.5443 25.5054 10.6212C25.5839 10.8671 25.5761 11.1284 25.6546 11.3666C25.7566 11.4589 25.6389 11.505 25.7488 11.6203C25.7566 11.6356 25.686 11.774 25.6938 11.7817C25.6467 11.8969 25.7252 12.043 25.7252 12.043C25.7645 12.3043 25.7488 12.0968 25.9372 12.2889C25.7645 12.4887 26.055 12.8192 25.8822 13.019C25.9764 13.1112 25.9843 12.9806 26.0079 13.0574C25.9869 13.0933 25.966 13.1292 25.945 13.165C25.9136 13.2188 25.9764 13.2419 26.0314 13.2649C26.0942 13.4109 25.9843 13.5032 26.0628 13.6492C26.1256 13.6646 26.0628 13.849 26.1335 13.8567C26.1492 13.9874 26.3219 14.0335 26.157 14.1257C26.0942 14.1103 26.1256 14.3793 26.0628 14.5561C26.1021 14.6252 26.0628 14.9326 26.0471 14.9941C26.1099 15.0095 26.1492 14.9326 26.1256 14.9941C26.1099 15.0351 26.0968 15.0735 26.0864 15.1094C26.1492 15.1248 26.1413 15.2324 26.1178 15.2939C26.1178 15.486 25.9922 15.5782 25.9215 15.755C25.8508 16.1392 26.055 16.4543 25.788 16.5927C25.8822 16.6772 25.7723 16.7771 25.7409 16.8386C25.6467 16.8847 25.6781 17.0692 25.5918 17.1153C25.4897 17.3535 25.4426 17.3382 25.3484 17.5764C25.1836 17.6686 25.16 17.7685 25.003 17.8608C24.9873 17.9018 24.969 17.9402 24.9481 17.976C24.9245 18.0375 24.8696 18.0222 24.8146 18.0145C24.7126 18.1221 24.3436 18.2835 24.2965 18.3987L24.3279 18.4756C24.1081 18.5525 24.0453 18.5755 23.8019 18.7138C23.5586 18.8522 23.378 18.8522 23.1347 18.9828C22.9149 18.929 22.7264 19.0827 22.5066 19.0213C22.4203 19.0674 22.3418 19.1135 22.2554 19.1519C22.1455 19.1212 21.9807 19.2057 21.8943 19.1212C21.7844 19.0904 21.808 19.2902 21.6981 19.2595C21.6614 19.2493 21.6248 19.239 21.5882 19.2288L21.5646 19.1519C21.3998 19.2364 21.2663 19.1365 21.0936 19.2211L21.07 19.1519C20.9052 19.2364 20.7639 19.1442 20.6618 19.2518C20.5205 19.1596 20.2144 19.1519 19.9632 19.175C19.9867 19.1135 19.9318 19.1058 19.8768 19.0981L19.7983 19.1519C19.8219 19.0904 19.3194 19.1288 19.2723 19.1212L19.1546 19.0981L19.1232 19.0289L19.0368 19.0751C18.9505 18.9905 18.3539 18.9367 18.2126 18.783C18.1027 18.8906 17.9928 18.8445 17.8593 18.8138C17.3255 18.783 16.6818 18.5525 16.619 18.5371L16.5797 18.4602C16.3913 18.5524 16.093 18.4602 16.0066 18.3065C15.9438 18.2988 15.8575 18.2835 15.7947 18.2681C15.724 18.1144 15.308 18.1451 15.253 17.9914C15.253 17.9914 15.0411 17.8531 14.9547 17.7455C14.8213 17.83 14.4758 17.4227 14.413 17.3996L14.1854 17.3843L14.099 17.1383L13.7929 16.9155C13.6673 16.6849 13.5417 16.8617 13.5024 16.6695L13.5495 16.6849Z" fill="#231815"/>
<path d="M18.4167 7.8776C18.503 7.8776 18.5894 7.8776 18.6757 7.89297C19.0839 8.30798 19.8925 8.18502 20.4342 8.44632C20.6461 8.3003 20.8816 8.38484 21.0701 8.32335C21.1119 8.37971 21.1538 8.43351 21.1957 8.48475C21.6667 8.34641 21.9179 8.57697 22.3653 8.55392C22.4386 8.5078 22.5119 8.46169 22.5851 8.41558C22.6636 8.41558 22.75 8.43095 22.7265 8.5078L22.8364 8.43863L22.8992 8.52317L23.0091 8.45401C22.9855 8.53086 23.0719 8.53854 23.1504 8.54623C23.3702 8.41558 23.5036 8.59234 23.7548 8.39252C23.8098 8.48475 23.8961 8.49243 23.9746 8.5078C24.2258 8.30798 24.3122 8.51549 24.6184 8.42326L24.6733 8.51549L24.7832 8.46169L24.7283 8.36947C24.7597 8.29261 24.8382 8.30798 24.9245 8.33104C25.058 8.43863 25.1522 8.60771 25.3877 8.5078L25.4348 8.60003C25.5761 8.50012 24.4692 8.45401 26.2041 8.39252C26.2774 8.36178 26.3506 8.32848 26.4239 8.29261C26.471 8.38484 26.5495 8.40789 26.628 8.42326C26.8478 8.33104 27.0362 8.3003 27.256 8.20039C27.3345 8.21576 27.4601 8.33104 27.6015 8.21576L27.6486 8.30798C27.837 8.27724 28.1039 8.27724 28.2923 8.2465C28.2609 8.31567 28.1667 8.15428 28.2373 8.18502C28.5042 8.05437 28.7947 7.90066 29.0459 8.09279C29.3364 8.06205 29.4698 7.91603 29.7681 7.89297C29.8623 8.03131 30.1057 7.76232 30.247 7.83918C30.3883 7.90835 30.3961 7.71621 30.4825 7.85455L30.506 7.95446C30.5374 7.91347 30.5688 7.87248 30.6002 7.83149C30.7206 7.84174 30.8331 7.81868 30.9378 7.76232C31.0085 7.80075 31.0791 7.83918 31.1184 7.77769C31.2832 7.71621 31.4245 7.71621 31.6522 7.6701C31.6757 7.77001 31.8406 7.6163 31.7935 7.68547C31.9034 7.66241 32.0211 7.63936 32.1546 7.71621C32.1938 7.65473 32.2409 7.59325 32.3116 7.63167L32.3901 7.69316C32.4686 7.67778 32.4765 7.6701 32.5628 7.59325C33.4891 7.51639 34.0072 7.07064 34.9257 7.07064C35.0827 7.00147 35.2476 6.92462 35.4046 6.85545C35.5694 6.7786 35.7108 6.97842 35.7422 6.80934C35.6793 6.76323 35.9306 6.70174 35.9777 6.64795C36.2053 6.62489 36.3466 6.24062 36.433 6.11766C36.3702 6.07923 36.433 6.01775 36.4173 5.91015L36.5272 5.89478C36.5036 5.78719 36.4879 5.35681 36.5272 5.28764C36.5036 5.18773 36.3466 5.24921 36.3937 5.19542L36.3545 5.12625C36.2917 5.08014 36.378 4.97254 36.4173 4.91106C36.3702 4.70355 36.1818 4.9418 36.0876 4.78809L36.2524 4.54216C36.1739 4.39614 35.8364 4.30392 35.7029 4.21938C35.6087 4.34234 35.6165 4.29623 35.4674 4.37308L35.4124 4.2578C35.2554 4.34234 35.1612 4.23475 35.1141 4.29623C35.1769 4.33466 35.067 4.33466 35.0199 4.38845C34.9728 4.44994 34.9336 4.51142 34.8629 4.47299C34.8001 4.42688 34.7295 4.38845 34.6196 4.40382C34.5882 4.44481 34.5594 4.4858 34.5332 4.52679C34.0858 4.60364 33.0731 4.6267 32.971 4.48836C32.8925 4.50373 32.8192 4.52167 32.7512 4.54216C32.8219 4.58059 32.6963 4.65744 32.7355 4.59596C32.8062 4.63439 32.5314 4.55753 32.4922 4.6267C32.131 4.6267 31.346 4.70355 31.503 4.61133C31.3225 4.60364 30.9692 4.69587 30.8279 4.6267C30.7808 4.84958 30.5217 4.49605 30.4511 4.6267C30.561 4.59596 30.3098 4.58059 30.3883 4.61133V4.70355C30.1763 4.76504 30.1528 4.56522 29.933 4.64207C29.8623 4.61133 29.8231 4.58059 29.8623 4.51142C29.7838 4.48068 29.7367 4.44225 29.6975 4.51142L29.7367 4.60364C29.619 4.64207 29.4384 4.4192 29.2893 4.51911C29.2186 4.48836 29.1401 4.46531 29.0694 4.43457C28.8104 4.5729 28.5356 4.56522 28.2687 4.58827L28.2216 4.49605C28.3001 4.51142 28.096 4.63439 28.1196 4.56522C28.0672 4.55497 28.0149 4.54472 27.9626 4.53448C27.8291 4.65744 27.2717 4.65744 27.1147 4.61901C27.2717 4.64976 26.7929 4.35003 26.8243 4.50373C26.4318 4.65744 25.9686 4.42688 25.5525 4.42688C25.529 4.26549 25.3484 4.52679 25.215 4.42688C25.2385 4.35771 25.2699 4.28086 25.1914 4.27317C25.0815 4.32697 25.003 4.30392 24.901 4.3654C24.8225 4.3654 24.7361 4.34234 24.7675 4.27317C24.6812 4.26549 24.6027 4.2578 24.5791 4.32697C24.5006 4.3116 24.4143 4.30392 24.4457 4.23475C24.3358 4.29623 24.2337 4.37308 24.1316 4.44225C24.0531 4.44225 24.0688 4.35771 24.0924 4.28854C23.747 4.33466 23.5507 4.02724 23.1818 4.15021C23.1975 4.08104 23.1268 4.07335 23.0405 4.06567C22.7343 4.26549 22.3025 4.0503 22.0199 4.18863C21.9728 4.04261 21.7923 4.11178 21.6274 4.11178C21.5254 4.18095 21.4626 4.00419 21.3841 4.00419C21.0072 3.85048 20.6854 3.92733 20.2772 3.84279C20.4342 3.68909 19.1467 3.6814 18.6522 3.59686C18.346 3.43547 17.9614 3.58918 17.6395 3.50464C17.6238 3.58149 17.6002 3.66603 17.5139 3.65835C17.2784 3.57381 17.1371 3.81205 16.8623 3.88891C16.8231 4.04261 16.6504 4.11947 16.6975 4.2578C16.5797 4.41151 16.564 4.44225 16.4777 4.43457C16.407 4.74967 16.3521 4.71892 16.2657 5.03402C16.3521 5.03402 16.4384 5.03402 16.4149 5.11856C16.3521 5.35681 16.5012 5.44135 16.4384 5.67191C16.5248 5.67191 16.6111 5.67959 16.5876 5.75645C16.5483 5.91784 16.6111 5.99469 16.6739 6.07923C16.6504 6.15609 16.6347 6.23294 16.5483 6.23294L16.6111 6.31748L16.5012 6.38665C16.564 6.47118 16.5483 6.54804 16.5248 6.62489C16.5954 6.70175 16.8466 6.71712 16.721 6.87082C17.3176 7.21666 17.8122 7.63167 18.4324 7.90066L18.4167 7.8776Z" fill="#231815"/>
<path d="M99.282 26.2301C98.9916 26.2301 98.7953 26.207 98.5441 26.1609C98.6304 27.0216 98.6461 27.5519 98.6461 28.4358C98.6304 30.0189 98.7168 31.9172 98.4577 32.3553C98.3164 32.5705 98.1516 32.5858 97.9396 32.6781C97.971 32.7472 97.9867 32.7933 98.0103 32.8548C98.0338 32.9317 98.0495 32.9701 98.0652 33.047C98.128 33.0162 99.7844 32.9086 99.8551 31.3639C99.91 30.2264 99.8708 29.5655 99.8786 28.4358C99.8786 27.5673 99.9257 27.0293 99.9571 26.1609C99.6981 26.207 99.5489 26.2301 99.2899 26.2301H99.282Z" fill="#727171"/>
<path d="M102.775 27.7595C101.88 27.7595 100.789 28.1822 100.789 29.7654C100.789 30.8644 101.37 31.8481 102.76 31.8404C103.231 31.8404 103.615 31.7636 104.039 31.4715L104.212 31.0335L104.11 30.9643C103.827 31.2487 103.372 31.3332 103.144 31.3332C101.975 31.3332 101.975 29.9037 101.99 29.8269H104.353C104.416 29.5041 104.463 27.7595 102.783 27.7595H102.775ZM103.254 29.4196H102.006C102.006 29.4196 102.006 28.0977 102.673 28.0977C103.286 28.0977 103.254 29.4196 103.254 29.4196Z" fill="#727171"/>
<path d="M106.041 27.89C105.798 27.8823 105.656 27.89 105.421 27.8516C105.46 28.5432 105.468 28.9429 105.468 29.6346C105.468 30.8412 105.562 32.3168 105.327 32.7241C105.193 32.947 105.028 33.0238 104.809 33.1545L104.887 33.4311C105.256 33.4158 105.774 33.1698 106.088 32.9008C106.795 32.2783 106.575 31.187 106.575 29.5885C106.575 28.9198 106.606 28.5279 106.661 27.8516C106.426 27.8823 106.277 27.89 106.041 27.89Z" fill="#727171"/>
<path d="M106.049 25.7612C105.696 25.7612 105.413 26.0379 105.413 26.3914C105.413 26.6835 105.656 27.0216 106.041 27.0216C106.394 27.0216 106.693 26.745 106.693 26.3914C106.693 26.0379 106.402 25.7612 106.057 25.7612H106.049Z" fill="#727171"/>
<path d="M110.712 27.9055C110.484 27.9055 110.343 27.8901 110.123 27.8517C110.123 27.8517 110.178 29.1582 110.162 29.9498C110.147 30.4954 110.037 31.1487 109.425 31.141C108.781 31.1333 108.765 30.4801 108.765 29.9498C108.757 29.1121 108.836 27.8901 108.859 27.8517C108.632 27.8824 108.49 27.9055 108.271 27.9055C108.019 27.9055 107.862 27.8901 107.619 27.8517C107.619 27.8517 107.643 28.8354 107.643 29.4502C107.643 30.4878 107.344 31.8481 108.906 31.8481C109.566 31.8481 110.037 31.3639 110.162 31.1487L110.131 31.702C110.343 31.6713 110.476 31.6559 110.696 31.6559C110.916 31.6559 111.042 31.6559 111.261 31.702C111.238 31.0104 111.222 30.6722 111.222 29.9882C111.222 29.1582 111.246 28.6663 111.293 27.844C111.065 27.8824 110.94 27.8978 110.704 27.8978L110.712 27.9055Z" fill="#727171"/>
<path d="M116.969 28.4127C116.67 28.259 115.689 27.9439 115.697 27.2983C115.697 26.8449 116.05 26.5605 116.537 26.5221C116.937 26.499 117.455 26.768 117.565 27.2291H117.691L117.934 26.4222C117.502 26.0994 117.118 26.0379 116.568 26.0379C115.665 26.0302 114.723 26.6835 114.747 27.6441C114.771 28.528 115.014 28.9045 115.972 29.3657C116.505 29.6193 117.243 29.8729 117.228 30.5262C117.228 30.9796 116.882 31.3715 116.246 31.3408C115.697 31.3177 115.21 30.995 115.124 30.457H114.975C114.959 30.6491 114.935 30.7644 114.896 30.9565C114.849 31.164 114.81 31.2947 114.739 31.4945C115.194 31.7712 115.556 31.8173 116.082 31.8327C117.33 31.8634 118.232 31.1333 118.232 30.0804C118.232 29.2734 117.903 28.9122 116.961 28.4127H116.969Z" fill="#727171"/>
<path d="M121.278 27.7749C120.58 27.7749 120.305 28.0746 120.03 28.5742L120.093 27.8594C119.873 27.9132 119.732 27.9286 119.512 27.9286C119.292 27.9286 119.175 27.9056 118.97 27.8594C119.025 29.1352 119.033 29.8807 119.018 31.1565C119.002 32.2555 118.978 32.901 118.915 33.9924C119.143 33.9616 119.284 33.9462 119.512 33.9462C119.74 33.9462 119.897 33.9616 120.124 34.0077C120.124 33.6158 120.109 33.3852 120.109 32.9856C120.109 32.3554 120.109 31.9788 120.093 31.3486C120.391 31.7405 120.572 31.9711 121.247 31.9634C122.315 31.9634 122.872 31.0181 122.872 29.8423C122.872 28.5742 122.322 27.7826 121.294 27.7826L121.278 27.7749ZM120.792 31.4178C120.14 31.4254 120.069 30.5724 120.069 29.9345C120.069 29.2274 120.258 28.2821 120.854 28.2821C121.553 28.2821 121.632 29.189 121.632 29.873C121.632 30.557 121.467 31.4178 120.792 31.4178Z" fill="#727171"/>
<path d="M125.588 27.7595C124.701 27.7595 123.602 28.1822 123.602 29.7654C123.602 30.8644 124.183 31.8481 125.565 31.8404C126.043 31.8404 126.428 31.7636 126.836 31.4715L127.009 31.0335L126.907 30.9643C126.624 31.2487 126.169 31.3332 125.949 31.3332C124.772 31.3332 124.772 29.9037 124.787 29.8269H127.15C127.213 29.5041 127.268 27.7595 125.58 27.7595H125.588ZM126.067 29.4196H124.819C124.819 29.4196 124.827 28.0977 125.486 28.0977C126.098 28.0977 126.067 29.4196 126.067 29.4196Z" fill="#727171"/>
<path d="M130.204 28.1669C130.989 28.1669 131.021 28.8739 131.044 28.9661L131.248 28.9969L131.578 28.1438C131.107 27.8441 130.667 27.7749 130.165 27.7749C129.082 27.7749 127.967 28.3974 127.967 29.8115C127.967 30.9259 128.673 31.8251 130.063 31.8251C130.542 31.8251 130.84 31.7636 131.256 31.5177L131.444 31.0412L131.303 30.9413C131.021 31.2333 130.714 31.3179 130.306 31.3179C129.537 31.3179 129.223 30.6031 129.223 29.7424C129.223 29.0276 129.513 28.1745 130.212 28.1745L130.204 28.1669Z" fill="#727171"/>
<path d="M133.957 27.8516C133.713 27.8823 133.572 27.89 133.329 27.89C133.085 27.89 132.944 27.89 132.7 27.8516C132.732 28.5432 132.74 28.9352 132.74 29.6269C132.74 30.4492 132.708 30.895 132.653 31.7096C132.881 31.6789 133.03 31.6481 133.274 31.6481C133.517 31.6481 133.666 31.6712 133.909 31.7096C133.854 30.8719 133.839 30.4262 133.854 29.5885C133.862 28.9198 133.894 28.5279 133.949 27.8516H133.957Z" fill="#727171"/>
<path d="M133.321 25.7074C132.967 25.7074 132.669 25.9918 132.669 26.3376C132.669 26.6527 132.92 26.9908 133.313 26.9908C133.674 26.9985 133.98 26.7065 133.98 26.353C133.98 25.9994 133.682 25.6997 133.321 25.6997V25.7074Z" fill="#727171"/>
<path d="M138.353 31.3485C138.243 31.2793 138.211 31.141 138.211 30.9949V28.8891C138.211 28.1667 137.599 27.7517 136.696 27.7517C136.429 27.7517 135.613 27.8439 135.189 28.2897L135.291 28.7739H135.362C135.527 28.4741 136.1 28.3204 136.359 28.3127C136.736 28.3127 137.128 28.6125 137.112 28.9967C137.112 29.5193 136.531 29.4502 136.107 29.5731C135.864 29.65 134.906 29.8268 134.906 30.7106C134.906 31.3177 135.275 31.8019 136.037 31.8019C136.461 31.8019 136.893 31.6098 137.128 31.2024C137.269 31.5483 137.528 31.8019 137.921 31.8019C137.968 31.8019 138.455 31.7711 138.69 31.5713V31.3715C138.565 31.4176 138.415 31.3715 138.353 31.3331V31.3485ZM137.12 30.5261C137.12 30.9027 136.908 31.287 136.508 31.287C136.084 31.287 136.06 30.9411 136.053 30.6491C136.045 30.334 136.155 30.0343 136.414 29.919C136.681 29.796 137.089 29.6346 137.12 29.6346V30.5261Z" fill="#727171"/>
<path d="M140.951 25.5615C140.716 25.6 140.574 25.623 140.331 25.623C140.088 25.623 139.954 25.6076 139.719 25.5615C139.774 26.8219 139.789 27.6135 139.781 28.8816C139.781 30.0037 139.758 30.5954 139.703 31.7098C139.931 31.6637 140.08 31.6483 140.315 31.6483C140.566 31.6483 140.723 31.6483 140.967 31.7098C140.943 30.5801 140.92 29.9806 140.904 28.8509C140.88 27.5905 140.935 26.8142 140.959 25.5615H140.951Z" fill="#727171"/>
<path d="M146.854 28.4127C146.556 28.259 145.575 27.9439 145.583 27.2983C145.583 26.8449 145.936 26.5605 146.423 26.5221C146.823 26.499 147.341 26.768 147.451 27.2291H147.585L147.828 26.4222C147.396 26.0994 147.011 26.0379 146.462 26.0379C145.559 26.0302 144.617 26.6835 144.641 27.6441C144.664 28.528 144.908 28.9045 145.858 29.3657C146.391 29.6193 147.129 29.8729 147.114 30.5262C147.114 30.9796 146.776 31.3715 146.132 31.3408C145.583 31.3177 145.096 30.995 145.01 30.457H144.861C144.853 30.6491 144.829 30.7644 144.782 30.9565C144.735 31.164 144.696 31.2947 144.633 31.4945C145.088 31.7712 145.441 31.8173 145.975 31.8327C147.223 31.8634 148.126 31.1333 148.126 30.0804C148.126 29.2734 147.804 28.9122 146.854 28.4127Z" fill="#727171"/>
<path d="M150.842 27.7595C149.947 27.7595 148.864 28.1822 148.864 29.7654C148.864 30.8644 149.445 31.8481 150.835 31.8404C151.306 31.8404 151.69 31.7636 152.106 31.4715L152.279 31.0335L152.177 30.9643C151.894 31.2487 151.431 31.3332 151.219 31.3332C150.042 31.3332 150.042 29.9037 150.057 29.8269H152.42C152.483 29.5041 152.538 27.7595 150.85 27.7595H150.842ZM151.329 29.4196H150.081C150.081 29.4196 150.081 28.0977 150.748 28.0977C151.361 28.0977 151.329 29.4196 151.329 29.4196Z" fill="#727171"/>
<path d="M154.728 25.5615C154.493 25.6 154.351 25.623 154.108 25.623C153.865 25.623 153.731 25.6076 153.496 25.5615C153.551 26.8219 153.566 27.6135 153.559 28.8816C153.559 30.0037 153.535 30.5954 153.48 31.7098C153.708 31.6637 153.857 31.6483 154.092 31.6483C154.344 31.6483 154.501 31.6483 154.744 31.7098C154.72 30.5801 154.697 29.9806 154.681 28.8509C154.658 27.5905 154.713 26.8142 154.736 25.5615H154.728Z" fill="#727171"/>
<path d="M156.267 27.9131H155.678C155.702 27.99 155.694 28.0361 155.694 28.1053C155.694 28.1898 155.678 28.2513 155.655 28.3204H156.267C156.251 28.9276 156.251 29.2811 156.228 29.8883C156.196 30.8105 156.173 30.9796 156.149 31.7097C156.369 31.6789 156.518 31.6636 156.746 31.6713C156.989 31.6713 157.146 31.6636 157.39 31.7097C157.39 31.0795 157.358 30.5492 157.358 29.9267C157.358 29.2273 157.39 29.0582 157.39 28.3589H158.182C158.159 28.282 158.159 28.2359 158.159 28.1437C158.159 28.0668 158.167 28.013 158.198 27.9362H157.358L157.107 27.0908C156.981 26.6681 157.24 26.5067 157.547 26.5221C157.829 26.5374 158.151 26.6297 158.269 26.768L158.394 26.6988C158.394 26.5067 158.394 26.3837 158.394 26.1839C158.394 25.9995 158.426 25.8688 158.441 25.6844C158.292 25.6536 158.19 25.6536 158.049 25.6383C156.612 25.5691 156.251 27.8516 156.267 27.9054V27.9131Z" fill="#727171"/>
<path d="M161.605 28.7123C161.44 28.7123 160.789 28.7508 160.271 28.7508C159.721 28.7508 159.219 28.6816 158.865 28.7047C158.889 28.843 158.905 28.989 158.905 29.1658C158.905 29.3656 158.873 29.65 158.873 29.6653C159.368 29.6269 159.658 29.6115 160.153 29.6115C160.71 29.6115 161.04 29.6269 161.597 29.673C161.574 29.5962 161.519 29.3733 161.519 29.1812C161.519 28.9967 161.542 28.8584 161.589 28.7123H161.605Z" fill="#727171"/>
<path d="M167.249 29.3118C166.982 29.3118 166.825 29.3042 166.574 29.258C166.621 29.6731 166.629 29.9267 166.629 30.3417C166.629 30.6798 166.629 30.8797 166.606 31.2178C166.268 31.3561 166.04 31.3869 165.671 31.3869C165.491 31.3869 163.717 31.3024 163.709 29.0736C163.709 27.9592 164.337 26.6066 165.789 26.6066C166.449 26.6066 166.967 26.8525 167.399 27.3905L167.508 27.4136L167.72 26.5989C167.069 26.207 166.425 26.0994 165.797 26.0994C163.96 26.0994 162.367 26.9909 162.367 29.1966C162.367 30.8105 163.835 31.848 165.891 31.848C166.99 31.848 167.775 31.4945 167.791 31.4868C167.752 31.0564 167.752 30.8105 167.752 30.3801C167.76 29.942 167.783 29.6807 167.83 29.2427C167.603 29.2965 167.461 29.3118 167.234 29.3195L167.249 29.3118Z" fill="#727171"/>
<path d="M170.633 27.7133C169.416 27.7133 168.607 28.6739 168.607 29.7806C168.6 31.0564 169.33 31.8019 170.609 31.7942C171.967 31.7942 172.65 30.9257 172.65 29.673C172.65 28.4895 171.912 27.7056 170.633 27.7056V27.7133ZM170.594 31.4637C170.021 31.4637 169.84 30.7259 169.84 29.7576C169.84 29.0351 169.997 28.0668 170.649 28.0668C171.3 28.0668 171.449 29.0274 171.449 29.6961C171.449 30.626 171.237 31.456 170.594 31.456V31.4637Z" fill="#727171"/>
<path d="M175.908 27.8517C175.908 27.8517 175.657 28.6279 175.484 29.1121C175.264 29.7423 174.888 30.726 174.888 30.726C174.888 30.726 174.574 29.896 174.409 29.358C174.228 28.7739 173.977 27.844 173.977 27.844C173.749 27.8901 173.608 27.9055 173.373 27.9132C173.114 27.9132 172.957 27.8978 172.705 27.844C173.019 28.6125 173.192 29.0736 173.475 29.8576C173.742 30.5877 173.883 30.9566 174.134 31.7097C174.307 31.679 174.425 31.6636 174.597 31.6636C174.746 31.6636 174.848 31.6867 174.998 31.7097C175.296 30.9412 175.469 30.5108 175.767 29.7423C176.05 29.0199 176.222 28.5818 176.497 27.8517C176.395 27.8824 176.332 27.8978 176.23 27.8978C176.112 27.8978 176.026 27.8901 175.908 27.8517Z" fill="#727171"/>
<path d="M178.569 27.7595C177.682 27.7595 176.583 28.1822 176.583 29.7654C176.583 30.8644 177.164 31.8481 178.554 31.8404C179.025 31.8404 179.409 31.7636 179.833 31.4715L180.006 31.0335L179.904 30.9643C179.621 31.2487 179.166 31.3332 178.946 31.3332C177.777 31.3332 177.777 29.9037 177.784 29.8269H180.147C180.21 29.5041 180.265 27.7595 178.577 27.7595H178.569ZM179.048 29.4196H177.8C177.8 29.4196 177.8 28.0977 178.467 28.0977C179.08 28.0977 179.048 29.4196 179.048 29.4196Z" fill="#727171"/>
<path d="M182.989 27.7824C182.408 28.0207 182.126 28.6278 182.118 28.8199L182.133 27.8516C181.945 27.89 181.819 27.9131 181.631 27.9131C181.403 27.9131 181.254 27.8977 181.042 27.8516C181.082 28.551 181.082 28.9045 181.082 29.6039C181.082 30.4185 181.066 30.895 181.011 31.7096C181.239 31.6789 181.372 31.6712 181.6 31.6712C181.827 31.6712 181.969 31.6712 182.196 31.7096C182.196 31.6482 182.133 30.8028 182.157 30.2187C182.181 29.65 182.071 29.0966 182.683 28.8584C182.942 28.7585 183.154 28.8046 183.397 28.9352L183.476 28.8584C183.444 28.6432 183.437 28.5202 183.444 28.2973C183.444 28.0745 183.468 27.9592 183.507 27.7517C183.484 27.7517 183.17 27.7209 182.997 27.7901L182.989 27.7824Z" fill="#727171"/>
<path d="M186.514 27.7441C185.854 27.7441 185.383 28.2283 185.266 28.4435L185.289 27.8517C185.077 27.8902 184.936 27.9055 184.724 27.9055C184.512 27.9055 184.371 27.8902 184.159 27.8517C184.19 28.5434 184.198 28.9123 184.198 29.604C184.19 30.434 184.175 30.8798 184.127 31.7098C184.355 31.6714 184.489 31.6637 184.716 31.6637C184.944 31.6637 185.077 31.6714 185.305 31.7098C185.305 31.7021 185.242 30.434 185.266 29.6424C185.266 29.1044 185.383 28.4435 185.996 28.4589C186.632 28.4666 186.647 29.1198 186.655 29.6424C186.655 30.4878 186.577 31.6637 186.561 31.7098C186.789 31.679 186.922 31.656 187.15 31.656C187.393 31.656 187.542 31.6714 187.786 31.7098C187.786 31.7098 187.754 30.6338 187.754 29.9806C187.754 28.9892 187.935 27.7441 186.49 27.7441H186.514Z" fill="#727171"/>
<path d="M190.227 27.8516C189.984 27.8823 189.85 27.89 189.599 27.89C189.348 27.89 189.207 27.89 188.963 27.8516C188.995 28.5432 189.002 28.9352 189.002 29.6269C188.995 30.4492 188.971 30.895 188.916 31.7096C189.152 31.6789 189.293 31.6481 189.544 31.6481C189.795 31.6481 189.929 31.6712 190.172 31.7096C190.117 30.8719 190.101 30.4262 190.117 29.5885C190.133 28.9198 190.156 28.5279 190.219 27.8516H190.227Z" fill="#727171"/>
<path d="M189.591 25.7074C189.238 25.7074 188.94 25.9918 188.94 26.3376C188.94 26.6527 189.183 26.9908 189.583 26.9908C189.944 26.9985 190.251 26.7065 190.251 26.353C190.251 25.9994 189.952 25.6997 189.591 25.6997V25.7074Z" fill="#727171"/>
<path d="M193.524 27.7441C192.865 27.7441 192.394 28.2283 192.276 28.4435L192.3 27.8517C192.08 27.8902 191.954 27.9055 191.734 27.9055C191.515 27.9055 191.381 27.8902 191.169 27.8517C191.201 28.5434 191.208 28.9123 191.208 29.604C191.208 30.434 191.185 30.8798 191.138 31.7098C191.358 31.6714 191.499 31.6637 191.726 31.6637C191.954 31.6637 192.088 31.6714 192.323 31.7098C192.315 31.7021 192.26 30.434 192.284 29.6424C192.284 29.1044 192.394 28.4435 193.022 28.4589C193.658 28.4666 193.673 29.1198 193.681 29.6424C193.681 30.4878 193.611 31.6637 193.587 31.7098C193.807 31.679 193.948 31.656 194.176 31.656C194.419 31.656 194.568 31.6714 194.819 31.7098C194.819 31.7098 194.788 30.6338 194.788 29.9806C194.788 28.9892 194.969 27.7441 193.524 27.7441Z" fill="#727171"/>
<path d="M199.326 27.8287C198.957 27.8441 198.729 27.8441 198.36 27.8441C197.732 27.8441 197.732 27.7749 197.316 27.7749C196.601 27.7749 195.604 27.9824 195.589 29.066C195.581 30.1189 196.578 30.3034 196.609 30.3188V30.3956C196.609 30.3956 195.832 30.5954 195.832 31.1565C195.832 31.4869 196.052 31.7405 196.382 31.8328C195.856 31.9404 195.463 32.3169 195.463 32.8395C195.463 33.6849 196.421 33.8924 197.214 33.8924C198.383 33.8924 199.31 33.1085 199.31 32.2017C199.31 31.8174 199.137 31.4792 198.776 31.2794C198.211 30.9643 196.688 31.387 196.727 30.6877C196.758 30.0882 197.465 30.6339 198.242 30.2265C198.666 30.0037 198.957 29.6194 198.957 29.1045C198.957 28.7048 198.815 28.4282 198.493 28.1822L199.263 28.2207L199.31 27.8441L199.326 27.8287ZM197.316 31.8866C197.818 31.8866 198.36 32.0095 198.36 32.6167C198.36 33.2238 197.912 33.5697 197.237 33.5697C196.672 33.5697 196.225 33.1546 196.225 32.6244C196.225 31.8558 196.806 31.8789 197.316 31.8866ZM197.284 30.0959C196.845 30.0959 196.727 29.5502 196.727 29.1122C196.727 28.6741 196.861 28.09 197.316 28.09C197.771 28.09 197.826 28.6818 197.826 29.1198C197.826 29.5579 197.732 30.0959 197.284 30.0959Z" fill="#727171"/>
<path d="M204.632 26.1456C203.47 26.2225 203.023 26.1533 202.984 26.161C203.031 27.2369 203.007 27.821 203.039 28.9047C203.062 30.0113 203.015 30.6031 202.952 31.7098C203.219 31.7021 203.376 31.6944 203.643 31.6944C203.91 31.6944 204.067 31.6944 204.334 31.7098C204.31 31.1334 204.295 30.849 204.271 30.2803C204.255 29.9114 204.248 29.6809 204.24 29.312C204.365 29.3811 206.885 29.5733 206.885 27.5443C206.885 26.5683 206.194 26.0457 204.624 26.1533L204.632 26.1456ZM204.255 28.8662L204.279 26.576C205.417 26.576 205.551 27.0755 205.551 27.6366C205.551 28.5434 204.946 28.8585 204.263 28.8585L204.255 28.8662Z" fill="#727171"/>
<path d="M209.523 27.7824C208.942 28.0207 208.659 28.6278 208.652 28.8199L208.667 27.8516C208.471 27.89 208.353 27.9131 208.165 27.9131C207.937 27.9131 207.788 27.8977 207.568 27.8516C207.607 28.551 207.607 28.9045 207.607 29.6039C207.607 30.4185 207.592 30.895 207.537 31.7096C207.764 31.6789 207.898 31.6712 208.126 31.6712C208.353 31.6712 208.502 31.6712 208.722 31.7096C208.722 31.6482 208.659 30.8028 208.683 30.2187C208.707 29.65 208.597 29.0966 209.209 28.8584C209.468 28.7585 209.68 28.8046 209.923 28.9352L210.002 28.8584C209.97 28.6432 209.963 28.5202 209.97 28.2973C209.97 28.0745 209.994 27.9592 210.033 27.7517C210.01 27.7517 209.696 27.7209 209.523 27.7901V27.7824Z" fill="#727171"/>
<path d="M212.506 27.7133C211.289 27.7133 210.481 28.6739 210.481 29.7806C210.481 31.0564 211.203 31.8019 212.483 31.7942C213.841 31.7942 214.531 30.9257 214.531 29.673C214.531 28.4895 213.793 27.7056 212.514 27.7056L212.506 27.7133ZM212.475 31.4637C211.902 31.4637 211.721 30.7259 211.721 29.7576C211.721 29.0351 211.87 28.0668 212.53 28.0668C213.189 28.0668 213.33 29.0274 213.33 29.6961C213.33 30.626 213.111 31.456 212.475 31.456V31.4637Z" fill="#727171"/>
<path d="M217.781 27.8517C217.781 27.8517 217.53 28.6279 217.357 29.1121C217.138 29.7423 216.761 30.726 216.761 30.726C216.761 30.726 216.447 29.896 216.282 29.358C216.094 28.7739 215.842 27.844 215.842 27.844C215.623 27.8901 215.481 27.9055 215.238 27.9132C214.987 27.9132 214.83 27.8978 214.571 27.844C214.877 28.6125 215.057 29.0736 215.34 29.8576C215.599 30.5877 215.748 30.9566 215.992 31.7097C216.164 31.679 216.282 31.6636 216.455 31.6636C216.604 31.6636 216.706 31.6867 216.855 31.7097C217.153 30.9412 217.326 30.5108 217.624 29.7423C217.907 29.0199 218.08 28.5818 218.354 27.8517C218.26 27.8824 218.197 27.8978 218.088 27.8978C217.97 27.8978 217.883 27.8901 217.774 27.8517H217.781Z" fill="#727171"/>
<path d="M220.474 27.8516C220.231 27.8823 220.097 27.89 219.846 27.89C219.595 27.89 219.454 27.89 219.218 27.8516C219.249 28.5432 219.257 28.9352 219.257 29.6269C219.249 30.4492 219.226 30.895 219.179 31.7096C219.414 31.6789 219.556 31.6481 219.799 31.6481C220.042 31.6481 220.184 31.6712 220.427 31.7096C220.372 30.8719 220.356 30.4262 220.372 29.5885C220.388 28.9198 220.411 28.5279 220.474 27.8516Z" fill="#727171"/>
<path d="M219.838 25.7074C219.477 25.7074 219.187 25.9918 219.187 26.3376C219.187 26.6527 219.438 26.9908 219.83 26.9908C220.191 26.9985 220.498 26.7065 220.498 26.353C220.498 25.9994 220.199 25.6997 219.838 25.6997V25.7074Z" fill="#727171"/>
<path d="M223.771 27.7441C223.112 27.7441 222.641 28.2283 222.523 28.4435L222.547 27.8517C222.335 27.8902 222.193 27.9055 221.981 27.9055C221.769 27.9055 221.628 27.8902 221.416 27.8517C221.447 28.5434 221.455 28.9123 221.455 29.604C221.455 30.434 221.432 30.8798 221.385 31.7098C221.612 31.6714 221.746 31.6637 221.973 31.6637C222.201 31.6637 222.335 31.6714 222.562 31.7098C222.562 31.7021 222.499 30.434 222.523 29.6424C222.531 29.1044 222.641 28.4435 223.261 28.4589C223.897 28.4666 223.912 29.1198 223.92 29.6424C223.92 30.4878 223.842 31.6637 223.834 31.7098C224.054 31.679 224.195 31.656 224.423 31.656C224.666 31.656 224.815 31.6714 225.066 31.7098C225.066 31.7098 225.035 30.6338 225.035 29.9806C225.035 28.9892 225.216 27.7441 223.771 27.7441Z" fill="#727171"/>
<path d="M228.12 28.1669C228.905 28.1669 228.937 28.8739 228.96 28.9661L229.156 28.9969L229.486 28.1438C229.015 27.8441 228.576 27.7749 228.073 27.7749C226.99 27.7749 225.875 28.3974 225.875 29.8115C225.875 30.9259 226.589 31.8251 227.971 31.8251C228.45 31.8251 228.748 31.7636 229.164 31.5177L229.353 31.0412L229.211 30.9413C228.929 31.2333 228.623 31.3179 228.214 31.3179C227.445 31.3179 227.131 30.6031 227.131 29.7424C227.131 29.0276 227.422 28.1745 228.12 28.1745V28.1669Z" fill="#727171"/>
<path d="M232.234 27.7595C231.347 27.7595 230.248 28.1822 230.248 29.7654C230.248 30.8644 230.828 31.8481 232.21 31.8404C232.681 31.8404 233.066 31.7636 233.49 31.4715L233.662 31.0335L233.56 30.9643C233.27 31.2487 232.815 31.3332 232.595 31.3332C231.417 31.3332 231.417 29.9037 231.433 29.8269H233.796C233.859 29.5041 233.914 27.7595 232.226 27.7595H232.234ZM232.713 29.4196H231.464C231.464 29.4196 231.464 28.0977 232.132 28.0977C232.744 28.0977 232.713 29.4196 232.713 29.4196Z" fill="#727171"/>
<path d="M99.2271 16.6156C99.2271 16.6156 100.797 14.8941 103.152 12.0659C103.882 12.942 105.46 14.9018 106.151 16.3313L106.229 16.508L107.839 14.1486L107.776 14.0871C107.674 13.9949 105.389 11.8353 104.031 10.9592C104.173 10.7824 107.501 6.56317 107.501 6.56317L105.994 4.43433C105.994 4.43433 104.471 4.72637 103.859 4.72637C102.987 4.72637 98.5912 4.58035 98.5912 4.58035L98.9601 6.45557C98.9601 6.45557 103.356 6.20196 104.236 6.14047C102.76 8.89952 97.8611 16.0853 97.8611 16.0853L99.2114 16.6079L99.2271 16.6156Z" fill="#727171"/>
<path d="M108.773 9.58351C107.517 9.52203 106.025 9.41444 106.025 9.41444L106.167 11.4972C106.167 11.4972 108.592 11.0745 108.82 11.036C108.961 14.1947 108.985 20.343 108.985 20.343L110.877 19.4284V19.3593C110.908 18.7829 111.466 3.51977 111.466 3.51977L108.467 2.95874C108.467 2.95874 108.632 5.2336 108.773 9.5912V9.58351Z" fill="#727171"/>
<path d="M115.438 2.58993L112.196 2.34399C112.196 2.34399 112.745 18.122 112.761 21.3191L114.747 20.2662L115.438 2.58993Z" fill="#727171"/>
<path d="M212.71 20.2738L213.401 2.59749L210.041 2.35156C210.041 2.35156 210.591 18.1296 210.606 21.3267L212.71 20.2738Z" fill="#727171"/>
<path d="M192.825 11.0284C193.885 11.2206 195.966 11.5126 195.966 11.5126C196.036 10.867 196.123 9.5298 196.123 9.5298C196.123 9.5298 193.909 9.68351 192.873 9.76804L193.155 2.58993L189.787 2.34399C189.787 2.34399 190.337 18.122 190.353 21.3191L192.457 20.2662L192.818 11.0284H192.825Z" fill="#727171"/>
<path d="M120.964 11.1437C120.964 11.1437 125.627 9.07638 127.731 7.93895C129.576 8.97647 132.755 10.7672 133.8 11.3205L133.894 11.3743L135.024 9.17629C135.024 9.17629 129.804 7.22421 129.38 7.07051C129.725 6.89374 133.635 4.91861 133.635 4.91861L131.547 3.11255C129.804 3.84266 120.643 3.35848 120.643 3.35848L120.807 4.89555C120.807 4.89555 127.378 4.93398 127.904 4.93398C125.141 7.3856 119.394 10.4444 119.394 10.4444L120.964 11.1437Z" fill="#727171"/>
<path d="M126.059 21.3269L128.72 20.1357C128.72 20.1357 129.089 15.2248 129.089 13.6877C129.301 13.6877 136.429 13.6646 136.429 13.6646L136.602 12.1353C126.719 12.5426 117.989 12.1967 117.989 12.1967L118.578 13.8491C118.578 13.8491 121.435 13.7415 125.541 13.7108C125.949 17.9531 126.028 19.1674 126.051 21.3346L126.059 21.3269Z" fill="#727171"/>
<path d="M231.676 12.2042L231.637 10.4904C231.637 10.4904 224.046 10.867 221.62 10.7517C221.573 10.3674 221.424 5.57943 221.447 5.00303C226.362 4.81859 231.315 5.06452 231.315 5.06452L231.48 3.31226L218.315 3.38142L218.582 12.258L231.676 12.2042Z" fill="#727171"/>
<path d="M226.479 17.7223L226.684 13.2341L223.284 12.9805C223.284 12.9805 223.52 16.6387 223.638 17.7377C220.631 17.7377 215.528 17.5609 215.528 17.5609L215.717 19.3747C215.717 19.3747 225.797 19.1518 233.898 19.2748L234.008 17.5456C234.008 17.5456 230.672 17.6762 226.487 17.7223H226.479Z" fill="#727171"/>
<path d="M167.901 11.6126L168.356 3.42769L165.546 3.17407L165.632 6.21747C164.698 6.2559 162.728 6.23284 162.037 6.22516L161.966 3.67362L159.077 3.42769L159.878 11.6126C159.878 11.6126 164.769 11.4589 167.901 11.6126ZM165.679 7.70843L165.75 10.1754L162.162 10.2215L162.084 7.67769C163.261 7.66232 164.957 7.69306 165.679 7.70843Z" fill="#727171"/>
<path d="M172.046 12.9728L174.048 12.1582C174.142 11.3743 174.77 5.52573 174.95 2.58993L171.708 2.34399C171.748 3.36615 171.787 4.3345 171.818 5.34897C170.978 5.19526 169.597 4.94164 169.243 4.92627L169.322 6.8553L171.857 6.64011C171.873 7.23956 171.897 7.86976 171.912 8.54607C171.033 8.50765 169.761 8.59219 169.157 8.50765L169.118 10.1754L171.952 9.86795C171.975 10.7979 172.007 11.82 172.038 12.9728H172.046Z" fill="#727171"/>
<path d="M171.049 15.1632L170.939 16.5312C169.212 16.5081 164.651 16.4082 162.649 16.316L163.536 20.6505C167.234 20.589 174.291 20.589 174.291 20.589L174.448 18.929C172.486 19.2287 168.505 19.221 166.127 19.2057L165.907 17.7531C169.126 17.83 173.522 17.6609 173.522 17.6609L173.985 13.6184C171.277 13.8336 162.359 13.6568 162.359 13.6568L162.728 15.24C164.172 15.2246 169.832 15.1785 171.033 15.1708L171.049 15.1632Z" fill="#727171"/>
<path d="M188.319 6.57102L186.506 4.50366C185.854 4.61126 184.975 4.80339 184.08 4.78033C181.992 4.72654 179.7 4.65737 178.365 4.5882L178.797 6.57102C182.126 6.43269 184.661 6.20981 184.661 6.20981C183.743 7.79299 179.841 12.9038 177.408 16.0086L178.687 16.5927C179.676 15.7089 181.348 13.9797 183.06 12.1583C183.9 12.9729 185.556 14.6406 187.001 16.4621L188.319 13.8875C187.15 13.0037 185.25 11.8124 184.072 11.0823C185.807 9.23015 187.456 7.44715 188.312 6.55565L188.319 6.57102Z" fill="#727171"/>
<path d="M206.249 4.65734L206.312 3.28935C204.412 3.28935 200.299 3.01268 199.255 2.98193L199.522 4.78799C199.522 4.78799 204.201 4.74956 206.242 4.65734H206.249Z" fill="#727171"/>
<path d="M206.642 16.8002L208.024 14.3332C206.72 13.4417 204.97 12.3657 203.965 11.7586C206.092 9.69121 207.867 7.90821 207.867 7.90821L206.053 6.06372C205.488 6.20974 204.365 6.33271 203.447 6.30965C201.296 6.25585 199.467 6.16363 197.975 6.15595L198.415 8.16951C200.432 8.03117 203.996 7.68533 203.996 7.68533C202.842 9.49907 199.592 13.4493 197.19 16.2084L198.548 16.8002C199.694 15.8318 201.249 14.3793 202.764 12.9267C204.946 14.8711 206.634 16.8155 206.634 16.8155L206.642 16.8002Z" fill="#727171"/>
<path d="M154.304 10.0064L154.234 8.38479C152.687 8.58461 146.517 8.59998 144.382 8.49238L144.397 7.13207C147.38 7.13976 150.623 7.18587 154.139 7.33958V5.76408C151.219 5.88705 148.699 5.98696 144.405 5.84862L144.421 4.68045C146.98 4.74962 151.243 4.80341 154.218 4.7035L154.257 3.16643C148.472 3.29708 143 3.32014 141.289 3.05884L141.634 9.90649C143.345 9.96797 149.107 9.86806 154.296 10.0064H154.304Z" fill="#727171"/>
<path d="M151.408 16.4543C151.408 16.4543 151.635 20.2663 151.604 21.3422L154.022 20.1971L154.642 14.948C154.642 14.948 143.856 15.0325 141.139 14.9787L141.406 16.4851C146.54 16.3314 151.408 16.4466 151.408 16.4466V16.4543Z" fill="#727171"/>
<path d="M156.942 13.1649L157.115 11.6355C147.223 12.0428 138.737 11.697 138.737 11.697L139.334 13.3493C148.448 13.0035 156.942 13.1726 156.942 13.1726V13.1649Z" fill="#727171"/>
</g>
<defs>
<clipPath id="clip0_19_647">
<rect width="234" height="34" fill="white"/>
</clipPath>
</defs>
</svg>
