<svg width="170" height="50" viewBox="0 0 170 50" fill="none" xmlns="http://www.w3.org/2000/svg">
<g clip-path="url(#clip0_21_22)">
<path d="M38.5585 23.8607C34.2227 20.9064 28.6633 22.1113 25.7476 26.5527C23.3103 30.2632 19.6342 30.7219 18.2091 30.7219C13.5712 30.7219 10.3937 27.4551 9.45203 24.0724C9.44196 24.0371 9.43693 24.0119 9.42685 23.9766C9.41678 23.9363 9.40671 23.901 9.39664 23.8607C9.02903 22.4491 8.93335 21.7735 8.93335 20.2763C8.93335 12.19 17.2221 3.18613 29.1568 3.18613C41.0914 3.18613 48.3731 12.5025 50.1758 17.68C50.1456 17.5892 50.1154 17.4985 50.0852 17.4027C46.6206 7.27969 37.0276 0 25.7375 0C11.5267 0 0 11.5346 0 25.7663C0 38.4856 9.165 49.3749 21.8751 49.3749C32.012 49.3749 38.8253 43.6832 41.9525 35.8389C43.6697 31.5487 42.4511 26.5074 38.5585 23.8607Z" fill="#003763"/>
<path d="M50.342 18.1841C48.8414 13.1327 41.7914 3.19116 29.1618 3.19116C17.2221 3.19116 8.93839 12.195 8.93839 20.2813C8.93839 21.7786 9.02903 22.4541 9.40167 23.8657C9.24556 23.2507 9.16499 22.6306 9.16499 22.0256C9.16499 13.6066 17.5897 7.7687 26.2461 7.7687C37.9693 7.7687 47.4666 17.2817 47.4666 29.0129C47.4666 38.2133 42.1791 46.1686 34.4946 49.9949C44.3948 46.4106 51.47 36.9177 51.47 25.7663C51.47 23.1297 51.1175 20.8006 50.337 18.1841H50.342Z" fill="#E4022D"/>
<path d="M75.9637 18.2597V20.4527H64.6434V18.2597H68.9792V15.8349H71.7236V18.2597H75.9688H75.9637ZM75.5961 26.5477C75.5961 27.2081 75.4551 27.8383 75.1832 28.4382C74.9062 29.0381 74.5285 29.5624 74.0552 30.0061C73.5768 30.4396 73.0279 30.7824 72.4035 31.0446C71.779 31.3067 71.1143 31.4378 70.4093 31.4378C69.7043 31.4378 69.0346 31.3067 68.4152 31.0446C67.7908 30.7824 67.2519 30.4396 66.7887 30.0061C66.3103 29.5624 65.9326 29.0381 65.6606 28.4382C65.3837 27.8383 65.2477 27.2081 65.2477 26.5477C65.2477 25.8873 65.3837 25.2571 65.6606 24.6572C65.9376 24.0573 66.3153 23.5431 66.7887 23.1095C67.2519 22.6659 67.7908 22.3079 68.4152 22.0458C69.0396 21.7836 69.7043 21.6526 70.4093 21.6526C71.1143 21.6526 71.779 21.7836 72.4035 22.0458C73.0279 22.3079 73.5768 22.6608 74.0552 23.1095C74.5285 23.5431 74.9062 24.0573 75.1832 24.6572C75.4601 25.2571 75.5961 25.8873 75.5961 26.5477ZM73.1488 26.5477C73.1488 25.7915 72.8869 25.1462 72.3632 24.6068C71.8395 24.0674 71.1949 23.8002 70.4244 23.8002C69.654 23.8002 69.0295 24.0724 68.4958 24.6068C67.967 25.1462 67.7001 25.7915 67.7001 26.5477C67.7001 27.3039 67.967 27.9441 68.4958 28.4735C69.0245 29.0028 69.6691 29.27 70.4244 29.27C71.1798 29.27 71.8395 29.0028 72.3632 28.4735C72.8869 27.9441 73.1488 27.2989 73.1488 26.5477ZM82.0267 15.5172H84.5194V36.1111H82.0267V26.6233H79.6297V35.9952H77.278V15.5374H79.6297V24.2841H82.0267V15.5122V15.5172Z" fill="#575756"/>
<path d="M97.713 20.7552C97.713 21.4459 97.5669 22.1012 97.2749 22.7163C96.9828 23.3313 96.59 23.8707 96.0965 24.3345C95.6181 24.7984 95.0592 25.1613 94.4146 25.4285C93.77 25.6957 93.0751 25.8318 92.3399 25.8318C91.6047 25.8318 90.8846 25.6957 90.2299 25.4285C89.5753 25.1613 89.0113 24.7933 88.5329 24.3345C88.0444 23.8707 87.6516 23.3364 87.3596 22.7163C87.0675 22.1012 86.9214 21.4459 86.9214 20.7552C86.9214 20.0645 87.0675 19.4041 87.3596 18.779C87.6516 18.1539 88.0444 17.6195 88.5329 17.1758C89.0113 16.712 89.5753 16.344 90.2299 16.0668C90.8795 15.7895 91.5845 15.6534 92.3399 15.6534C93.0952 15.6534 93.77 15.7895 94.4146 16.0668C95.0592 16.344 95.6181 16.712 96.0965 17.1758C96.59 17.6245 96.9828 18.1589 97.2749 18.779C97.5669 19.4041 97.713 20.0595 97.713 20.7552ZM95.2455 20.7552C95.2455 19.9536 94.9635 19.273 94.3944 18.6983C93.8254 18.1287 93.1406 17.8463 92.3399 17.8463C91.5392 17.8463 90.8392 18.1337 90.2752 18.6983C89.7112 19.268 89.4343 19.9536 89.4343 20.7552C89.4343 21.5568 89.7163 22.2575 90.2752 22.8221C90.8342 23.3817 91.5241 23.6641 92.3399 23.6641C93.1557 23.6641 93.8254 23.3817 94.3944 22.8221C94.9635 22.2575 95.2455 21.5719 95.2455 20.7552ZM102.9 31.7201C102.9 32.4108 102.759 33.0611 102.472 33.6711C102.185 34.2811 101.807 34.8155 101.329 35.2743C100.85 35.7381 100.286 36.101 99.6316 36.3733C98.9769 36.6405 98.2871 36.7766 97.5669 36.7766C96.8468 36.7766 96.162 36.6405 95.5124 36.3733C94.8678 36.1061 94.3088 35.7381 93.8304 35.2743C93.3369 34.8155 92.9542 34.2761 92.6773 33.6711C92.4003 33.0611 92.2643 32.4108 92.2643 31.7201C92.2643 31.0294 92.4003 30.3791 92.6773 29.7691C92.9542 29.1591 93.3369 28.6247 93.8304 28.166C94.3088 27.7022 94.8678 27.3392 95.5124 27.072C96.1569 26.8048 96.8418 26.6687 97.5669 26.6687C98.2921 26.6687 98.9769 26.8048 99.6316 27.072C100.286 27.3392 100.85 27.7072 101.329 28.166C101.807 28.6298 102.185 29.1642 102.472 29.7691C102.754 30.3791 102.9 31.0294 102.9 31.7201ZM100.407 31.6999C100.407 30.9286 100.13 30.2682 99.5762 29.7137C99.0223 29.1591 98.3626 28.8818 97.5921 28.8818C96.8217 28.8818 96.1569 29.1591 95.598 29.7137C95.034 30.2682 94.757 30.9286 94.757 31.6999C94.757 32.4713 95.039 33.1518 95.598 33.6963C96.1569 34.2408 96.8267 34.5181 97.5921 34.5181C98.3576 34.5181 99.0223 34.2458 99.5762 33.6963C100.13 33.1518 100.407 32.4864 100.407 31.6999ZM103.821 26.2704H101.283V15.5122H103.821V17.4531H106.772V19.6713H103.821V21.8643H106.772V24.1026H103.821V26.2704Z" fill="#575756"/>
<path d="M126.89 28.3526V30.6161H118.702V36.1112H116.144V30.6161H107.981V28.3526H126.89ZM117.433 15.5173L125.918 24.6825L124.075 26.2756L117.433 19.1421L110.816 26.2756L108.948 24.6825L117.433 15.5173Z" fill="#575756"/>
<path d="M135.234 15.4014L141.574 25.5345L139.545 26.825L135.234 19.7621L130.989 27.0116L128.914 25.6958L135.234 15.4014ZM132.767 28.8113V33.4292H146.605V35.6928H130.208V28.8113H132.767ZM146.071 28.6954H143.533V15.5123H146.071V20.2461H149.022V22.7617H146.071V28.6954Z" fill="#575756"/>
<path d="M150.699 28.519H169.608V30.7825H161.42V36.0911H158.862V30.7825H150.699V28.519ZM154.737 18.4565H165.554V15.8501H168.092V25.7513H152.225V15.8501H154.737V18.4565ZM165.549 20.6696H154.732V23.5079H165.549V20.6696Z" fill="#575756"/>
</g>
<defs>
<clipPath id="clip0_21_22">
<rect width="169.608" height="50" fill="white"/>
</clipPath>
</defs>
</svg>
