<svg width="214" height="51" viewBox="0 0 214 51" fill="none" xmlns="http://www.w3.org/2000/svg">
<g clip-path="url(#clip0_21_9)">
<path d="M39.0524 24.3379C34.6611 21.3246 29.0304 22.5535 26.0774 27.0838C23.6089 30.8684 19.8857 31.3364 18.4424 31.3364C13.7451 31.3364 10.5268 28.0042 9.57311 24.5538C9.56291 24.5178 9.55781 24.4921 9.54761 24.4561C9.53741 24.415 9.52721 24.379 9.517 24.3379C9.14469 22.8981 9.05289 22.2142 9.05289 20.6818C9.05289 12.4338 17.4427 3.24985 29.5354 3.24985C41.628 3.24985 48.9978 12.7526 50.8237 18.0336C50.7931 17.941 50.7625 17.8485 50.7319 17.7508C47.2178 7.42529 37.5019 0 26.0672 0C11.6744 0 0 11.7653 0 26.2816C0 39.2553 9.28239 50.3624 22.1553 50.3624C32.4221 50.3624 39.3227 44.5569 42.4899 36.5557C44.224 32.1797 42.9948 27.0375 39.0524 24.3379Z" fill="#003763"/>
<path d="M50.9869 18.5477C49.467 13.3952 42.3267 3.25488 29.5405 3.25488C17.4478 3.25488 9.05798 12.4388 9.05798 20.6868C9.05798 22.2192 9.14979 22.9031 9.5221 24.3429C9.364 23.7156 9.28239 23.0831 9.28239 22.466C9.28239 13.8786 17.8151 7.92397 26.5823 7.92397C38.4556 7.92397 48.0746 17.6272 48.0746 29.5931C48.0746 38.9775 42.7194 47.0918 34.9416 50.9947C44.9686 47.3387 52.1344 37.656 52.1344 26.2815C52.1344 23.5921 51.7774 21.2165 50.9869 18.5477Z" fill="#E4022D"/>
<path d="M66.466 23.1706V15.6836H69.0569V20.9595H82.7663V23.1706H75.7841V25.0063H84.0771V27.2432H64.9258V25.0063H73.1932V23.1706H66.466ZM79.6399 32.8019C79.6399 33.4755 79.5022 34.108 79.2319 34.6993C78.9565 35.2907 78.5994 35.7997 78.1455 36.242C77.661 36.6791 77.1102 37.0287 76.488 37.291C75.8657 37.5481 75.2027 37.6818 74.504 37.6818C73.8052 37.6818 73.1422 37.5532 72.52 37.291C71.8978 37.0339 71.3469 36.6842 70.8624 36.242C70.4085 35.7997 70.0464 35.2907 69.7761 34.6993C69.5007 34.1131 69.3681 33.4806 69.3681 32.8019C69.3681 32.1231 69.5058 31.4958 69.7761 30.9044C70.0464 30.3182 70.4085 29.7937 70.8624 29.3412C71.3469 28.9195 71.8978 28.575 72.52 28.3179C73.1422 28.0608 73.8052 27.9271 74.504 27.9271C75.2027 27.9271 75.8657 28.0556 76.488 28.3179C77.1102 28.5801 77.661 28.9195 78.1455 29.3412C78.5943 29.7988 78.9565 30.3182 79.2319 30.9044C79.5022 31.4906 79.6399 32.1231 79.6399 32.8019ZM77.1153 32.7813C77.1153 32.0614 76.8603 31.4392 76.3452 30.9198C75.83 30.4005 75.218 30.1434 74.4989 30.1434C73.7797 30.1434 73.1677 30.4005 72.6526 30.9198C72.1375 31.4392 71.8825 32.0562 71.8825 32.7813C71.8825 33.5063 72.1375 34.1183 72.6526 34.6273C73.1677 35.1364 73.7797 35.3935 74.4989 35.3935C75.218 35.3935 75.83 35.1364 76.3452 34.6273C76.8603 34.1183 77.1153 33.5012 77.1153 32.7813Z" fill="#575756"/>
<path d="M99.4593 26.3536H87.1525V20.2808H96.1697V18.4913H87.1525V16.2544H98.7606V22.425H89.723V24.2608H99.4644V26.3588L99.4593 26.3536ZM88.2746 28.5648H104.646V36.4066H88.2746V28.5648ZM102.076 30.6576H90.84V34.2366H102.076V30.6576ZM102.05 15.8276H104.641V27.2947H102.05V15.8276Z" fill="#575756"/>
<path d="M108.196 27.9272V25.6903H127.347V27.9272H119.034V30.1897H125.807V36.8745H123.216V32.3752H109.252V30.1846H116.514V27.922H108.201L108.196 27.9272ZM116.392 17.0052V15.406H119.08V17.0052H125.899V19.1958H119.151L126.088 22.893L124.894 24.7545L117.749 20.867L110.649 24.7545L109.461 22.893L116.351 19.1958H109.624V17.0052H116.397H116.392Z" fill="#575756"/>
<path d="M135.916 15.7095L142.337 26.0452L140.281 27.3616L135.916 20.1574L131.616 27.5519L129.515 26.2098L135.916 15.7095ZM133.417 29.3876V34.0979H147.427V36.4067H130.821V29.3876H133.411H133.417ZM146.891 29.2694H144.321V15.8226H146.891V20.6511H149.88V23.217H146.891V29.2694Z" fill="#575756"/>
<path d="M157.53 15.5449L164.094 24.5643L162.039 25.9784L157.53 19.6895L153.047 26.1429L150.946 24.7288L157.53 15.5449ZM152.833 28.3746H169.485V36.6381H166.894V30.704H152.833V28.3746ZM166.894 15.8277H169.485V27.012H166.894V15.8277Z" fill="#575756"/>
<path d="M190.646 29.5984V36.5198H174.575V29.5984H181.348V27.7164H173.035V25.5053H192.186V27.7164H183.873V29.5984H190.646ZM174.249 23.9986V21.8338H177.1V18.3474H174.249V16.1362H190.973V18.3474H188.101V21.8338H190.973V23.9986H174.249ZM188.101 31.6964H177.1V34.3344H188.101V31.6964ZM185.628 18.3474H179.604V21.8338H185.628V18.3474Z" fill="#575756"/>
<path d="M194.849 29.0944H214V31.4032H205.707V36.8179H203.116V31.4032H194.849V29.0944ZM198.939 18.8255H209.889V16.167H212.46V26.2662H196.394V16.167H198.939V18.8255ZM209.889 21.0829H198.939V23.9779H209.889V21.0829Z" fill="#575756"/>
</g>
<defs>
<clipPath id="clip0_21_9">
<rect width="214" height="51" fill="white"/>
</clipPath>
</defs>
</svg>
