<svg width="160" height="160" viewBox="0 0 160 160" fill="none" xmlns="http://www.w3.org/2000/svg">
<g clip-path="url(#clip0_145_5104)">
<path d="M160 0H0V160H160V0Z" fill="white"/>
<path d="M139.413 102.213C139.286 101.676 139.139 101.178 138.964 100.641C138.68 99.8108 138.329 98.9904 137.84 98.2482C137.616 97.9064 137.372 97.5841 137.108 97.2813C136.932 97.086 136.678 96.6563 136.405 96.6075C136.063 96.5489 136.043 96.9981 135.985 97.1934C134.891 100.905 125.164 103.209 119.744 103.209C119.519 103.209 119.314 103.209 119.109 103.2C118.796 103.19 118.328 102.594 118.347 102.282C118.357 101.979 118.611 101.735 118.933 101.735C124.217 101.92 133.817 99.4885 134.686 96.5391C134.832 96.0508 134.666 95.5332 134.364 95.1523C134.09 94.8007 133.524 94.7226 133.104 94.6445C132.313 94.5077 131.512 94.537 130.721 94.5663C129.881 94.5956 129.041 94.5956 128.191 94.6542C126.043 94.7812 123.885 95.0644 121.785 95.5429C119.734 96.0117 117.663 96.6758 115.876 97.7989C114.382 98.7365 113.064 100.084 112.692 101.862C112.214 104.088 113.249 106.344 114.45 108.161C115.222 109.333 116.15 109.665 117.517 109.675C123.064 109.724 128.611 109.763 134.159 109.811C134.998 109.811 136.356 110.046 137.137 109.714C137.772 109.45 138.29 108.454 138.622 107.887C139.647 106.159 139.872 104.157 139.423 102.213H139.413Z" fill="#EF8255"/>
<path d="M63.5586 100.035C63.4804 99.8303 63.3925 99.6252 63.3047 99.4299C63.2265 99.2736 63.1386 98.9904 63.0117 98.883C62.748 98.6486 62.5527 99.0002 62.4062 99.176C62.2597 99.3518 62.1034 99.508 61.9276 99.6545C60.2869 101.061 57.9235 101.666 55.853 102.116C52.806 102.78 49.4366 103.024 47.1806 102.838C46.8876 102.819 46.6825 102.575 46.7118 102.301C46.7411 102.028 46.9658 101.53 47.2685 101.549C52.0149 101.95 60.824 100.309 61.8202 97.8478C62.0057 97.3888 61.4588 96.9981 61.1659 96.7442C61.0389 96.6368 60.9119 96.627 60.7557 96.5489C56.9078 94.7226 46.3212 97.5743 43.8601 100.866C43.2155 101.725 42.9519 102.819 42.9226 103.874C42.903 104.762 42.8249 106.393 43.821 106.755C44.1824 106.891 44.5828 106.882 44.9735 106.882C48.7725 106.823 52.5716 106.764 56.3706 106.706C58.2653 106.676 60.1697 106.647 62.0643 106.618C62.4355 106.618 62.787 106.676 63.0703 106.452C63.3144 106.266 63.4902 105.837 63.6074 105.563C63.9004 104.919 64.0371 104.215 64.086 103.512C64.1543 102.34 63.9492 101.139 63.539 100.045L63.5586 100.035Z" fill="#EF8255"/>
<path d="M159.99 159.99H0V0H160V160L159.99 159.99ZM1.5333 158.467H158.467V1.5333H1.5333V158.467Z" fill="#595757"/>
<path d="M19.2394 15.9971H17.1201V47.1025H19.2394H22.9896H37.9612V41.4576H22.9896V34.4845H35.6076V28.8299H22.9896V21.6419H37.9612V15.9971H22.9896H19.2394Z" fill="#595757"/>
<path d="M60.3651 33.4298C61.6445 32.6582 62.6504 31.5742 63.3731 30.1776C64.0958 28.7811 64.4572 27.1501 64.4572 25.275C64.4572 23.3999 64.0958 21.7787 63.3829 20.3723C62.6699 18.9758 61.664 17.8917 60.3749 17.1202C59.0857 16.3487 57.572 15.9678 55.8531 15.9678H42.2195V47.1025H48.0792V34.5822H51.6341L58.6463 47.1025H65.7463L58.3142 34.2794C59.0467 34.0841 59.7303 33.8107 60.3554 33.4298H60.3651ZM48.0792 21.6224H55.3746C56.3024 21.6224 57.0348 21.9545 57.5915 22.6283C58.1384 23.3022 58.4119 24.1812 58.4119 25.2847C58.4021 26.3883 58.1189 27.2673 57.5622 27.9412C57.0153 28.615 56.2828 28.9471 55.3648 28.9471H48.0694V21.6322L48.0792 21.6224Z" fill="#595757"/>
<path d="M78.6182 15.9971L66.7229 47.1123H73.0319L74.78 42.1315H86.1772L87.9254 47.1123H94.2344L82.3391 15.9971H78.6182ZM76.7528 36.4671L80.4737 25.8512L84.1947 36.4671H76.7528Z" fill="#595757"/>
<path d="M113.806 28.8592H102.633V15.9971H96.7734V47.1025H102.633V34.5041H113.806V47.1025H119.665V15.9971H113.806V28.8592Z" fill="#595757"/>
<path d="M145.302 33.6642C144.716 32.5606 143.935 31.7012 142.948 31.0761C141.962 30.4511 140.878 29.9628 139.696 29.6307C138.514 29.2987 137.323 29.0154 136.122 28.7811C135.038 28.5662 134.022 28.3318 133.084 28.0876C132.147 27.8435 131.375 27.4528 130.799 26.945C130.213 26.4274 129.92 25.6754 129.92 24.6792V24.6597C129.92 23.5854 130.408 22.7553 131.395 22.1693C132.381 21.5736 133.768 21.2806 135.565 21.2806C136.766 21.2806 138.016 21.5052 139.325 21.9545C140.634 22.4037 141.884 23.0483 143.085 23.8882L145.566 18.9269C144.071 17.8819 142.45 17.0811 140.712 16.5244C138.973 15.958 137.264 15.6748 135.575 15.6748C131.922 15.6748 129.1 16.5049 127.098 18.1652C125.096 19.8254 124.099 22.1791 124.099 25.2164V25.2359C124.099 27.1208 124.412 28.6248 125.057 29.7479C125.691 30.871 126.531 31.7402 127.566 32.3457C128.611 32.9512 129.744 33.3907 130.994 33.6739C132.235 33.9474 133.465 34.1818 134.676 34.3673C135.692 34.5236 136.63 34.7189 137.489 34.9435C138.348 35.1682 139.052 35.5197 139.579 35.9983C140.106 36.4768 140.37 37.1605 140.37 38.059V38.0785C140.37 39.2602 139.843 40.1782 138.788 40.8326C137.733 41.4771 136.249 41.8092 134.334 41.8092C132.684 41.8092 131.063 41.5455 129.5 41.0084C127.928 40.4712 126.551 39.7095 125.35 38.7328L122.635 43.5671C123.631 44.3777 124.754 45.0809 125.994 45.6571C127.234 46.2333 128.563 46.6728 129.988 46.9755C131.405 47.2783 132.86 47.4248 134.344 47.4248C138.114 47.4248 141.024 46.6044 143.095 44.9539C145.165 43.3034 146.2 40.9888 146.2 37.9906V37.9515C146.2 36.1936 145.907 34.7677 145.321 33.6739L145.302 33.6642Z" fill="#595757"/>
<path d="M116.189 61.9374C116.189 62.4062 116.091 62.7675 115.896 63.0214C115.7 63.2753 115.427 63.3925 115.066 63.3925C114.812 63.3925 114.568 63.3339 114.333 63.2167C114.099 63.0996 113.903 62.9335 113.737 62.7284L113.708 62.6894L112.067 63.8809L112.028 63.9101L112.048 63.9492C112.331 64.4082 112.722 64.7598 113.23 65.0137C113.737 65.2677 114.314 65.3849 114.948 65.3849C116.013 65.3849 116.843 65.0821 117.429 64.4766C118.015 63.8809 118.308 63.0214 118.308 61.9374V54.8276H116.179V61.9276L116.189 61.9374Z" fill="#595757"/>
<path d="M120.496 65.2872H127.547V63.3046H122.547V61.0877H126.756V59.1052H122.547V56.8101H127.547V54.8373H120.496V65.2872Z" fill="#595757"/>
<path d="M132.303 61.9374C132.303 62.4061 132.205 62.7675 132.01 63.0214C131.814 63.2753 131.541 63.3925 131.18 63.3925C130.926 63.3925 130.682 63.3339 130.447 63.2167C130.213 63.0995 130.017 62.9335 129.851 62.7284L129.822 62.6894L128.181 63.8808L128.142 63.9101L128.162 63.9492C128.445 64.4082 128.836 64.7598 129.344 65.0137C129.851 65.2676 130.428 65.3848 131.062 65.3848C132.127 65.3848 132.957 65.0821 133.543 64.4766C134.129 63.8808 134.422 63.0214 134.422 61.9374V54.8276H132.293V61.9276L132.303 61.9374Z" fill="#595757"/>
<path d="M142.089 54.8373V61.537C142.089 62.1132 141.932 62.5624 141.62 62.8847C141.307 63.1972 140.868 63.3632 140.301 63.3632C139.735 63.3632 139.296 63.207 138.993 62.8847C138.68 62.5722 138.534 62.1132 138.534 61.537V54.8373H136.483V61.4881C136.483 62.7187 136.825 63.6855 137.489 64.3692C138.153 65.043 139.1 65.3946 140.321 65.3946C141.542 65.3946 142.489 65.0528 143.163 64.3692C143.837 63.6855 144.169 62.7187 144.169 61.4881V54.8373H142.118H142.089Z" fill="#595757"/>
<path d="M63.998 56.1167H67.2893V64.8965H68.1292V56.1167H71.4106V55.3256H63.998V56.1167Z" fill="#595757"/>
<path d="M76.9966 58.1871C76.6157 57.9528 76.1567 57.8356 75.6391 57.8356C75.1215 57.8356 74.682 57.943 74.2914 58.1676C73.9007 58.3922 73.598 58.695 73.3733 59.0759V55.3256H72.5237V64.8965H73.3733V60.7654C73.3733 60.3455 73.4612 59.9744 73.637 59.6423C73.8128 59.32 74.0667 59.0661 74.3793 58.8805C74.6918 58.695 75.0531 58.6071 75.4633 58.6071C76.0884 58.6071 76.5571 58.7927 76.8697 59.1638C77.1822 59.5349 77.3384 60.0525 77.3384 60.7166V64.8965H78.1783V60.6678C78.1783 60.1013 78.0807 59.6033 77.8756 59.1833C77.6705 58.7536 77.3775 58.4215 76.9966 58.1871Z" fill="#595757"/>
<path d="M84.0188 58.2165C83.5598 57.9625 83.052 57.8453 82.4953 57.8453C81.9386 57.8453 81.4503 57.9723 80.9913 58.2165C80.5323 58.4606 80.1709 58.822 79.8975 59.3103C79.624 59.7888 79.4873 60.365 79.4873 61.0291V61.9081C79.4873 62.5722 79.624 63.1484 79.9072 63.6269C80.1905 64.1055 80.5616 64.4668 81.0206 64.7208C81.4796 64.9649 81.9875 65.0919 82.5344 65.0919C83.1789 65.0919 83.7649 64.9356 84.2923 64.6133C84.8197 64.291 85.1908 63.832 85.3959 63.2265L84.6146 62.9531C84.4485 63.3926 84.1751 63.7246 83.7942 63.9688C83.4133 64.2031 82.9836 64.3301 82.5246 64.3301C82.1242 64.3301 81.7628 64.2324 81.421 64.0469C81.0792 63.8613 80.8155 63.5781 80.6104 63.207C80.4053 62.8359 80.3077 62.3964 80.3077 61.8886V61.7909H85.4838V61.1463C85.4838 60.4529 85.347 59.8474 85.0833 59.3591C84.8197 58.8708 84.4583 58.4899 83.9993 58.236L84.0188 58.2165ZM80.337 61.0096C80.337 60.5213 80.4346 60.1013 80.6202 59.74C80.8155 59.3689 81.0694 59.0954 81.4015 58.9001C81.7335 58.7048 82.0949 58.6169 82.5051 58.6169C82.9348 58.6169 83.3059 58.7145 83.6379 58.9001C83.97 59.0856 84.2239 59.3689 84.3997 59.7302C84.5755 60.0916 84.6732 60.5213 84.6732 61.0096H80.337Z" fill="#595757"/>
<path d="M94.4197 55.5405C93.9314 55.2768 93.3747 55.1499 92.7497 55.1499C92.1247 55.1499 91.5875 55.2768 91.0992 55.5405C90.6011 55.8042 90.2105 56.1753 89.9175 56.6636C89.6245 57.1519 89.478 57.7184 89.478 58.3629C89.478 59.0075 89.6245 59.5837 89.9077 60.0623C90.191 60.5506 90.5816 60.9217 91.0602 61.1854C91.5387 61.4491 92.0758 61.576 92.652 61.576C93.2869 61.576 93.8728 61.41 94.3904 61.0682C94.7323 60.8436 94.9959 60.5603 95.1913 60.2185V60.7752C95.1913 61.9471 94.9862 62.8261 94.5467 63.4121C94.1072 64.0078 93.531 64.3008 92.8083 64.3008C92.2028 64.3008 91.7047 64.1641 91.3336 63.8809C90.9625 63.5976 90.6304 63.1777 90.357 62.6112L89.6441 63.0019C89.9566 63.6758 90.3765 64.1934 90.9039 64.545C91.4313 64.8965 92.0758 65.0723 92.8278 65.0723C93.404 65.0723 93.9314 64.9258 94.4002 64.6329C94.8787 64.3399 95.2596 63.8711 95.5526 63.2363C95.8456 62.6015 95.9921 61.7909 95.9921 60.8143V58.4215C95.9921 57.7477 95.8456 57.1617 95.5624 56.6734C95.2792 56.1851 94.8885 55.8042 94.4002 55.5405H94.4197ZM94.8592 59.6912C94.6444 60.0623 94.3514 60.3357 93.9803 60.531C93.6091 60.7264 93.2087 60.8143 92.7595 60.8143C92.3102 60.8143 91.9098 60.7166 91.5387 60.531C91.1676 60.3455 90.8746 60.0623 90.6597 59.6912C90.4449 59.32 90.3375 58.8806 90.3375 58.3727C90.3375 57.8649 90.4449 57.4254 90.6597 57.0543C90.8746 56.6832 91.1676 56.3999 91.5387 56.2046C91.9098 56.0093 92.3102 55.9214 92.7595 55.9214C93.2087 55.9214 93.6091 56.0191 93.9803 56.2046C94.3514 56.3902 94.6444 56.6734 94.8592 57.0543C95.0741 57.4254 95.1815 57.8649 95.1815 58.3727C95.1815 58.8806 95.0741 59.32 94.8592 59.6912Z" fill="#595757"/>
<path d="M100.494 64.2227C100.338 64.2715 100.162 64.291 99.9865 64.291C99.7326 64.291 99.5373 64.2227 99.4005 64.0957C99.2638 63.9688 99.2052 63.7344 99.2052 63.3828V58.8122H101.061V58.0114H99.2052V56.0386H98.3653V58.0114H97.0469V58.8122H98.3653V63.4707C98.3653 64.0078 98.502 64.4082 98.7755 64.6817C99.049 64.9454 99.4201 65.0821 99.8986 65.0821C100.133 65.0821 100.367 65.0528 100.612 64.9844C100.856 64.9161 101.071 64.8282 101.266 64.711L101.031 63.9981C100.836 64.1055 100.66 64.1738 100.504 64.2227H100.494Z" fill="#595757"/>
<path d="M107.663 59.1833C107.458 58.7536 107.165 58.4215 106.784 58.1871C106.403 57.9528 105.944 57.8356 105.426 57.8356C104.909 57.8356 104.469 57.943 104.079 58.1676C103.688 58.3922 103.385 58.695 103.161 59.0759V55.3256H102.311V64.8965H103.161V60.7654C103.161 60.3455 103.249 59.9744 103.424 59.6423C103.6 59.32 103.854 59.0661 104.167 58.8805C104.479 58.695 104.84 58.6071 105.251 58.6071C105.876 58.6071 106.344 58.7927 106.657 59.1638C106.97 59.5349 107.126 60.0525 107.126 60.7166V64.8965H107.966V60.6678C107.966 60.1013 107.868 59.6033 107.663 59.1833Z" fill="#595757"/>
<path d="M13.2528 116.658C12.5594 115.896 13.038 115.271 13.2235 114.46C13.7216 112.243 11.5828 111.56 19.8548 110.642C34.1037 109.059 56.8883 108.219 72.2213 108.659C82.6223 108.962 92.3983 110.075 102.506 110.788C113.659 111.569 124.822 111.726 136.004 112.097C138.212 112.165 140.419 112.233 142.636 112.282C144.052 112.312 145.497 112.282 146.913 112.36C147.714 112.399 148.574 112.673 148.29 113.386C147.978 114.157 146.65 114.489 145.976 115.056C145.165 115.749 144.091 115.525 142.958 115.583C141.083 115.681 139.208 115.769 137.333 115.857C133.719 116.023 130.096 116.169 126.473 116.306C102.799 117.156 78.8525 117.419 54.9546 117.468C54.7007 117.468 54.4467 117.468 54.1928 117.468C46.9463 117.38 39.69 117.302 32.4435 117.214C28.1756 117.165 23.9175 117.117 19.6497 117.068C18.1555 117.048 16.6612 117.029 15.1768 117.019C14.7959 117.019 14.0634 117.126 13.7216 116.999C13.5263 116.931 13.37 116.824 13.2528 116.687V116.658Z" fill="#7BA7CB"/>
<path d="M132.605 126.687C132.605 126.687 132.605 126.756 132.605 126.795C132.547 127.732 132.635 128.397 133.611 128.553C134.695 128.738 135.916 128.621 137.02 128.67C139.315 128.768 141.61 128.865 143.915 128.856C144.911 128.856 146.483 129.246 147.059 127.84C147.274 127.332 147.304 126.726 147.313 126.15C147.362 124.08 147.245 121.629 146.952 119.597C146.718 117.956 145.292 118.298 144.364 118.269C143.114 118.22 141.874 118.171 140.623 118.23C138.836 118.318 137.049 118.386 135.252 118.415C134.373 118.435 133.504 118.454 132.615 118.484C131.951 118.503 130.896 118.513 130.545 119.246C130.222 119.91 130.642 121.033 130.887 121.677C131.502 123.308 132.654 124.861 132.596 126.687H132.605Z" fill="#595757"/>
<path d="M52.4931 125.701C52.4248 125.701 52.3759 125.701 52.3173 125.701L48.03 125.789C47.8249 125.789 47.5807 125.818 47.317 125.848C46.5064 125.935 45.5005 126.043 45.1099 125.515C44.7192 124.978 44.7388 124.09 44.7583 123.435V123.328C44.7583 123.133 44.7583 122.908 44.7583 122.674C44.729 121.804 44.7192 120.281 45.3638 119.9C46.2525 119.373 47.4928 119.607 48.5769 119.812C49.0359 119.9 49.4754 119.988 49.8758 120.007L52.5908 120.125C53.0107 120.144 53.4307 120.164 53.8506 120.183C54.505 120.222 54.6515 120.359 54.7784 121.14C54.9347 122.058 55.0519 123.513 55.2081 124.431C55.2472 124.666 55.296 124.929 55.2667 125.183C55.1788 125.916 53.7823 125.808 52.9326 125.74C52.7666 125.73 52.6201 125.711 52.5029 125.711L52.4931 125.701Z" fill="#595757"/>
<path d="M73.4612 127.264C74.6918 127.283 75.9223 127.391 77.1528 127.498C77.9146 127.566 78.3443 127.82 79.1354 127.498C79.7116 127.264 80.278 127.029 80.8542 126.785C81.4011 126.56 81.9871 126.307 82.2996 125.799C82.7782 125.027 82.3875 123.943 82.5536 123.074C82.7196 122.136 82.8758 121.072 82.7684 120.115C82.5731 118.406 80.4831 119.187 79.5065 119.226C78.1392 119.285 76.7231 119.499 75.3656 119.343C74.3597 119.226 73.9886 119.441 73.471 120.525C72.8459 121.834 72.2795 123.601 71.7033 124.959C71.508 125.418 71.3126 125.945 71.4396 126.443C71.6056 127.049 72.1818 127.264 72.6701 127.254C72.9338 127.254 73.1975 127.254 73.4612 127.254V127.264Z" fill="#595757"/>
<path d="M117.126 137.391C118.357 137.411 119.587 137.518 120.818 137.626C121.384 137.674 121.96 137.723 122.527 137.762C123.63 137.831 124.91 138.192 125.593 136.737C125.916 136.043 126.013 135.223 126.101 134.422C126.189 133.612 126.287 132.791 126.375 131.981C126.423 131.531 126.472 130.701 126.423 130.262C126.287 129.119 125.203 129.1 124.294 129.217C123.806 129.285 123.298 129.315 122.82 129.402C122.068 129.539 121.511 129.529 120.73 129.432C120.31 129.383 119.958 129.217 119.558 129.149C118.952 129.051 118.093 128.826 117.526 129.149C117.067 129.402 116.804 130.203 116.54 130.653C116.237 131.17 116.179 131.824 116.022 132.391C115.778 133.28 115.729 134.286 115.378 135.125C115.183 135.584 114.987 136.112 115.114 136.61C115.28 137.215 115.856 137.43 116.345 137.42C116.608 137.42 116.872 137.42 117.136 137.42L117.126 137.391Z" fill="#595757"/>
<path d="M87.5052 127.127C89.1166 127.146 90.7281 127.264 92.3395 127.371C93.0915 127.42 93.8337 127.478 94.576 127.508C96.0214 127.576 97.7011 127.947 98.5801 126.492C99.0001 125.799 99.127 124.978 99.2344 124.177C99.5177 122.244 100.602 118.953 97.8574 118.708C94.8396 118.435 91.6461 118.718 88.6381 118.904C87.7787 118.953 86.2454 118.787 85.4836 119.07C84.1554 119.568 83.9015 122.459 83.7648 123.66C83.6671 124.529 83.5694 125.457 83.9503 126.258C84.6535 127.732 86.2258 127.117 87.4954 127.137L87.5052 127.127Z" fill="#595757"/>
<path d="M70.9711 133.534C71.2836 133.504 71.557 133.475 71.7524 133.475C73.0513 133.475 74.3502 133.455 75.6491 133.446C76.2351 133.446 76.8894 133.407 77.3094 132.996C77.6902 132.616 77.7586 132.02 77.7879 131.473C77.866 130.301 78.4032 128.807 76.9187 128.406C76.362 128.25 75.5905 128.406 75.0143 128.426C73.6373 128.465 72.2602 128.514 70.8832 128.553C70.3167 128.572 69.7405 128.592 69.2327 128.826C68.4221 129.207 68.383 129.998 68.3635 130.789C68.344 131.453 67.9631 132.782 68.51 133.299C68.9495 133.709 70.0823 133.612 70.9613 133.534H70.9711Z" fill="#595757"/>
<path d="M59.4176 126.307C59.5837 126.307 59.7399 126.307 59.8864 126.307C59.9938 126.307 60.0915 126.307 60.1892 126.316C61.9373 126.463 63.6855 126.609 65.4336 126.746L66.4493 126.824C67.4943 126.912 69.0178 127.684 69.7796 126.463C70.1214 125.926 70.2874 125.242 70.5023 124.607C70.8832 123.494 72.7681 120.935 71.9184 119.636C71.518 119.031 70.5511 119.138 69.7698 119.236C69.5257 119.265 69.3011 119.294 69.096 119.304C67.6701 119.353 66.2345 119.392 64.8086 119.431C63.7831 119.46 62.7577 119.47 61.7225 119.49C61.0877 119.499 60.4529 119.509 59.8181 119.519C59.5348 119.519 59.2516 119.499 58.9293 119.48C58.275 119.431 57.5914 119.382 57.0542 119.578C56.8882 119.636 56.7612 119.744 56.6636 119.9C56.3217 120.417 56.3315 121.961 56.351 122.771C56.351 123.025 56.351 123.259 56.351 123.474C56.351 123.601 56.3315 123.758 56.312 123.924C56.2827 124.265 56.2436 124.685 56.2925 124.9C56.6636 126.365 58.2457 126.346 59.3981 126.326L59.4176 126.307Z" fill="#595757"/>
<path d="M103.844 136.219C103.678 136.219 103.522 136.219 103.375 136.219C103.268 136.219 103.17 136.219 103.072 136.229C101.324 136.375 99.576 136.522 97.8278 136.659L96.8121 136.737C95.7671 136.825 94.2436 137.596 93.4818 136.375C93.14 135.838 92.974 135.155 92.7591 134.52C92.515 133.807 92.1829 133.309 92.0755 132.528C91.9485 131.629 91.9583 130.711 92.095 129.813C92.1536 129.412 92.2708 128.973 92.6126 128.748C92.9056 128.553 93.2865 128.572 93.6479 128.602C95.3277 128.729 97.0074 128.875 98.6872 129.012C100.269 129.139 101.861 129.402 103.434 129.432C103.717 129.432 104 129.412 104.322 129.393C104.977 129.344 105.66 129.295 106.197 129.49C106.363 129.549 106.49 129.656 106.588 129.813C106.93 130.33 106.92 131.873 106.901 132.684C106.901 132.938 106.901 133.172 106.901 133.387C106.901 133.514 106.92 133.67 106.94 133.836C106.969 134.178 107.008 134.598 106.959 134.813C106.588 136.278 105.006 136.258 103.854 136.239L103.844 136.219Z" fill="#595757"/>
<path d="M128.504 128.523C128.894 128.543 129.295 128.514 129.607 128.289C129.812 128.143 129.959 127.937 130.096 127.742C130.369 127.352 130.642 126.961 130.926 126.57C131.033 126.414 131.141 126.258 131.209 126.082C131.414 125.496 131.023 124.929 130.896 124.373C130.496 122.664 129.217 121.169 128.64 119.49C128.338 118.611 127.849 118.191 126.882 118.337C126.687 118.367 126.521 118.386 126.404 118.396C125.818 118.425 125.212 118.425 124.636 118.425C124.119 118.425 123.591 118.425 123.064 118.454C122.986 118.454 122.908 118.454 122.839 118.454C122.39 118.454 122.087 118.464 121.824 118.767C121.775 118.826 121.726 118.894 121.677 118.962C121.218 119.675 121.316 120.593 121.13 121.384C120.954 122.117 120.847 122.869 120.573 123.572C120.3 124.275 119.909 124.929 119.568 125.613C119.392 125.965 119.196 126.336 119.118 126.717C119.069 126.961 119.079 127.234 119.206 127.449C119.431 127.83 119.929 127.928 120.368 127.977C122.029 128.162 123.699 128.24 125.359 128.318C126.336 128.367 127.322 128.406 128.289 128.514C128.367 128.514 128.435 128.523 128.513 128.533L128.504 128.523Z" fill="#595757"/>
<path d="M101.656 127.293C102.887 127.41 104.117 127.527 105.348 127.635C106.745 127.771 106.403 126.57 106.08 125.213C105.924 124.549 105.895 123.855 105.729 123.211C105.543 122.498 105.26 121.795 105.026 121.091C104.85 120.574 104.674 120.037 104.323 119.617C103.727 118.913 102.75 118.972 101.91 119.031C101.861 119.031 101.813 119.031 101.764 119.031C101.481 119.031 101.285 119.04 101.119 119.304C101.09 119.353 101.051 119.412 101.022 119.47C100.797 119.939 100.738 120.886 100.69 121.482C100.67 121.658 100.66 121.824 100.641 121.99C100.533 122.918 100.455 123.885 100.406 124.881C100.406 125.047 100.367 125.242 100.338 125.437C100.279 125.828 100.221 126.277 100.299 126.541C100.494 127.176 101.197 127.244 101.647 127.283L101.656 127.293Z" fill="#595757"/>
<path d="M108.805 136.512C108.874 136.561 108.942 136.6 109.02 136.639C109.616 136.981 110.036 136.971 110.68 136.952C111.218 136.932 111.843 136.952 112.37 137.059C112.829 137.167 113.073 137.303 113.405 136.893C113.63 136.61 113.757 136.17 113.884 135.829C114.069 135.34 114.118 134.823 114.313 134.344C114.733 133.309 114.88 132.254 115.026 131.131C115.095 130.613 115.124 129.998 114.724 129.676C114.509 129.51 114.226 129.471 113.952 129.441C113.161 129.373 112.39 129.471 111.608 129.451C110.973 129.441 110.329 129.285 109.694 129.217C109.186 129.168 108.61 129.217 108.288 129.608C108.034 129.9 107.995 130.32 107.975 130.701C107.926 131.6 107.917 132.508 108.014 133.407C108.102 134.227 107.809 135.194 108.278 135.946C108.415 136.17 108.61 136.346 108.825 136.493L108.805 136.512Z" fill="#595757"/>
<path d="M100.856 139.071C100.826 139.647 100.865 140.272 100.836 140.585C100.768 141.317 100.709 142.04 100.631 142.772C100.494 144.159 101.696 143.827 103.053 143.505C104.401 143.183 106.149 142.997 107.585 142.948C107.956 142.938 108.346 142.929 108.698 142.841C109.469 142.645 109.577 141.766 109.88 141.18C110.378 140.233 110.837 139.423 109.733 138.739C108.991 138.28 108.337 137.655 107.536 137.254C106.735 136.844 106.032 137.215 105.221 137.342C104.196 137.508 103.17 137.694 102.125 137.753C101.266 137.801 100.895 138.231 100.856 139.061V139.071Z" fill="#595757"/>
<path d="M109.147 149.443C109.235 149.404 109.323 149.365 109.401 149.316C109.792 149.101 110.192 148.788 110.221 148.368C110.241 148.115 110.133 147.87 110.026 147.636C109.704 146.962 109.43 146.327 109.196 145.624C108.962 144.921 108.922 144.198 107.946 144.159C105.778 144.071 103.629 144.638 101.451 144.706C101.041 144.716 100.621 144.726 100.24 144.814C99.3418 145.019 99.2051 146.064 99.0586 146.757C98.9121 147.48 98.1991 148.71 99.0097 149.286C99.6836 149.775 101.344 149.57 102.154 149.619C104.342 149.755 107.096 150.38 109.147 149.433V149.443Z" fill="#595757"/>
<path d="M127.947 142.284C128.015 141.444 128.152 140.595 128.22 139.784C128.269 139.178 128.347 138.954 127.693 138.788C127.215 138.671 126.697 138.758 126.218 138.817C123.503 139.149 120.739 139.159 118.024 138.866C116.413 138.69 113.034 137.518 111.93 139.374C111.325 140.409 110.905 141.532 110.495 142.665C110.319 143.163 109.948 143.808 109.928 144.335C109.909 144.862 110.251 145.448 110.456 145.898C110.827 146.679 111.188 147.46 111.559 148.241C111.716 148.574 111.872 148.915 112.145 149.159C112.829 149.794 114.421 149.345 115.27 149.335C118.552 149.306 121.833 148.974 125.046 148.329C126.443 148.046 127.752 148.193 128.015 146.581C128.191 145.497 127.957 144.501 127.918 143.436C127.898 143.056 127.918 142.675 127.947 142.284Z" fill="#595757"/>
<path d="M139.247 138.915C138.553 138.817 137.87 138.837 137.264 139.149C136.649 139.462 136.19 140.087 136.102 140.77C136.024 141.386 136.239 142.001 136.453 142.577C136.873 143.7 137.352 144.814 137.86 145.907C138.231 146.689 138.651 147.509 139.325 148.075C140.096 148.73 140.721 148.3 141.639 148.329C142.421 148.359 143.212 148.359 143.993 148.388C144.55 148.408 145.106 148.447 145.663 148.486C146.093 148.515 146.718 148.788 147.128 148.534C147.665 148.202 147.626 147.323 147.597 146.611C147.597 146.435 147.587 146.259 147.587 146.093C147.577 145.448 147.587 144.413 147.587 143.778C147.587 143.456 147.587 143.134 147.587 142.802C147.587 141.62 147.138 140.839 145.936 140.595C144.139 140.233 142.362 139.696 140.585 139.208C140.155 139.091 139.706 138.973 139.256 138.915H139.247Z" fill="#595757"/>
<path d="M99.0683 138.231C98.9804 138.212 98.8925 138.192 98.7949 138.172C96.1775 137.713 93.6871 138.534 91.1088 138.212C90.6401 138.153 90.1615 138.094 89.7025 138.085C89.2142 138.085 88.7357 138.133 88.2962 138.309C88.1594 138.368 88.0423 138.446 87.9446 138.534C87.427 139.042 87.4563 140.067 87.4758 140.975C87.4758 141.288 87.4953 141.581 87.4758 141.845C87.4367 142.831 87.3879 144.198 87.3391 145.185L87.2707 146.669C87.2707 146.825 87.2414 147.021 87.2121 147.226C87.0266 148.603 87.7297 149.247 88.9407 149.286C90.8647 149.355 92.7691 149.286 94.654 149.511C96.4217 149.736 97.1639 148.085 97.7499 146.542C98.4335 144.735 99.1074 142.548 99.791 140.741C100.064 140.018 100.299 139.1 99.7617 138.563C99.5762 138.378 99.332 138.28 99.0781 138.221L99.0683 138.231Z" fill="#595757"/>
<path d="M119.792 118.767C119.167 118.298 117.771 118.435 117.028 118.406C114.763 118.337 112.497 118.523 110.231 118.591C109.167 118.621 107.926 118.494 106.881 118.689C105.993 118.865 106.12 119.841 106.295 120.544C106.588 121.726 107.008 122.869 107.106 124.09C107.194 125.154 107.37 126.326 108.18 127.107C108.776 127.674 109.606 127.918 110.407 128.045C111.794 128.27 113.239 128.689 114.655 128.523C115.564 128.416 116.472 128.006 116.98 127.254C117.37 126.668 117.478 125.945 117.693 125.281C117.946 124.48 118.357 123.728 118.894 123.084C119.324 122.566 119.851 122.097 120.144 121.482C120.505 120.74 120.515 119.499 119.9 118.855C119.87 118.816 119.831 118.787 119.792 118.757V118.767Z" fill="#595757"/>
<path d="M41.6236 138.837C41.4673 138.758 41.2818 138.68 41.0767 138.592C39.9438 138.114 38.7816 137.684 37.6096 137.303C35.8713 136.747 34.0743 136.297 32.248 136.317C30.9003 136.336 29.5232 136.62 28.3317 137.264C27.5602 137.684 26.105 137.928 25.7535 138.827C25.2944 139.989 25.5093 141.6 25.5777 142.811C25.607 143.3 25.6265 143.729 25.6167 144.052C25.6167 144.384 25.5874 145.097 25.5581 145.439C25.4605 146.806 25.607 147.685 26.9645 148.193C27.57 148.417 28.2145 148.476 28.8591 148.525C30.3826 148.642 31.9159 148.759 33.4492 148.837C34.0547 148.866 34.6505 148.788 35.2462 148.857C35.9885 148.945 36.7112 149.062 37.4632 149.023C38.4105 148.974 39.3676 148.7 40.0903 148.085C40.7055 147.558 41.106 146.825 41.4282 146.083C42.1705 144.384 42.5709 142.548 42.6197 140.692C42.649 139.55 42.4146 139.208 41.6333 138.827L41.6236 138.837Z" fill="#595757"/>
<path d="M24.4544 138.846C24.4349 138.719 24.4154 138.602 24.3665 138.475C24.1419 137.84 23.5169 137.42 22.8723 137.245C22.2277 137.069 21.5343 137.108 20.8702 137.157C19.1123 137.264 17.3544 137.372 15.5965 137.479C14.7468 137.528 12.8326 137.391 12.5299 138.456C12.3052 139.266 12.5592 140.145 12.6275 140.966C12.7643 142.489 12.901 144.394 13.0279 145.917C13.0865 146.552 13.1647 147.255 13.6042 147.685C14.0632 148.134 14.7468 148.124 15.3718 148.085C17.2372 147.978 19.1514 147.714 21.0167 147.743C21.1144 147.743 21.2218 147.743 21.3195 147.743C22.0422 147.773 23.5462 148.212 23.9563 147.392C24.1321 147.04 24.1224 146.63 24.1028 146.239C24.054 145.214 24.1224 144.091 23.9563 143.075C23.8099 142.186 23.7317 141.639 24.0638 140.751C24.2884 140.136 24.5423 139.471 24.4642 138.846H24.4544Z" fill="#595757"/>
<path d="M52.2003 143.202C52.4835 142.567 52.8449 141.942 53.0207 141.259C53.089 140.985 53.1476 140.702 53.0597 140.438C52.9523 140.116 52.6691 139.891 52.3956 139.686C51.8194 139.257 51.1944 138.592 50.5694 138.27C49.9346 137.938 49.0654 138.153 48.3622 138.085C47.6102 138.016 46.8582 137.938 46.1062 137.87C45.6667 137.831 45.2077 137.792 44.8073 137.958C43.6842 138.426 43.9479 140.048 44.026 141.014C44.1432 142.479 43.5572 144.257 43.0689 145.634C43.0201 145.761 42.981 145.888 42.9322 146.025C42.6196 146.884 42.2681 147.861 42.6001 148.368C42.7759 148.642 43.1666 148.788 43.7428 148.808C45.6374 148.866 47.5028 148.847 49.3583 149.179C50.9307 149.452 51.3897 148.281 51.6436 146.737C51.7901 145.849 51.6925 144.814 51.9269 143.964C51.9952 143.71 52.0929 143.456 52.2003 143.212V143.202Z" fill="#595757"/>
<path d="M135.164 134.11C135.047 133.084 134.871 132.069 134.646 131.063C134.48 130.35 134.441 129.803 133.68 129.695C132.869 129.588 132.107 129.94 131.306 129.901C130.554 129.861 129.802 129.764 129.06 129.686C128.757 129.656 128.435 129.627 128.152 129.754C127.371 130.096 127.556 131.278 127.605 131.971C127.683 133.035 127.273 134.325 126.931 135.321C126.902 135.409 126.863 135.506 126.834 135.604C126.619 136.229 126.375 136.932 126.599 137.303C126.726 137.499 126.99 137.606 127.4 137.626C128.338 137.655 129.285 137.655 130.213 137.743C131.56 137.87 132.928 137.85 134.285 137.87C134.588 137.87 134.92 137.87 135.135 137.635C135.34 137.42 135.35 137.088 135.34 136.795C135.32 135.907 135.262 135.008 135.164 134.12V134.11Z" fill="#595757"/>
<path d="M83.081 138.895C80.6981 139.051 78.3249 139.217 75.9419 139.374C74.7211 139.452 73.598 139.491 72.4163 139.852C71.2346 140.204 70.0627 140.585 68.8907 140.966C68.295 141.171 67.6211 141.405 67.1816 141.884C66.6835 142.431 66.8886 142.997 66.9082 143.681C66.957 145.126 66.7226 146.425 66.5273 147.861C66.4785 148.261 66.4394 148.72 66.7128 149.023C66.9375 149.277 67.3086 149.326 67.6406 149.365C68.627 149.472 69.6036 149.619 70.5803 149.589C71.5276 149.56 72.4749 149.521 73.4222 149.521C76.6451 149.55 79.8679 149.335 83.0615 148.867C86.2844 148.398 85.8156 145.702 85.9328 143.095C85.9523 142.724 86.0011 142.313 86.05 141.874C86.1281 141.259 86.5871 139.969 86.2648 139.393C85.8546 138.661 84.4092 138.807 83.7256 138.856L83.0713 138.905L83.081 138.895Z" fill="#595757"/>
<path d="M131.453 148.32C132.156 148.32 132.791 148.095 133.494 148.085C134.373 148.075 135.262 148.066 136.141 148.056C136.463 148.056 136.824 148.027 137.049 147.792C137.391 147.411 137.147 146.816 136.912 146.366C136.063 144.765 135.428 143.046 135.027 141.278C134.891 140.682 134.949 139.725 134.363 139.383C133.777 139.042 132.898 139.208 132.264 139.227C131.668 139.247 130.906 139.139 130.359 139.393C129.265 139.882 128.884 141.307 128.904 142.421C128.924 143.358 128.982 144.315 129.041 145.243C129.06 145.517 129.08 146.083 129.09 146.357C129.119 146.874 129.129 147.87 129.558 148.251C129.988 148.632 130.926 148.368 131.453 148.329V148.32Z" fill="#595757"/>
<path d="M79.4969 129.627C79.5848 129.422 79.6922 129.256 79.8289 129.129C81.0009 128.074 83.2471 128.172 84.7218 128.143C85.5324 128.123 86.3332 128.113 87.1243 128.094L88.3646 128.074H88.6478C89.5268 128.064 90.3374 128.094 90.7573 128.621C91.0015 128.924 91.1089 129.363 91.0894 129.979C91.0601 131.151 90.9526 132.342 90.8452 133.494C90.7769 134.246 90.9234 135.448 90.435 136.073C90.2007 136.366 89.8588 136.561 89.517 136.708C88.0228 137.342 86.2649 137.088 84.673 137.303C82.6709 137.567 80.6493 137.743 78.6374 137.967C78.0319 138.036 77.319 138.055 76.9479 137.567C75.8541 136.131 78.3249 133.67 78.823 132.498C79.1258 131.785 79.1453 130.438 79.4969 129.617V129.627Z" fill="#595757"/>
<path d="M34.7188 128.113C33.9473 126.775 30.6658 126.433 29.4743 126.375C26.2808 126.228 23.0872 126.189 19.9132 125.974C18.3408 125.867 16.7685 125.779 15.1863 125.721C14.5906 125.701 13.5261 125.467 12.7545 125.721C12.2955 125.867 11.944 126.189 11.8756 126.824C11.8072 127.361 11.7975 127.918 11.817 128.455C11.8561 129.568 12.0221 130.672 12.2662 131.737C12.5202 132.84 13.1257 134.666 13.8288 135.614C14.1999 136.112 15.1375 135.916 15.6161 135.877C16.4852 135.809 17.3349 135.75 18.2041 135.76C20.3429 135.799 22.4719 135.829 24.6107 135.868C25.1967 135.877 25.8022 135.809 26.3784 135.868C27.1109 135.946 27.8434 136.004 28.5661 135.897C29.4548 135.77 30.3533 135.379 30.9881 134.608C31.4178 134.09 31.7108 133.436 32.0721 132.85C32.8827 131.551 34.7188 130.477 34.875 128.836C34.8946 128.572 34.836 128.328 34.7188 128.123V128.113Z" fill="#595757"/>
<path d="M54.4561 127.371C53.7139 127.371 52.9619 127.371 52.2099 127.42C51.3993 127.459 50.5008 127.557 49.9441 128.143C49.407 128.699 49.3191 129.539 49.2702 130.311C49.1433 132.108 49.0358 134.041 49.9929 135.575C50.7156 136.747 51.9364 137.469 53.1474 138.046C53.7334 138.319 54.2022 138.758 54.7784 139.003C55.4132 139.276 56.175 139.237 56.8488 139.208C58.0012 139.159 59.1634 139.11 60.3158 139.071C61.3413 139.032 62.396 138.983 63.3141 138.514C64.1832 138.075 64.8278 137.303 65.4138 136.532C66.0388 135.692 66.6248 134.823 67.0252 133.856C67.4256 132.889 67.6307 131.824 67.494 130.789C67.3963 130.106 67.1327 129.412 66.6053 128.963C66.0291 128.475 65.238 128.348 64.486 128.25C61.1167 127.83 57.845 127.391 54.4756 127.361L54.4561 127.371Z" fill="#595757"/>
<path d="M62.6599 140.331C61.4782 140.38 60.3063 140.428 59.1246 140.477C58.2358 140.516 57.3862 140.311 56.5365 140.595C55.7357 140.858 54.9837 141.288 54.3586 141.825C54.0461 142.099 53.5481 142.489 53.4211 142.89C53.2746 143.358 53.4992 144.11 53.4895 144.608C53.4699 145.556 53.4406 146.513 53.4211 147.46C53.4113 147.909 53.4211 148.398 53.7238 148.73C54.0461 149.072 54.5735 149.13 55.0618 149.15C56.3998 149.228 57.7475 149.306 59.0855 149.394C60.0035 149.452 60.7946 149.247 61.6833 149.15C62.572 149.052 63.4705 148.876 64.1737 148.329C64.7304 147.9 65.1015 147.284 65.3261 146.63C65.8242 145.194 65.5703 143.534 65.5703 142.04C65.5703 141.493 65.5312 140.868 65.0917 140.526C64.7304 140.243 64.2225 140.253 63.7538 140.272C63.3924 140.292 63.0408 140.302 62.6795 140.321L62.6599 140.331Z" fill="#595757"/>
<path d="M67.2303 135.565C66.3709 136.249 66.3123 137.167 66.0974 138.182C65.9802 138.758 66.0974 139.481 66.6248 139.706C66.8983 139.813 67.2108 139.755 67.5038 139.706C68.9003 139.423 70.2969 139.13 71.6837 138.837C72.3771 138.69 73.0803 138.544 73.7639 138.378C75.307 138.006 75.5609 135.907 74.4183 134.92C73.8225 134.403 72.9436 134.393 72.1623 134.452C70.7364 134.559 68.3827 134.657 67.2206 135.584L67.2303 135.565Z" fill="#595757"/>
<path d="M41.2037 119.509C40.7154 119.519 40.227 119.529 39.7387 119.539C39.4653 119.539 39.1821 119.548 38.9379 119.665C38.4105 119.919 38.2152 120.603 38.3324 121.169C38.4496 121.736 38.8305 122.224 39.1821 122.683C39.4946 123.093 39.768 123.377 39.8755 123.865C40.0024 124.402 40.061 124.939 40.4224 125.389C40.5493 125.545 40.7056 125.691 40.8911 125.779C41.3697 126.023 41.9654 125.916 42.4049 125.613C42.8444 125.31 43.1178 124.812 43.2741 124.304C43.6745 123.015 44.0261 121.375 43.5378 120.066C43.3034 119.451 42.776 119.46 42.2193 119.48C41.8775 119.48 41.5357 119.499 41.1939 119.499L41.2037 119.509Z" fill="#595757"/>
<path d="M147.528 134.657C147.362 133.67 147.011 132.684 146.815 131.776C146.708 131.248 146.63 130.623 146.073 130.33C145.761 130.164 145.38 130.164 145.018 130.174C143.378 130.193 141.747 130.203 140.106 130.223C138.631 130.242 136.248 129.93 135.994 131.883C135.936 132.313 136.004 132.752 136.072 133.192C136.209 134.061 136.346 134.93 136.492 135.799C136.561 136.229 136.649 136.698 136.991 137.001C137.274 137.245 137.674 137.323 138.055 137.381C140.116 137.713 142.176 138.046 144.237 138.378C144.804 138.465 145.389 138.553 145.927 138.397C146.796 138.153 147.362 137.323 147.538 136.473C147.655 135.887 147.616 135.282 147.519 134.666L147.528 134.657Z" fill="#595757"/>
<path d="M38.8208 127.85C38.2738 127.918 37.7269 128.045 37.2191 128.318C36.0276 128.963 35.051 130.193 34.4455 131.395C33.9083 132.44 33.0196 133.768 33.7423 134.93C33.9376 135.243 35.2366 135.526 35.6077 135.584C36.2718 135.702 36.9456 135.829 37.6195 135.858C38.7133 135.897 39.8267 135.79 40.8717 136.102C41.7995 136.385 42.6296 136.991 43.5964 137.137C44.7098 137.313 45.8231 136.864 46.8584 136.424C47.2685 136.249 47.6885 136.073 48.0108 135.76C48.5967 135.204 48.4796 134.373 48.4014 133.641C48.2842 132.537 48.1768 131.434 48.0596 130.33C47.9619 129.354 48.3721 128.084 47.4541 127.361C46.8974 126.922 46.1161 127.01 45.413 127.127C43.8601 127.371 42.2975 127.488 40.7447 127.684C40.1099 127.762 39.4556 127.771 38.8305 127.85H38.8208Z" fill="#595757"/>
<path d="M21.8762 119.294C21.593 118.982 21.2219 119.05 20.8019 119.031C20.216 119.011 19.63 118.992 19.044 118.962C17.8721 118.923 16.7099 118.874 15.5379 118.835C14.698 118.806 13.8581 118.679 13.0671 119.031C12.3932 119.324 12.2174 120.125 12.1002 120.847C12.0416 121.189 12.0514 121.57 11.9635 121.902C11.817 122.488 11.6803 123.552 12.2565 123.953C12.7057 124.265 13.2917 124.099 13.8191 124.099C14.4441 124.099 15.0789 124.119 15.704 124.158C16.915 124.236 18.1162 124.344 19.3272 124.441C20.3039 124.519 21.1828 124.851 21.5442 123.758C21.9055 122.654 22.7942 120.3 21.8762 119.294Z" fill="#333333"/>
<path d="M37.4729 121.834C37.4143 121.707 37.3557 121.57 37.2971 121.443C37.1017 121.023 36.8771 120.212 36.5451 119.91C36.2325 119.626 35.7735 119.714 35.3438 119.705C33.0488 119.626 30.7537 119.548 28.4586 119.47C27.648 119.441 26.8374 119.412 26.0268 119.382C25.6264 119.373 25.2162 119.353 24.8158 119.343C24.4545 119.333 24.0931 119.206 23.7416 119.246C23.4876 119.275 23.2239 119.412 23.1263 119.656C23.0481 119.841 23.0774 120.056 23.1165 120.261C23.2825 121.296 23.4486 122.341 23.6048 123.377C23.6341 123.582 23.6732 123.787 23.7904 123.963C24.1029 124.412 24.6596 124.275 25.0991 124.392C25.6753 124.549 26.2808 124.558 26.8765 124.607C28.361 124.724 29.865 124.93 31.3494 124.959C32.6581 124.988 33.6933 125.789 34.8457 126.424C35.0997 126.57 35.3634 126.707 35.6466 126.766C36.2716 126.902 36.8967 126.619 37.4826 126.346C37.8049 126.199 38.137 126.043 38.3811 125.779C39.2405 124.9 37.883 122.752 37.4729 121.834Z" fill="#333333"/>
<path d="M21.2805 76.3425C20.5675 76.4793 19.9816 76.8113 19.5811 77.2899C19.044 77.9344 18.9659 78.745 18.8877 79.5947C18.8487 80.0049 18.8194 80.4151 18.7998 80.8252C18.7998 81.0108 18.7705 81.1866 18.751 81.3526C18.7315 81.4991 18.7608 81.6554 18.9073 81.7433C19.2393 81.9484 19.5421 81.5382 19.7374 81.3233C20.0499 80.9913 20.3429 80.6494 20.6261 80.3076C20.6652 80.2588 20.6945 80.2295 20.714 80.2002C21.2121 79.624 21.6906 78.6962 21.9739 77.7879C22.0813 77.4266 22.2278 77.0359 22.1106 76.6746C21.9836 76.2937 21.632 76.2742 21.2805 76.3425Z" fill="#2F2725"/>
<path d="M45.3152 85.6986C45.5788 85.7474 45.8621 85.5423 45.9304 85.2786C46.2332 84.1946 44.6804 83.8918 44.7683 84.9466C44.7683 85.0149 44.7878 85.0931 44.8073 85.181C44.8757 85.4251 45.0612 85.6595 45.3152 85.7083V85.6986Z" fill="#2F2725"/>
<path d="M40.9691 85.4837C40.5101 85.5912 40.4612 86.1185 40.598 86.4994C40.6859 86.7533 40.9789 86.9682 41.2328 86.8803C41.5746 86.7631 41.7309 86.3236 41.6625 85.9623C41.6039 85.64 41.3793 85.3861 40.9593 85.4837H40.9691Z" fill="#2F2725"/>
<path d="M55.9604 93.1502C55.8627 93.0819 55.7553 93.0232 55.6478 92.9549C54.5638 92.2712 53.3039 91.9587 52.0343 91.8904C51.1065 91.8415 50.1885 91.9197 49.2705 92.0173C49.0361 92.0466 48.3525 92.2615 48.1376 92.1443C47.8153 91.9783 47.8935 91.4118 48.0106 91.1384C48.1669 90.777 48.4697 90.4938 48.7333 90.2106C50.1983 88.6285 50.9796 86.4506 50.8624 84.302C50.794 83.0226 50.4034 81.7237 49.8174 80.5909C49.251 79.5068 48.1474 78.9208 47.2977 78.1102C46.4383 77.2899 45.8132 75.6491 44.5925 75.2292C43.6842 74.9167 42.5025 75.0339 41.5649 75.1608C40.5395 75.2976 39.5336 75.5905 38.596 76.03C37.0822 76.7234 35.7736 77.9833 35.5099 79.751C35.4318 80.2588 35.6954 80.8838 35.7247 81.3624C35.7638 81.88 35.5294 82.5148 35.4513 83.0324C35.3732 83.5891 35.3243 84.1458 35.3732 84.7122C35.6564 87.8081 37.7268 91.8611 41.0962 92.4373C41.2915 92.4666 41.4868 92.4959 41.6528 92.5935C41.8189 92.6912 41.9458 92.9061 41.8775 93.0916C41.7798 93.3553 41.4282 93.3748 41.1548 93.3455C39.2796 93.16 37.3557 92.9744 35.6368 92.2127C34.1524 91.5583 32.873 90.5036 31.6522 89.4293C30.2068 88.1597 28.8103 86.8412 27.4528 85.474C26.8961 84.9173 26.564 84.3118 26.0855 83.7063C25.7046 83.2375 25.4409 82.8078 24.767 82.8566C24.5327 82.8761 24.2983 82.9347 24.0736 83.0129C23.5756 81.88 23.4974 80.5518 23.8588 79.3701C23.9662 79.0087 24.4545 77.6024 24.5619 77.2508C24.767 76.5183 24.9917 75.7859 24.9331 75.0241C24.9135 74.7116 24.8452 74.3893 24.7084 74.0963C24.5424 73.7643 24.308 73.5494 23.9857 73.442C21.5637 72.6509 18.8682 73.9987 17.4521 75.737C17.081 76.1863 16.8955 76.782 16.7392 77.3289C16.5244 78.1102 16.3974 78.9111 16.2997 79.7119C16.0946 81.4112 16.036 83.1398 16.1532 84.8489C16.1923 85.3958 16.3583 85.9232 16.8564 86.2357C17.6865 86.7729 18.4776 85.972 19.0538 85.4544C19.5714 84.9856 19.6593 84.3899 20.4308 84.3997C20.5969 84.3997 20.8801 84.7122 21.1828 85.1224C21.1145 85.2396 21.0559 85.3665 21.0168 85.5033C21.007 85.5521 20.9875 85.5912 20.9777 85.64C20.7629 86.6068 21.3977 87.5444 22.0032 88.3355C23.6537 90.5036 25.3139 92.6717 27.2477 94.5956C29.1814 96.5196 31.3983 98.1993 33.9278 99.2053C35.129 99.6838 36.0666 100.114 36.9748 101.041C37.8538 101.94 38.3421 103.004 38.9281 104.108C39.1136 104.469 39.3675 104.87 39.768 104.919C40.1098 104.958 40.4321 104.723 40.5981 104.42C40.7641 104.118 40.8227 103.776 40.8911 103.434C41.5063 100.592 43.2447 98.5216 45.8132 97.1641C48.3915 95.8164 51.7902 95.0449 54.6517 94.537C55.0912 94.4589 55.5892 94.4003 55.9701 94.1366C56.3022 93.912 56.3022 93.3651 55.9506 93.1307L55.9604 93.1502ZM21.3293 81.3135C21.3293 81.3135 21.261 81.3917 21.2024 81.46C20.7043 82.046 20.2062 82.632 19.6691 83.1887C19.298 83.5695 18.7706 84.0774 18.2041 83.9504C18.1358 83.9309 18.0674 83.9114 17.9991 83.8723C17.4033 83.5793 17.4717 82.8468 17.4912 82.2999C17.5107 81.5284 17.5596 80.7471 17.6377 79.9756C17.7549 78.7255 17.8721 77.4266 18.7706 76.3621C19.4249 75.571 20.3918 75.0339 21.5442 74.8093C22.638 74.5944 23.2923 74.7018 23.5072 75.112C23.5658 75.239 23.5853 75.3562 23.5853 75.4636C23.6342 76.2937 23.4291 77.075 23.2533 77.6708C22.8333 79.038 22.1009 80.4248 21.3391 81.3135H21.3293ZM37.219 80.2588C36.9944 79.5263 37.3557 78.5009 37.9221 78.0907C37.9807 78.0516 38.0491 78.0028 38.1077 77.9637C38.9867 77.368 40.0219 76.948 41.0864 76.743C42.0044 76.5574 43.3326 76.3425 44.2311 76.6648C44.9636 76.9285 45.3152 78.2079 45.3249 78.8818C45.3347 80.2588 43.1861 80.9815 42.0923 81.3526C41.1059 81.6944 39.973 82.0265 38.9281 81.9288C38.0979 81.8507 37.4729 81.0401 37.2385 80.249L37.219 80.2588ZM38.4593 86.8412C38.264 86.2064 38.1858 85.4837 38.0686 84.8489C37.9514 84.2044 38.1858 83.6477 38.8304 83.3547C39.4066 83.091 40.0609 83.1203 40.6957 83.0812C41.9556 83.0031 43.1959 82.6125 44.28 81.9581C44.7585 81.6651 45.2273 81.3233 45.7742 81.2159C47.0438 80.962 47.5712 82.5929 47.8739 83.5598C48.4306 85.2982 48.704 87.8862 47.3661 89.3121C44.2897 92.574 39.6703 90.8454 38.4593 86.8412Z" fill="#2F2725"/>
<path d="M45.3639 87.9448C45.0904 88.1011 44.7974 88.228 44.4947 88.3257C44.0943 88.4624 43.6841 88.5406 43.2641 88.5992C43.0688 88.6187 42.8637 88.6382 42.6684 88.648C42.5414 88.648 42.434 88.687 42.3852 88.7456C42.3266 88.814 42.3559 88.9214 42.5121 89.0191C42.7856 89.1949 43.0395 89.3219 43.3618 89.3609C43.6548 89.4 43.9478 89.4 44.2408 89.3609C44.9928 89.234 45.8522 88.814 46.0377 88.0132C46.067 87.8765 46.1354 87.7397 46.0768 87.6616C45.9303 87.4663 45.5006 87.8765 45.3541 87.9546L45.3639 87.9448Z" fill="#2F2725"/>
</g>
<defs>
<clipPath id="clip0_145_5104">
<rect width="160" height="160" fill="white"/>
</clipPath>
</defs>
</svg>
