<?xml version="1.0" encoding="UTF-8"?>
<svg id="_레이어_1" data-name="레이어_1" xmlns="http://www.w3.org/2000/svg" version="1.1" viewBox="0 0 160 160">
  <!-- Generator: Adobe Illustrator 29.6.1, SVG Export Plug-In . SVG Version: 2.1.1 Build 9)  -->
  <defs>
    <style>
      .st0 {
        fill: #2e2624;
      }

      .st1 {
        fill: #fff;
      }

      .st2 {
        fill: #ee8055;
      }

      .st3 {
        fill: #7ba6ca;
      }

      .st4 {
        fill: #595757;
      }

      .st5 {
        fill: #333;
      }
    </style>
  </defs>
  <rect class="st1" x="0" width="160" height="160"/>
  <g>
    <path class="st2" d="M139.4,102.2c-.1-.5-.3-1-.4-1.6-.3-.8-.6-1.6-1.1-2.4-.2-.3-.5-.7-.7-1s-.4-.6-.7-.7c-.3,0-.4.4-.4.6-1.1,3.7-10.8,6-16.2,6s-.4,0-.6,0c-.3,0-.8-.6-.8-.9,0-.3.3-.5.6-.5,5.3.2,14.9-2.2,15.8-5.2.1-.5,0-1-.3-1.4s-.8-.4-1.3-.5c-.8-.1-1.6-.1-2.4,0s-1.7,0-2.5,0c-2.2.1-4.3.4-6.4.9s-4.1,1.1-5.9,2.3c-1.5.9-2.8,2.3-3.2,4.1s.6,4.5,1.8,6.3c.8,1.2,1.7,1.5,3.1,1.5,5.5,0,11.1,0,16.6.1.8,0,2.2.2,3,0s1.2-1.3,1.5-1.8c1-1.7,1.2-3.7.8-5.7Z"/>
    <path class="st2" d="M63.6,100c0-.2-.2-.4-.3-.6s-.2-.4-.3-.6c-.3-.2-.5.1-.6.3-.1.2-.3.3-.5.5-1.6,1.4-4,2-6.1,2.5-3.1.7-6.4.9-8.7.7-.3,0-.5-.3-.5-.5,0-.3.3-.8.6-.8,4.7.4,13.6-1.2,14.6-3.7.2-.5-.4-.9-.7-1.1-.1-.1-.3-.1-.4-.2-3.8-1.8-14.4,1-16.9,4.3-.6.9-.9,2-.9,3s0,2.5.9,2.9.8.1,1.2.1c3.8,0,7.6-.1,11.4-.2,1.9,0,3.8,0,5.7,0s.7,0,1-.2.4-.6.5-.9c.3-.6.4-1.3.5-2.1,0-1.2-.1-2.4-.5-3.5Z"/>
    <path class="st4" d="M160,160H0V0h160v160ZM1.5,158.5h156.9V1.5H1.5v156.9Z"/>
    <g>
      <polygon class="st4" points="19.2 16 17.1 16 17.1 47.1 19.2 47.1 23 47.1 38 47.1 38 41.5 23 41.5 23 34.5 35.6 34.5 35.6 28.8 23 28.8 23 21.6 38 21.6 38 16 23 16 19.2 16"/>
      <path class="st4" d="M60.4,33.4c1.3-.8,2.3-1.9,3-3.3.7-1.4,1.1-3,1.1-4.9s-.4-3.5-1.1-4.9c-.7-1.4-1.7-2.5-3-3.3-1.3-.8-2.8-1.2-4.5-1.2h-13.6v31.1h5.9v-12.5h3.6l7,12.5h7.1l-7.4-12.8c.7-.2,1.4-.5,2-.9ZM48.1,21.6h7.3c.9,0,1.7.3,2.2,1,.5.7.8,1.6.8,2.7,0,1.1-.3,2-.8,2.7-.5.7-1.3,1-2.2,1h-7.3v-7.3Z"/>
      <path class="st4" d="M78.6,16l-11.9,31.1h6.3l1.7-5h11.4l1.7,5h6.3l-11.9-31.1h-3.7ZM76.8,36.5l3.7-10.6,3.7,10.6h-7.4Z"/>
      <polygon class="st4" points="113.8 28.9 102.6 28.9 102.6 16 96.8 16 96.8 47.1 102.6 47.1 102.6 34.5 113.8 34.5 113.8 47.1 119.7 47.1 119.7 16 113.8 16 113.8 28.9"/>
      <path class="st4" d="M145.3,33.7c-.6-1.1-1.4-2-2.4-2.6-1-.6-2.1-1.1-3.3-1.4-1.2-.3-2.4-.6-3.6-.8-1.1-.2-2.1-.4-3-.7-.9-.2-1.7-.6-2.3-1.1-.6-.5-.9-1.3-.9-2.3h0c0-1.1.5-1.9,1.5-2.5,1-.6,2.4-.9,4.2-.9s2.5.2,3.8.7c1.3.4,2.6,1.1,3.8,1.9l2.5-5c-1.5-1-3.1-1.8-4.9-2.4-1.7-.6-3.5-.8-5.1-.8-3.7,0-6.5.8-8.5,2.5-2,1.7-3,4-3,7.1h0c0,1.9.3,3.4,1,4.5.6,1.1,1.5,2,2.5,2.6,1,.6,2.2,1,3.4,1.3,1.2.3,2.5.5,3.7.7,1,.2,2,.3,2.8.6.9.2,1.6.6,2.1,1.1.5.5.8,1.2.8,2.1h0c0,1.2-.5,2.1-1.6,2.8-1.1.6-2.5,1-4.5,1s-3.3-.3-4.8-.8c-1.6-.5-3-1.3-4.2-2.3l-2.7,4.8c1,.8,2.1,1.5,3.4,2.1,1.2.6,2.6,1,4,1.3,1.4.3,2.9.4,4.4.4,3.8,0,6.7-.8,8.8-2.5,2.1-1.6,3.1-4,3.1-7h0c0-1.8-.3-3.2-.9-4.3Z"/>
    </g>
    <g>
      <path class="st4" d="M116.2,61.9c0,.5,0,.8-.3,1.1-.2.2-.5.4-.8.4s-.5,0-.7-.2c-.2-.1-.4-.3-.6-.5h0s-1.6,1.2-1.6,1.2h0s0,0,0,0c.3.5.7.8,1.2,1.1.5.2,1.1.4,1.7.4,1.1,0,1.9-.3,2.5-.9.6-.6.9-1.5.9-2.5v-7.1h-2.1v7.1Z"/>
      <polygon class="st4" points="120.5 65.3 127.5 65.3 127.5 63.3 122.6 63.3 122.6 61.1 126.8 61.1 126.8 59.1 122.6 59.1 122.6 56.8 127.5 56.8 127.5 54.8 120.5 54.8 120.5 65.3"/>
      <path class="st4" d="M132.3,61.9c0,.5,0,.8-.3,1.1-.2.2-.5.4-.8.4s-.5,0-.7-.2c-.2-.1-.4-.3-.6-.5h0s-1.6,1.2-1.6,1.2h0s0,0,0,0c.3.5.7.8,1.2,1.1.5.2,1.1.4,1.7.4,1.1,0,1.9-.3,2.5-.9.6-.6.9-1.5.9-2.5v-7.1h-2.1v7.1Z"/>
      <path class="st4" d="M142.1,54.8v6.7c0,.6-.2,1-.5,1.3-.3.3-.8.5-1.3.5s-1-.2-1.3-.5c-.3-.3-.5-.8-.5-1.3v-6.7h-2.1v6.7c0,1.2.3,2.2,1,2.9.7.7,1.6,1,2.8,1s2.2-.3,2.8-1,1-1.6,1-2.9v-6.7h-2.1Z"/>
    </g>
    <g>
      <polygon class="st4" points="64 56.1 67.3 56.1 67.3 64.9 68.1 64.9 68.1 56.1 71.4 56.1 71.4 55.3 64 55.3 64 56.1"/>
      <path class="st4" d="M77,58.2c-.4-.2-.8-.4-1.4-.4s-1,.1-1.3.3c-.4.2-.7.5-.9.9v-3.8h-.9v9.6h.9v-4.1c0-.4,0-.8.3-1.1.2-.3.4-.6.7-.8.3-.2.7-.3,1.1-.3.6,0,1.1.2,1.4.6.3.4.5.9.5,1.6v4.2h.8v-4.2c0-.6-.1-1.1-.3-1.5-.2-.4-.5-.8-.9-1Z"/>
      <path class="st4" d="M84,58.2c-.5-.2-1-.4-1.5-.4s-1,.1-1.5.4c-.5.2-.8.6-1.1,1.1-.3.5-.4,1.1-.4,1.7v.9c0,.7.1,1.2.4,1.7.3.5.7.8,1.1,1.1.5.2,1,.4,1.5.4s1.2-.2,1.8-.5c.5-.3.9-.8,1.1-1.4l-.8-.3c-.2.4-.4.8-.8,1-.4.2-.8.4-1.3.4s-.8,0-1.1-.3-.6-.5-.8-.8c-.2-.4-.3-.8-.3-1.3h0c0,0,5.2,0,5.2,0v-.6c0-.7-.1-1.3-.4-1.8s-.6-.9-1.1-1.1ZM80.3,61c0-.5,0-.9.3-1.3.2-.4.5-.6.8-.8s.7-.3,1.1-.3.8,0,1.1.3.6.5.8.8.3.8.3,1.3h-4.3Z"/>
      <path class="st4" d="M94.4,55.5c-.5-.3-1-.4-1.7-.4s-1.2.1-1.7.4c-.5.3-.9.6-1.2,1.1-.3.5-.4,1.1-.4,1.7s.1,1.2.4,1.7c.3.5.7.9,1.2,1.1.5.3,1,.4,1.6.4s1.2-.2,1.7-.5c.3-.2.6-.5.8-.8v.6c0,1.2-.2,2-.6,2.6-.4.6-1,.9-1.7.9s-1.1-.1-1.5-.4-.7-.7-1-1.3l-.7.4c.3.7.7,1.2,1.3,1.5.5.4,1.2.5,1.9.5s1.1-.1,1.6-.4c.5-.3.9-.8,1.1-1.4.3-.6.4-1.4.4-2.4v-2.4c0-.7-.1-1.3-.4-1.8-.3-.5-.7-.9-1.2-1.1ZM94.9,59.7c-.2.4-.5.6-.9.8s-.8.3-1.2.3-.9,0-1.2-.3-.7-.5-.9-.8-.3-.8-.3-1.3.1-.9.3-1.3c.2-.4.5-.7.9-.8.4-.2.8-.3,1.2-.3s.8,0,1.2.3c.4.2.7.5.9.8.2.4.3.8.3,1.3s-.1.9-.3,1.3Z"/>
      <path class="st4" d="M100.5,64.2c-.2,0-.3,0-.5,0-.3,0-.5,0-.6-.2-.1-.1-.2-.4-.2-.7v-4.6h1.9v-.8h-1.9v-2h-.8v2h-1.3v.8h1.3v4.7c0,.5.1.9.4,1.2.3.3.6.4,1.1.4s.5,0,.7,0c.2,0,.5-.2.7-.3l-.2-.7c-.2.1-.4.2-.5.2Z"/>
      <path class="st4" d="M107.7,59.2c-.2-.4-.5-.8-.9-1-.4-.2-.8-.4-1.4-.4s-1,.1-1.3.3c-.4.2-.7.5-.9.9v-3.8h-.9v9.6h.9v-4.1c0-.4,0-.8.3-1.1.2-.3.4-.6.7-.8.3-.2.7-.3,1.1-.3.6,0,1.1.2,1.4.6.3.4.5.9.5,1.6v4.2h.8v-4.2c0-.6-.1-1.1-.3-1.5Z"/>
    </g>
    <path class="st3" d="M13.3,116.7c-.7-.8-.2-1.4,0-2.2.5-2.2-1.6-2.9,6.6-3.8,14.2-1.6,37-2.4,52.4-2,10.4.3,20.2,1.4,30.3,2.1,11.1.8,22.3.9,33.5,1.3,2.2,0,4.4.1,6.6.2,1.4,0,2.9,0,4.3,0,.8,0,1.7.3,1.4,1s-1.6,1.1-2.3,1.7c-.8.7-1.9.5-3,.5-1.9,0-3.7.2-5.6.3-3.6.2-7.2.3-10.9.4-23.7.8-47.6,1.1-71.5,1.2-.3,0-.5,0-.8,0-7.2,0-14.5-.2-21.7-.3-4.3,0-8.5-.1-12.8-.2-1.5,0-3,0-4.5,0s-1.1.1-1.5,0c-.2,0-.3-.2-.5-.3Z"/>
    <g>
      <path class="st4" d="M132.6,126.7s0,0,0,.1c0,.9,0,1.6,1,1.8s2.3,0,3.4.1c2.3,0,4.6.2,6.9.2,1,0,2.6.4,3.1-1,.2-.5.2-1.1.3-1.7,0-2.1,0-4.5-.4-6.6-.2-1.6-1.7-1.3-2.6-1.3-1.2,0-2.5,0-3.7,0-1.8,0-3.6.2-5.4.2-.9,0-1.8,0-2.6,0-.7,0-1.7,0-2.1.8s0,1.8.3,2.4c.6,1.6,1.8,3.2,1.7,5Z"/>
      <path class="st4" d="M52.5,125.7c0,0-.1,0-.2,0h-4.3c-.2,0-.5.1-.7.1-.8,0-1.8.2-2.2-.3-.4-.5-.4-1.4-.4-2.1h0c0-.3,0-.5,0-.8,0-.9,0-2.4.6-2.8.9-.5,2.1-.3,3.2,0,.5,0,.9.2,1.3.2h2.7c.4.1.8.2,1.3.2.7,0,.8.2.9,1,.2.9.3,2.4.4,3.3,0,.2,0,.5,0,.8,0,.7-1.5.6-2.3.6-.2,0-.3,0-.4,0Z"/>
      <path class="st4" d="M73.5,127.3c1.2,0,2.5.1,3.7.2.8,0,1.2.3,2,0,.6-.2,1.1-.5,1.7-.7.5-.2,1.1-.5,1.4-1,.5-.8,0-1.9.2-2.7.2-.9.3-2,.2-3-.2-1.7-2.3-.9-3.3-.9-1.4,0-2.8.3-4.1.1-1-.1-1.4,0-1.9,1.2-.6,1.3-1.2,3.1-1.8,4.4-.2.5-.4,1-.3,1.5.2.6.7.8,1.2.8.3,0,.5,0,.8,0Z"/>
      <path class="st4" d="M117.1,137.4c1.2,0,2.5.1,3.7.2.6,0,1.1,0,1.7.1,1.1,0,2.4.4,3.1-1,.3-.7.4-1.5.5-2.3,0-.8.2-1.6.3-2.4,0-.4.1-1.3,0-1.7-.1-1.1-1.2-1.2-2.1-1s-1,0-1.5.2c-.8.1-1.3.1-2.1,0s-.8-.2-1.2-.3c-.6,0-1.5-.3-2,0-.5.3-.7,1.1-1,1.5-.3.5-.4,1.2-.5,1.7-.2.9-.3,1.9-.6,2.7-.2.5-.4,1-.3,1.5.2.6.7.8,1.2.8.3,0,.5,0,.8,0Z"/>
      <path class="st4" d="M87.5,127.1c1.6,0,3.2.1,4.8.2.7,0,1.5.1,2.2.1,1.4,0,3.1.4,4-1,.4-.7.5-1.5.7-2.3.3-1.9,1.4-5.2-1.4-5.5-3-.3-6.2,0-9.2.2-.9,0-2.4-.1-3.2.2-1.3.5-1.6,3.4-1.7,4.6-.1.9-.2,1.8.2,2.6.7,1.5,2.3.9,3.5.9Z"/>
      <path class="st4" d="M71,133.5c.3,0,.6,0,.8,0,1.3,0,2.6,0,3.9,0,.6,0,1.2,0,1.7-.5.4-.4.4-1,.5-1.5,0-1.2.6-2.7-.9-3.1-.6-.2-1.3,0-1.9,0-1.4,0-2.8,0-4.1.1-.6,0-1.1,0-1.7.3-.8.4-.8,1.2-.9,2s-.4,2,.2,2.5c.4.4,1.6.3,2.4.2Z"/>
      <path class="st4" d="M59.4,126.3c.2,0,.3,0,.5,0s.2,0,.3,0c1.7.1,3.5.3,5.2.4h1c1,.2,2.6.9,3.3-.3.3-.5.5-1.2.7-1.9.4-1.1,2.3-3.7,1.4-5-.4-.6-1.4-.5-2.1-.4-.2,0-.5,0-.7,0-1.4,0-2.9,0-4.3.1-1,0-2.1,0-3.1,0-.6,0-1.3,0-1.9,0-.3,0-.6,0-.9,0-.7,0-1.3,0-1.9,0-.2,0-.3.2-.4.3-.3.5-.3,2.1-.3,2.9,0,.3,0,.5,0,.7,0,.1,0,.3,0,.4,0,.3,0,.8,0,1,.4,1.5,1.9,1.4,3.1,1.4Z"/>
      <path class="st4" d="M103.8,136.2c-.2,0-.3,0-.5,0s-.2,0-.3,0c-1.7.1-3.5.3-5.2.4h-1c-1,.2-2.6.9-3.3-.3-.3-.5-.5-1.2-.7-1.9-.2-.7-.6-1.2-.7-2s-.1-1.8,0-2.7c0-.4.2-.8.5-1.1.3-.2.7-.2,1-.1,1.7.1,3.4.3,5,.4s3.2.4,4.7.4c.3,0,.6,0,.9,0,.7,0,1.3,0,1.9,0,.2,0,.3.2.4.3.3.5.3,2.1.3,2.9,0,.3,0,.5,0,.7,0,.1,0,.3,0,.4,0,.3,0,.8,0,1-.4,1.5-1.9,1.4-3.1,1.4Z"/>
      <path class="st4" d="M128.5,128.5c.4,0,.8,0,1.1-.2.2-.1.3-.3.5-.6.3-.4.6-.8.8-1.2.1-.2.2-.3.3-.5.2-.6-.2-1.2-.3-1.7-.4-1.7-1.7-3.2-2.3-4.9-.3-.9-.8-1.3-1.8-1.2-.2,0-.4,0-.5,0-.6,0-1.2,0-1.8,0-.5,0-1,0-1.6,0,0,0-.2,0-.2,0-.5,0-.7,0-1,.3,0,0-.1.1-.1.2-.5.7-.4,1.6-.5,2.4-.2.7-.3,1.5-.6,2.2-.3.7-.7,1.4-1,2-.2.3-.4.7-.5,1.1s0,.5,0,.7c.2.4.7.5,1.2.5,1.7.2,3.3.3,5,.3,1,0,2,0,2.9.2,0,0,.1,0,.2,0Z"/>
      <path class="st4" d="M101.7,127.3c1.2.1,2.5.2,3.7.3,1.4.1,1.1-1.1.7-2.4-.2-.7-.2-1.4-.4-2s-.5-1.4-.7-2.1c-.2-.5-.4-1.1-.7-1.5-.6-.7-1.6-.6-2.4-.6,0,0,0,0-.1,0-.3,0-.5,0-.6.3,0,0,0,.1,0,.2-.2.5-.3,1.4-.3,2,0,.2,0,.3,0,.5-.1.9-.2,1.9-.2,2.9,0,.2,0,.4,0,.6,0,.4-.1.8,0,1.1.2.6.9.7,1.4.7Z"/>
      <path class="st4" d="M108.8,136.5c0,0,.1,0,.2.1.6.3,1,.3,1.7.3.5,0,1.2,0,1.7.1.5.1.7.2,1-.2s.4-.7.5-1.1c.2-.5.2-1,.4-1.5.4-1,.6-2.1.7-3.2,0-.5.1-1.1-.3-1.5-.2-.2-.5-.2-.8-.2-.8,0-1.6,0-2.3,0s-1.3-.2-1.9-.2c-.5,0-1.1,0-1.4.4-.2.3-.3.7-.3,1.1,0,.9,0,1.8,0,2.7s-.2,1.8.3,2.5c.1.2.3.4.5.5Z"/>
      <path class="st4" d="M100.9,139.1c0,.6,0,1.2,0,1.5,0,.7-.1,1.5-.2,2.2-.1,1.4,1.1,1.1,2.4.7,1.3-.3,3.1-.5,4.5-.6.4,0,.8,0,1.1-.1.8-.2.9-1.1,1.2-1.7.5-1,1-1.8-.1-2.4s-1.4-1.1-2.2-1.5c-.8-.4-1.5,0-2.3,0-1,.2-2.1.3-3.1.4-.9,0-1.2.5-1.3,1.3Z"/>
      <path class="st4" d="M109.1,149.5c0,0,.2,0,.3-.1.4-.2.8-.5.8-.9,0-.3,0-.5-.2-.7-.3-.7-.6-1.3-.8-2-.2-.7-.3-1.4-1.3-1.5-2.2,0-4.3.5-6.5.5-.4,0-.8,0-1.2.1-.9.2-1,1.3-1.2,1.9s-.9,1.9,0,2.5c.7.5,2.3.3,3.1.3,2.2.1,4.9.8,7-.2Z"/>
      <path class="st4" d="M127.9,142.3c0-.8.2-1.7.3-2.5,0-.6.1-.8-.5-1-.5-.1-1,0-1.5,0-2.7.3-5.5.3-8.2,0-1.6-.2-5-1.3-6.1.5-.6,1-1,2.2-1.4,3.3-.2.5-.5,1.1-.6,1.7s.3,1.1.5,1.6c.4.8.7,1.6,1.1,2.3.2.3.3.7.6.9.7.6,2.3.2,3.1.2,3.3,0,6.6-.4,9.8-1,1.4-.3,2.7-.1,3-1.8.2-1.1,0-2.1,0-3.1s0-.8,0-1.1Z"/>
      <path class="st4" d="M139.3,138.9c-.7,0-1.4,0-2,.2-.6.3-1.1.9-1.2,1.6,0,.6.1,1.2.4,1.8.4,1.1.9,2.2,1.4,3.3.4.8.8,1.6,1.5,2.2.8.7,1.4.2,2.3.3.8,0,1.6,0,2.4,0,.6,0,1.1,0,1.7,0,.4,0,1.1.3,1.5,0,.5-.3.5-1.2.5-1.9,0-.2,0-.4,0-.5,0-.6,0-1.7,0-2.3,0-.3,0-.6,0-1,0-1.2-.4-2-1.7-2.2-1.8-.4-3.6-.9-5.4-1.4-.4-.1-.9-.2-1.3-.3Z"/>
      <path class="st4" d="M99.1,138.2c0,0-.2,0-.3,0-2.6-.5-5.1.4-7.7,0-.5,0-.9-.1-1.4-.1s-1,0-1.4.2c-.1,0-.3.1-.4.2-.5.5-.5,1.5-.5,2.4,0,.3,0,.6,0,.9,0,1,0,2.4-.1,3.3v1.5c0,.2-.1.3-.1.6-.2,1.4.5,2,1.7,2.1,1.9,0,3.8,0,5.7.2,1.8.2,2.5-1.4,3.1-3,.7-1.8,1.4-4,2-5.8.3-.7.5-1.6,0-2.2-.2-.2-.4-.3-.7-.3Z"/>
      <path class="st4" d="M119.8,118.8c-.6-.5-2-.3-2.8-.4-2.3,0-4.5.1-6.8.2-1.1,0-2.3-.1-3.4.1-.9.2-.8,1.2-.6,1.9.3,1.2.7,2.3.8,3.5,0,1.1.3,2.2,1.1,3,.6.6,1.4.8,2.2.9,1.4.2,2.8.6,4.2.5.9-.1,1.8-.5,2.3-1.3.4-.6.5-1.3.7-2,.3-.8.7-1.6,1.2-2.2.4-.5,1-1,1.3-1.6.4-.7.4-2-.2-2.6s0,0-.1,0Z"/>
      <path class="st4" d="M41.6,138.8c-.2,0-.3-.2-.5-.2-1.1-.5-2.3-.9-3.5-1.3-1.7-.6-3.5-1-5.4-1s-2.7.3-3.9.9-2.2.7-2.6,1.6c-.5,1.2-.2,2.8-.2,4,0,.5,0,.9,0,1.2,0,.3,0,1,0,1.4-.1,1.4,0,2.2,1.4,2.8.6.2,1.3.3,1.9.3,1.5.1,3.1.2,4.6.3.6,0,1.2,0,1.8,0s1.5.2,2.2.2,1.9-.3,2.6-.9c.6-.5,1-1.3,1.3-2,.7-1.7,1.1-3.5,1.2-5.4,0-1.1-.2-1.5-1-1.9Z"/>
      <path class="st4" d="M24.5,138.8c0-.1,0-.2,0-.4-.2-.6-.8-1.1-1.5-1.2s-1.3-.1-2,0c-1.8.1-3.5.2-5.3.3-.9,0-2.8,0-3.1,1-.2.8,0,1.7,0,2.5.1,1.5.3,3.4.4,4.9,0,.6.1,1.3.6,1.8.5.4,1.1.4,1.8.4,1.9-.1,3.8-.4,5.6-.3.1,0,.2,0,.3,0,.7,0,2.2.5,2.6-.3.2-.3.2-.8.1-1.1,0-1,0-2.1-.1-3.2s-.2-1.4.1-2.3c.2-.6.5-1.3.4-1.9Z"/>
      <path class="st4" d="M52.2,143.2c.3-.6.6-1.3.8-1.9,0-.3.1-.6,0-.8-.1-.3-.4-.5-.7-.8-.6-.4-1.2-1.1-1.8-1.4-.6-.3-1.5-.1-2.2-.2-.8,0-1.5-.1-2.3-.2-.4,0-.9,0-1.3,0-1.1.5-.9,2.1-.8,3.1.1,1.5-.5,3.2-1,4.6,0,.1,0,.3-.1.4-.3.9-.7,1.8-.3,2.3.2.3.6.4,1.1.4,1.9,0,3.8,0,5.6.4,1.6.3,2-.9,2.3-2.4.1-.9,0-1.9.3-2.8,0-.3.2-.5.3-.8Z"/>
      <path class="st4" d="M135.2,134.1c-.1-1-.3-2-.5-3.1s-.2-1.3-1-1.4-1.6.2-2.4.2c-.7,0-1.5-.1-2.2-.2-.3,0-.6,0-.9,0-.8.3-.6,1.5-.5,2.2,0,1.1-.3,2.4-.7,3.3,0,0,0,.2,0,.3-.2.6-.5,1.3-.2,1.7.1.2.4.3.8.3.9,0,1.9,0,2.8.1,1.3.1,2.7.1,4.1.1.3,0,.6,0,.8-.2.2-.2.2-.5.2-.8,0-.9,0-1.8-.2-2.7Z"/>
      <path class="st4" d="M83.1,138.9c-2.4.2-4.8.3-7.1.5-1.2,0-2.3.1-3.5.5-1.2.4-2.4.7-3.5,1.1-.6.2-1.3.4-1.7.9-.5.5-.3,1.1-.3,1.8,0,1.4-.2,2.7-.4,4.2,0,.4,0,.9.2,1.2.2.3.6.3.9.3,1,.1,2,.3,2.9.2.9,0,1.9,0,2.8,0,3.2,0,6.4-.2,9.6-.6,3.2-.5,2.8-3.2,2.9-5.8,0-.4,0-.8.1-1.2,0-.6.5-1.9.2-2.5s-1.9-.6-2.5-.5h-.7Z"/>
      <path class="st4" d="M131.5,148.3c.7,0,1.3-.2,2-.2s1.8,0,2.7,0c.3,0,.7,0,.9-.3.3-.4,0-1-.1-1.4-.9-1.6-1.5-3.3-1.9-5.1s0-1.6-.7-1.9c-.6-.3-1.5-.2-2.1-.2-.6,0-1.4,0-1.9.2-1.1.5-1.5,1.9-1.5,3,0,.9,0,1.9.1,2.8,0,.3,0,.8,0,1.1,0,.5,0,1.5.5,1.9s1.4.1,1.9,0Z"/>
      <path class="st4" d="M79.5,129.6c0-.2.2-.4.3-.5,1.2-1.1,3.4-1,4.9-1,.8,0,1.6,0,2.4,0h1.2c0,0,.2,0,.3,0,.9,0,1.7,0,2.1.6.2.3.4.7.3,1.4,0,1.2-.1,2.4-.2,3.5,0,.8,0,2-.4,2.6-.2.3-.6.5-.9.6-1.5.6-3.3.4-4.8.6s-4,.4-6,.7c-.6,0-1.3,0-1.7-.4-1.1-1.4,1.4-3.9,1.9-5.1.3-.7.3-2.1.7-2.9Z"/>
      <path class="st4" d="M34.7,128.1c-.8-1.3-4.1-1.7-5.2-1.7-3.2-.1-6.4-.2-9.6-.4-1.6-.1-3.1-.2-4.7-.3-.6,0-1.7-.3-2.4,0s-.8.5-.9,1.1c0,.5,0,1.1,0,1.6,0,1.1.2,2.2.4,3.3.2,1.1.9,2.9,1.6,3.9.4.5,1.3.3,1.8.3.9,0,1.7-.1,2.6-.1,2.1,0,4.3,0,6.4.1.6,0,1.2,0,1.8,0,.7,0,1.5.1,2.2,0,.9-.1,1.8-.5,2.4-1.3.4-.5.7-1.2,1.1-1.8.8-1.3,2.7-2.4,2.8-4s0-.5-.2-.7Z"/>
      <path class="st4" d="M54.5,127.4c-.7,0-1.5,0-2.2,0-.8,0-1.7.1-2.3.7-.5.6-.6,1.4-.7,2.2-.1,1.8-.2,3.7.7,5.3.7,1.2,1.9,1.9,3.2,2.5.6.3,1.1.7,1.6,1s1.4.2,2.1.2c1.2,0,2.3,0,3.5-.1,1,0,2.1,0,3-.6.9-.4,1.5-1.2,2.1-2,.6-.8,1.2-1.7,1.6-2.7s.6-2,.5-3.1c0-.7-.4-1.4-.9-1.8-.6-.5-1.4-.6-2.1-.7-3.4-.4-6.6-.9-10-.9Z"/>
      <path class="st4" d="M62.7,140.3c-1.2,0-2.4,0-3.5.1-.9,0-1.7-.2-2.6.1-.8.3-1.6.7-2.2,1.2-.3.3-.8.7-.9,1.1s0,1.2,0,1.7c0,1,0,1.9,0,2.9,0,.4,0,.9.3,1.3.3.3.9.4,1.3.4,1.3,0,2.7.2,4,.2.9,0,1.7-.1,2.6-.2s1.8-.3,2.5-.8c.6-.4.9-1,1.1-1.7.5-1.4.2-3.1.2-4.6,0-.5,0-1.2-.5-1.5-.4-.3-.9-.3-1.3-.3-.4,0-.7,0-1.1,0Z"/>
      <path class="st4" d="M67.2,135.6c-.9.7-.9,1.6-1.1,2.6s0,1.3.5,1.5c.3.1.6,0,.9,0,1.4-.3,2.8-.6,4.2-.9.7-.1,1.4-.3,2.1-.5,1.5-.4,1.8-2.5.7-3.5-.6-.5-1.5-.5-2.3-.5-1.4.1-3.8.2-4.9,1.1Z"/>
      <path class="st4" d="M41.2,119.5c-.5,0-1,0-1.5,0-.3,0-.6,0-.8.1-.5.2-.7.9-.6,1.5s.5,1.1.9,1.5c.3.4.6.7.7,1.2s.2,1.1.5,1.5c.1.2.3.3.5.4.5.2,1.1.1,1.5-.2s.7-.8.9-1.3c.4-1.3.8-2.9.3-4.2-.2-.6-.8-.6-1.3-.6s-.7,0-1,0Z"/>
      <path class="st4" d="M147.5,134.7c-.2-1-.5-2-.7-2.9-.1-.5-.2-1.2-.7-1.4-.3-.2-.7-.2-1.1-.2-1.6,0-3.3,0-4.9,0-1.5,0-3.9-.3-4.1,1.7,0,.4,0,.9,0,1.3.1.9.3,1.7.4,2.6,0,.4.2.9.5,1.2.3.2.7.3,1.1.4,2.1.3,4.1.7,6.2,1,.6,0,1.1.2,1.7,0,.9-.2,1.4-1.1,1.6-1.9.1-.6,0-1.2,0-1.8Z"/>
      <path class="st4" d="M38.8,127.9c-.6,0-1.1.2-1.6.5-1.2.6-2.2,1.9-2.8,3.1-.5,1-1.4,2.4-.7,3.5.2.3,1.5.6,1.9.7.7.1,1.3.2,2,.3,1.1,0,2.2,0,3.3.2.9.3,1.8.9,2.7,1,1.1.2,2.2-.3,3.3-.7.4-.2.8-.4,1.1-.7.6-.6.5-1.4.4-2.1-.1-1.1-.2-2.2-.3-3.3-.1-1,.3-2.2-.6-3-.6-.4-1.3-.3-2-.2-1.6.2-3.1.4-4.7.6-.6,0-1.3,0-1.9.2Z"/>
      <path class="st5" d="M21.9,119.3c-.3-.3-.7-.2-1.1-.3s-1.2,0-1.8,0c-1.2,0-2.3,0-3.5-.1-.8,0-1.7-.2-2.5.2-.7.3-.8,1.1-1,1.8,0,.3,0,.7-.1,1.1-.1.6-.3,1.7.3,2.1.5.3,1,.1,1.6.1s1.3,0,1.9,0c1.2,0,2.4.2,3.6.3,1,0,1.9.4,2.2-.7.4-1.1,1.2-3.5.3-4.5Z"/>
      <path class="st5" d="M37.5,121.8c0-.1-.1-.3-.2-.4-.2-.4-.4-1.2-.8-1.5s-.8-.2-1.2-.2c-2.3,0-4.6-.2-6.9-.2-.8,0-1.6,0-2.4,0s-.8,0-1.2,0-.7-.1-1.1,0-.5.2-.6.4c0,.2,0,.4,0,.6.2,1,.3,2.1.5,3.1,0,.2,0,.4.2.6.3.4.9.3,1.3.4s1.2.2,1.8.2c1.5.1,3,.3,4.5.3s2.3.8,3.5,1.5c.3.1.5.3.8.3.6.1,1.3-.1,1.8-.4.3-.2.7-.3.9-.6.9-.9-.5-3-.9-3.9Z"/>
    </g>
    <g>
      <path class="st0" d="M21.3,76.4c-.7.1-1.3.5-1.7.9-.5.6-.6,1.5-.7,2.3,0,.4,0,.8,0,1.2,0,.2,0,.4,0,.5,0,.2,0,.3.2.4.3.2.6-.2.8-.4.3-.3.6-.7.9-1,0,0,0,0,0-.1.5-.6,1-1.5,1.3-2.4.1-.4.3-.7.1-1.1-.1-.4-.5-.4-.8-.3Z"/>
      <path class="st0" d="M45.3,85.7c.3,0,.5-.2.6-.4.3-1.1-1.3-1.4-1.2-.3,0,0,0,.1,0,.2,0,.2.3.5.5.5Z"/>
      <path class="st0" d="M41,85.5c-.5.1-.5.6-.4,1,0,.3.4.5.6.4.3-.1.5-.6.4-.9,0-.3-.3-.6-.7-.5Z"/>
      <path class="st0" d="M56,93.2c0,0-.2-.1-.3-.2-1.1-.7-2.3-1-3.6-1.1-.9,0-1.8,0-2.8.1-.2,0-.9.2-1.1.1-.3-.2-.2-.7-.1-1,.2-.4.5-.6.7-.9,1.5-1.6,2.3-3.8,2.1-5.9,0-1.3-.5-2.6-1-3.7-.6-1.1-1.7-1.7-2.5-2.5-.9-.8-1.5-2.5-2.7-2.9-.9-.3-2.1-.2-3,0-1,.1-2,.4-3,.9-1.5.7-2.8,2-3.1,3.7,0,.5.2,1.1.2,1.6,0,.5-.2,1.1-.3,1.7,0,.6-.1,1.1,0,1.7.3,3.1,2.4,7.1,5.7,7.7.2,0,.4,0,.6.2.2.1.3.3.2.5,0,.3-.4.3-.7.3-1.9-.2-3.8-.4-5.5-1.1-1.5-.7-2.8-1.7-4-2.8-1.4-1.3-2.8-2.6-4.2-4-.6-.6-.9-1.2-1.4-1.8-.4-.5-.6-.9-1.3-.9-.2,0-.5,0-.7.2-.5-1.1-.6-2.5-.2-3.6.1-.4.6-1.8.7-2.1.2-.7.4-1.5.4-2.2,0-.3,0-.6-.2-.9-.2-.3-.4-.5-.7-.7-2.4-.8-5.1.6-6.5,2.3-.4.4-.6,1-.7,1.6-.2.8-.3,1.6-.4,2.4-.2,1.7-.3,3.4-.1,5.1,0,.5.2,1.1.7,1.4.8.5,1.6-.3,2.2-.8.5-.5.6-1.1,1.4-1.1.2,0,.4.3.8.7,0,.1-.1.2-.2.4,0,0,0,0,0,.1-.2,1,.4,1.9,1,2.7,1.7,2.2,3.3,4.3,5.2,6.3,1.9,1.9,4.1,3.6,6.7,4.6,1.2.5,2.1.9,3.1,1.8.9.9,1.4,2,2,3.1.2.4.4.8.8.8.3,0,.7-.2.8-.5s.2-.6.3-1c.6-2.8,2.4-4.9,4.9-6.3,2.6-1.4,6-2.1,8.8-2.6.4,0,.9-.1,1.3-.4s.3-.8,0-1ZM21.3,81.3s0,0-.1.1c-.5.6-1,1.2-1.5,1.7-.4.4-.9.9-1.5.8,0,0-.1,0-.2,0-.6-.3-.5-1-.5-1.6,0-.8,0-1.5.1-2.3.1-1.3.2-2.5,1.1-3.6.7-.8,1.6-1.3,2.8-1.6,1.1-.2,1.7-.1,2,.3,0,.1,0,.2,0,.4,0,.8-.2,1.6-.3,2.2-.4,1.4-1.2,2.8-1.9,3.6ZM37.2,80.3c-.2-.7.1-1.8.7-2.2,0,0,.1,0,.2-.1.9-.6,1.9-1,3-1.2.9-.2,2.2-.4,3.1,0,.7.3,1.1,1.5,1.1,2.2,0,1.4-2.1,2.1-3.2,2.5-1,.3-2.1.7-3.2.6-.8,0-1.5-.9-1.7-1.7ZM38.5,86.8c-.2-.6-.3-1.4-.4-2-.1-.6.1-1.2.8-1.5.6-.3,1.2-.2,1.9-.3,1.3,0,2.5-.5,3.6-1.1.5-.3.9-.6,1.5-.7,1.3-.2,1.8,1.4,2.1,2.3.6,1.7.8,4.3-.5,5.8-3.1,3.3-7.7,1.5-8.9-2.5Z"/>
      <path class="st0" d="M45.4,88c-.3.2-.6.3-.9.4-.4.1-.8.2-1.2.3-.2,0-.4,0-.6,0-.1,0-.2,0-.3.1,0,0,0,.2.1.3.3.2.5.3.9.3.3,0,.6,0,.9,0,.8-.1,1.6-.5,1.8-1.3,0-.1,0-.3,0-.4-.1-.2-.6.2-.7.3Z"/>
    </g>
  </g>
</svg>