<svg width="100" height="100" viewBox="0 0 100 100" fill="none" xmlns="http://www.w3.org/2000/svg">
<path d="M37.5 54.1667H45.8334V42.7084H54.1667V54.1667H62.5V34.375L50 26.0417L37.5 34.375V54.1667ZM50 80.625C58.4722 72.8473 64.757 65.7813 68.8542 59.4271C72.9514 53.073 75 47.4306 75 42.5C75 34.9306 72.5868 28.7327 67.7604 23.9063C62.9341 19.0799 57.0139 16.6667 50 16.6667C42.9861 16.6667 37.066 19.0799 32.2396 23.9063C27.4132 28.7327 25 34.9306 25 42.5C25 47.4306 27.0486 53.073 31.1459 59.4271C35.2431 65.7813 41.5278 72.8473 50 80.625ZM50 91.6667C38.8195 82.1528 30.4688 73.316 24.9479 65.1563C19.4271 56.9966 16.6667 49.4445 16.6667 42.5C16.6667 32.0834 20.0174 23.7848 26.7188 17.6042C33.4202 11.4237 41.1806 8.33337 50 8.33337C58.8195 8.33337 66.5799 11.4237 73.2813 17.6042C79.9827 23.7848 83.3334 32.0834 83.3334 42.5C83.3334 49.4445 80.5729 56.9966 75.0521 65.1563C69.5313 73.316 61.1806 82.1528 50 91.6667Z" fill="#EF8156"/>
</svg>
