<svg width="100" height="100" viewBox="0 0 100 100" fill="none" xmlns="http://www.w3.org/2000/svg">
<path d="M35.625 83.3334H64.375L68.5417 66.6667H31.4583L35.625 83.3334ZM35.625 91.6667C33.6806 91.6667 31.9792 91.0764 30.5208 89.8959C29.0625 88.7153 28.0903 87.1875 27.6042 85.3125L22.9167 66.6667H77.0833L72.3958 85.3125C71.9097 87.1875 70.9375 88.7153 69.4792 89.8959C68.0208 91.0764 66.3194 91.6667 64.375 91.6667H35.625ZM20.8333 58.3334H79.1667V50H20.8333V58.3334ZM50 33.3334C50 26.3889 52.4306 20.4862 57.2917 15.625C62.1528 10.7639 68.0556 8.33337 75 8.33337C75 14.5834 73.0208 20 69.0625 24.5834C65.1042 29.1667 60.1389 31.9445 54.1667 32.9167V41.6667H87.5V58.3334C87.5 60.625 86.684 62.5868 85.0521 64.2188C83.4201 65.8507 81.4583 66.6667 79.1667 66.6667H20.8333C18.5417 66.6667 16.5799 65.8507 14.9479 64.2188C13.316 62.5868 12.5 60.625 12.5 58.3334V41.6667H45.8333V32.9167C39.8611 31.9445 34.8958 29.1667 30.9375 24.5834C26.9792 20 25 14.5834 25 8.33337C31.9444 8.33337 37.8472 10.7639 42.7083 15.625C47.5694 20.4862 50 26.3889 50 33.3334Z" fill="#EF8156"/>
</svg>
