<svg width="100" height="100" viewBox="0 0 100 100" fill="none" xmlns="http://www.w3.org/2000/svg">
<path d="M58.3333 41.25V34.1666C60.625 33.1944 62.9687 32.4652 65.3646 31.9791C67.7604 31.493 70.2778 31.25 72.9167 31.25C74.7222 31.25 76.493 31.3888 78.2292 31.6666C79.9653 31.9444 81.6667 32.2916 83.3333 32.7083V39.375C81.6667 38.75 79.9826 38.2812 78.2812 37.9687C76.5798 37.6562 74.7917 37.5 72.9167 37.5C70.2778 37.5 67.743 37.8298 65.3125 38.4895C62.8819 39.1493 60.5555 40.0694 58.3333 41.25ZM58.3333 64.1666V57.0833C60.625 56.1111 62.9687 55.3819 65.3646 54.8958C67.7604 54.4097 70.2778 54.1666 72.9167 54.1666C74.7222 54.1666 76.493 54.3055 78.2292 54.5833C79.9653 54.8611 81.6667 55.2083 83.3333 55.625V62.2916C81.6667 61.6666 79.9826 61.1979 78.2812 60.8854C76.5798 60.5729 74.7917 60.4166 72.9167 60.4166C70.2778 60.4166 67.743 60.7291 65.3125 61.3541C62.8819 61.9791 60.5555 62.9166 58.3333 64.1666ZM58.3333 52.7083V45.625C60.625 44.6527 62.9687 43.9236 65.3646 43.4375C67.7604 42.9513 70.2778 42.7083 72.9167 42.7083C74.7222 42.7083 76.493 42.8472 78.2292 43.125C79.9653 43.4027 81.6667 43.75 83.3333 44.1666V50.8333C81.6667 50.2083 79.9826 49.7395 78.2812 49.427C76.5798 49.1145 74.7917 48.9583 72.9167 48.9583C70.2778 48.9583 67.743 49.2882 65.3125 49.9479C62.8819 50.6076 60.5555 51.5277 58.3333 52.7083ZM27.0833 66.6666C30.3472 66.6666 33.5243 67.0312 36.6146 67.7604C39.7048 68.4895 42.7778 69.5833 45.8333 71.0416V30C42.9861 28.3333 39.9653 27.0833 36.7708 26.25C33.5764 25.4166 30.3472 25 27.0833 25C24.5833 25 22.1007 25.243 19.6354 25.7291C17.1701 26.2152 14.7917 26.9444 12.5 27.9166V69.1666C14.9305 68.3333 17.3437 67.7083 19.7396 67.2916C22.1354 66.875 24.5833 66.6666 27.0833 66.6666ZM54.1667 71.0416C57.2222 69.5833 60.2951 68.4895 63.3854 67.7604C66.4757 67.0312 69.6528 66.6666 72.9167 66.6666C75.4167 66.6666 77.8646 66.875 80.2604 67.2916C82.6562 67.7083 85.0694 68.3333 87.5 69.1666V27.9166C85.2083 26.9444 82.8298 26.2152 80.3646 25.7291C77.8993 25.243 75.4167 25 72.9167 25C69.6528 25 66.4236 25.4166 63.2292 26.25C60.0347 27.0833 57.0139 28.3333 54.1667 30V71.0416ZM50 83.3333C46.6667 80.6944 43.0555 78.6458 39.1667 77.1875C35.2778 75.7291 31.25 75 27.0833 75C24.1667 75 21.3021 75.3819 18.4896 76.1458C15.6771 76.9097 12.9861 77.9861 10.4167 79.375C8.95832 80.1389 7.55207 80.1041 6.19791 79.2708C4.84374 78.4375 4.16666 77.2222 4.16666 75.625V25.4166C4.16666 24.6527 4.35763 23.9236 4.73957 23.2291C5.12152 22.5347 5.69443 22.0138 6.45832 21.6666C9.65277 20 12.9861 18.75 16.4583 17.9166C19.9305 17.0833 23.4722 16.6666 27.0833 16.6666C31.1111 16.6666 35.0521 17.1875 38.9062 18.2291C42.7604 19.2708 46.4583 20.8333 50 22.9166C53.5417 20.8333 57.2396 19.2708 61.0937 18.2291C64.9479 17.1875 68.8889 16.6666 72.9167 16.6666C76.5278 16.6666 80.0694 17.0833 83.5417 17.9166C87.0139 18.75 90.3472 20 93.5417 21.6666C94.3055 22.0138 94.8785 22.5347 95.2604 23.2291C95.6423 23.9236 95.8333 24.6527 95.8333 25.4166V75.625C95.8333 77.2222 95.1562 78.4375 93.8021 79.2708C92.4479 80.1041 91.0417 80.1389 89.5833 79.375C87.0139 77.9861 84.3229 76.9097 81.5104 76.1458C78.6979 75.3819 75.8333 75 72.9167 75C68.75 75 64.7222 75.7291 60.8333 77.1875C56.9444 78.6458 53.3333 80.6944 50 83.3333Z" fill="#EF8156"/>
</svg>
