<svg width="100" height="100" viewBox="0 0 100 100" fill="none" xmlns="http://www.w3.org/2000/svg">
<path d="M91.6666 91.6667L75 75H33.3333C31.0416 75 29.0798 74.1841 27.4479 72.5521C25.816 70.9202 25 68.9584 25 66.6667V62.5H70.8333C73.125 62.5 75.0868 61.6841 76.7187 60.0521C78.3507 58.4202 79.1666 56.4584 79.1666 54.1667V25H83.3333C85.625 25 87.5868 25.816 89.2187 27.448C90.8507 29.0799 91.6666 31.0417 91.6666 33.3334V91.6667ZM16.6666 50.7292L21.5625 45.8334H62.5V16.6667H16.6666V50.7292ZM8.33331 70.8334V16.6667C8.33331 14.375 9.14929 12.4132 10.7812 10.7813C12.4132 9.14935 14.375 8.33337 16.6666 8.33337H62.5C64.7916 8.33337 66.7534 9.14935 68.3854 10.7813C70.0173 12.4132 70.8333 14.375 70.8333 16.6667V45.8334C70.8333 48.125 70.0173 50.0868 68.3854 51.7188C66.7534 53.3507 64.7916 54.1667 62.5 54.1667H25L8.33331 70.8334Z" fill="#ED6830"/>
</svg>
